<svg id="Layer_1" data-name="Layer 1" xmlns="http://www.w3.org/2000/svg" xmlns:xlink="http://www.w3.org/1999/xlink" viewBox="0 0 399.56 600"><defs><style>.cls-1{fill:none;}.cls-2{fill:url(#Gradiente_sem_nome_23);}.cls-3{fill:#fff;}.cls-4{fill:#b6b4b4;}.cls-5{fill:#ecedc4;}.cls-6{fill:#ececef;}.cls-7{fill:url(#Degradado_sin_nombre_80);}.cls-8{fill:url(#Degradado_sin_nombre_80-2);}.cls-9{fill:url(#Degradado_sin_nombre_80-3);}.cls-10{fill:url(#Degradado_sin_nombre_80-4);}</style><linearGradient id="Gradiente_sem_nome_23" x1="68.42" y1="304.37" x2="359.4" y2="304.37" gradientUnits="userSpaceOnUse"><stop offset="0" stop-color="#5762ad"/><stop offset="1" stop-color="#51489d"/></linearGradient><linearGradient id="Degradado_sin_nombre_80" x1="126.01" y1="200.38" x2="149.54" y2="200.38" gradientUnits="userSpaceOnUse"><stop offset="0" stop-color="#6fb8e6"/><stop offset="0.49" stop-color="#748fc9"/><stop offset="1" stop-color="#7968ae"/></linearGradient><linearGradient id="Degradado_sin_nombre_80-2" x1="123.71" y1="200.45" x2="149.93" y2="200.45" xlink:href="#Degradado_sin_nombre_80"/><linearGradient id="Degradado_sin_nombre_80-3" x1="126.01" y1="231.65" x2="149.54" y2="231.65" xlink:href="#Degradado_sin_nombre_80"/><linearGradient id="Degradado_sin_nombre_80-4" x1="123.71" y1="231.81" x2="149.93" y2="231.81" xlink:href="#Degradado_sin_nombre_80"/></defs><title>logo</title><ellipse class="cls-1" cx="85.12" cy="541.79" rx="20.62" ry="23.71"/><path class="cls-2" d="M359.4,473.83a9.78,9.78,0,0,1-9.95,9.61H78.37a9.78,9.78,0,0,1-9.95-9.61V134.92a9.78,9.78,0,0,1,9.95-9.61H349.45a9.78,9.78,0,0,1,9.95,9.61Z"/><rect class="cls-3" x="85.31" y="145.33" width="257.19" height="315.2"/><path class="cls-4" d="M295.81,119.15a14.73,14.73,0,0,0-14.73-14.73H146.74A14.73,14.73,0,0,0,132,119.15v25.93H295.81Z"/><circle class="cls-4" cx="213.91" cy="112.38" r="22.83"/><circle class="cls-5" cx="213.91" cy="105.38" r="6.99"/><rect class="cls-6" x="158.87" y="201.81" width="139.89" height="6.65" rx="2" ry="2"/><rect class="cls-6" x="158.87" y="235.3" width="139.89" height="6.65" rx="2" ry="2"/><rect class="cls-6" x="158.87" y="269.39" width="139.89" height="6.65" rx="2" ry="2"/><rect class="cls-6" x="158.87" y="301.18" width="139.89" height="6.65" rx="2" ry="2"/><path class="cls-6" d="M144.94,193.13V214H124.07V193.13h20.87m2.65-2.65H121.42v26.17h26.17V190.47Z"/><path class="cls-6" d="M144.94,227.05v20.87H124.07V227.05h20.87m2.65-2.65H121.42v26.17h26.17V224.4Z"/><path class="cls-6" d="M144.94,260.95v20.87H124.07V260.95h20.87m2.65-2.65H121.42v26.17h26.17V258.3Z"/><path class="cls-6" d="M144.94,295.27v20.87H124.07V295.27h20.87m2.65-2.65H121.42v26.17h26.17V292.62Z"/><polygon class="cls-7" points="126.01 198.3 134.52 204.36 149.54 190.88 134.63 209.88 126.01 198.3"/><path class="cls-8" d="M124.23,200l8.52,6.06a2.65,2.65,0,0,0,3.4-.31l15-13.48L147.51,190l-14.9,19,4.17-.37L128.15,197c-1.66-2.23-5.94.35-4.29,2.58l8.63,11.57c1.15,1.55,3.12,1,4.17-.37l14.9-19c1.86-2.37-1.87-3.93-3.65-2.34l-15,13.48,3.4-.31-8.52-6.06C125.59,195,121.88,198.36,124.23,200Z"/><polygon class="cls-9" points="126.01 229.58 134.52 235.64 149.54 222.15 134.63 241.15 126.01 229.58"/><path class="cls-10" d="M123.85,230.84l8.52,6.06c.88.63,3.26-1.26,3.88-1.81l15-13.48-3.73,1.4-14.9,19,4.16-2.11-8.63-11.57c-.57-.77-4.72,2-4.32,2.53l8.63,11.57c.6.81,3.78-1.62,4.16-2.11l14.9-19c.74-.95-3.26,1-3.73,1.4l-15,13.48,3.88-1.81-8.52-6.06C127.11,227.56,123.68,230.72,123.85,230.84Z"/></svg>