<svg xmlns="http://www.w3.org/2000/svg" viewBox="0 0 308.47 317.63"><defs><style>.cls-1{isolation:isolate;}.cls-2{fill:#fdbe0f;opacity:0.33;}.cls-3{fill:#3c4650;}.cls-4{fill:#4c5760;}.cls-5{fill:#616d75;}.cls-10,.cls-6,.cls-7{fill:#c7c95d;}.cls-7{opacity:0.58;}.cls-10,.cls-17,.cls-7,.cls-9{mix-blend-mode:multiply;}.cls-8{fill:#ffb9a5;}.cls-11,.cls-9{fill:#ff4047;}.cls-9{opacity:0.17;}.cls-12{fill:#d32036;}.cls-13{fill:#b01623;}.cls-14,.cls-15,.cls-16{fill:none;stroke:#b01623;stroke-linecap:round;stroke-linejoin:round;stroke-width:2px;}.cls-15{stroke-dasharray:2.04 5.09;}.cls-16{stroke-dasharray:2 5;}.cls-18{fill:#ff6c60;}.cls-19{fill:#f95716;}.cls-20{fill:#f99516;}.cls-21{fill:#f97016;}.cls-22{fill:#ff9300;}.cls-23{fill:#ffbc00;}.cls-24{fill:#343d44;}.cls-25{fill:#ff837c;}.cls-26{fill:#ffe7e3;}.cls-27{fill:#e0e069;}</style></defs><title>not found</title><g class="cls-1"><g id="OBJECTS"><circle class="cls-2" cx="157.03" cy="151.44" r="151.44"/><path class="cls-3" d="M193.64,245.84l38.5-27-4.77-6s-27.94,20.59-37,26.83A11.51,11.51,0,0,1,193.64,245.84Z"/><path class="cls-4" d="M193,243.67l37.8-26.5-3.43-4.29s-27.94,20.59-37,26.83A11.22,11.22,0,0,1,193,243.67Z"/><path class="cls-4" d="M240,225.44h-.14c-4.07-.06-7.65-2.48-10.66-7.22s3.07-18.45,4.55-22.45c2.12.24,2.49.66,2.79.56l1.88,6.16-.94-3.08,1,3.08c-1.22.39-4.62,2-5.6,4.68-.73,2-.12,4.56,1.8,7.59,1.77,2.78,3.56,4.21,5.32,4.23h0c1.75,0,4.34-5,4.34-5s2.11.69,2.39.29l5.34,3.61C251.55,218.68,246.78,225.44,240,225.44Z"/><path class="cls-3" d="M237.45,225h-.14c-4.07-.06-7.65-2.48-10.66-7.22s-3.88-9.31-2.4-13.31c2.31-6.26,9.44-8.49,9.74-8.58l1.88,6.16-.94-3.08,1,3.08c-1.22.39-4.62,2-5.6,4.68-.73,2-.12,4.56,1.81,7.59,1.77,2.78,3.56,4.21,5.32,4.23h0c2.94,0,6-3.71,6.73-4.7l5.34,3.61C249,218.25,244.21,225,237.45,225Z"/><path class="cls-4" d="M198.64,252.8l0-.13c1.34-3.84.29-8-3.12-12.49s-18.39-3.45-22.65-3.43c-.51,2.07-.24,2.56-.43,2.81l5.15,3.88-2.57-1.94,2.56,2c.78-1,3.45-3.66,6.32-3.65,2.14,0,4.32,1.45,6.51,4.3,2,2.62,2.73,4.79,2.15,6.45l0,0c-.6,1.64-6.18,2.36-6.18,2.36s-.08,2.22-.55,2.34l1.56,6.25C188.33,261.32,196.32,259.16,198.64,252.8Z"/><path class="cls-3" d="M199.12,250.25l0-.13c1.34-3.84.29-8-3.12-12.49s-7.41-6.84-11.68-6.82c-6.67,0-11.21,6-11.4,6.21l5.15,3.88-2.57-1.94,2.56,2c.78-1,3.45-3.66,6.32-3.65,2.14,0,4.32,1.45,6.51,4.3,2,2.62,2.73,4.79,2.15,6.45l0,0c-1,2.76-5.56,4.41-6.73,4.7L187.9,259C188.81,258.77,196.8,256.6,199.12,250.25Z"/><circle class="cls-5" cx="220.93" cy="221.16" r="1.68"/><circle class="cls-5" cx="201.28" cy="235.48" r="1.68"/><path class="cls-6" d="M106.48,165.21S79.9,162.8,80.92,125.59l-8.86-3.46s-25,53.54,33.06,75.64C105.12,197.77,114.25,171.06,106.48,165.21Z"/><path class="cls-7" d="M87.39,188.42a76.39,76.39,0,0,0,17.73,9.35s9.13-26.71,1.36-32.56c0,0-26.58-2.41-25.56-39.62l-8.86-3.46s-.54,1.15-1.27,3.17l5.2,2.42s-4.54,31,18.54,50.7C94.53,178.44,93.86,187.12,87.39,188.42Z"/><path class="cls-8" d="M199.67,218.79s-10.25,12.49,3.77,17.17,17.76-7.48,17.76-7.48-3.74-4.67-12.62.94c0,0,3.27-10.28-1.87-11.22S199.67,218.79,199.67,218.79Z"/><path class="cls-9" d="M208.59,229.41s5.32-.09,5.56,1.35-5.29,2.64-9.13,1.68-4.33-7.69-2.4-7.45,6.49-2.64,6.49-2.64a5.25,5.25,0,0,0,.43-.46c-.22-1.83-1-3.37-2.81-3.7-5.14-.94-7,.6-7,.6s-10.25,12.49,3.77,17.17,17.76-7.48,17.76-7.48S217.47,223.8,208.59,229.41Z"/><path class="cls-6" d="M108.34,167.42s-15.22,33.77-8.09,54.7,42.81,82.29,42.81,82.29l3.33-.48s-13.32-41.86,6.18-44.24,27.59,24.74,25.69,44.71l7.61.48s9-29,11.42-58a238.16,238.16,0,0,0-1.9-53.75s13.79,9.51,10.94,15.22a66.76,66.76,0,0,1-6.66,10.47s2.85,4.28,7.14,3.33,20.45-16.65,20-28.07-27.11-36.63-40.43-38.53S109.29,161.23,108.34,167.42Z"/><path class="cls-7" d="M221.78,207c-6,9.36-15.1,13-18.12,11.48s6.65-11.18,7.25-16.31-10.57-12.08-10.57-12.08l2.11-8.76s-4.23,3-5.44,4.83-3.62-10.27-3.62-10.27c2.75,9.4-1.42,24.07-4.84,33.08-3.28,8.66-10.4,18.07-20.62,17.85-9.14-.2-18.29-.58-27.41-1.39-20.24-1.81-29.83-5.4-34.66-11.75s-1-32.35-1-32.35a3.72,3.72,0,0,0-2,1.32c-3.48,11.63-6.62,27.62-2.58,39.48A141.11,141.11,0,0,0,106,235.63l8.87-.55-.91,7.55,6.68-7.62,5.55-.56s2.87,9.09,3.59,9.68,1.09-9.05,1.09-9.05l11.78-.3s-.6,13.29,1.56,13.16,2.37-13.46,2.37-13.46,19.63-.3,22.05,2.42-.91,9.67-.91,9.67,4.23-3.32,5.74-6.65,4.53-6.34,6.4-2.46c1.43,3,6.82,7.61,8.73,9.35-1.39-2.21-3.66-9-3.66-9L197.63,242a238.19,238.19,0,0,0-2.24-48.85s13.79,9.51,10.94,15.22a66.76,66.76,0,0,1-6.66,10.47s2.85,4.28,7.14,3.33c2.91-.65,11.3-8.1,16.24-16.39C223.19,205.06,222.85,205.33,221.78,207Z"/><path class="cls-10" d="M189.15,247.46c.28.14,0-.13-.57-.66A1.92,1.92,0,0,0,189.15,247.46Z"/><path class="cls-11" d="M197.77,239.35c-29.85-19.68-78.94-15.43-96-13.19,9.64,23.82,41.29,78.25,41.29,78.25l3.33-.48s-13.32-41.86,6.18-44.24,27.59,24.74,25.69,44.71l7.61.48s9-29,11.42-58Q197.6,243,197.77,239.35Z"/><path class="cls-12" d="M193.94,247.55s-7.17,41.29-7.17,42.44-6.88-.29-6.88-.29-4.3-15.48-6.6-19.79-9.75-15.77-26.09-12-7.46,31.54-7.46,31.54l-3.73.86-.72.55c1.59,2.8,3,5.28,4.17,7.33l5.53.75c-2.82-11.2-7.71-37.34,7.58-39.2,19.22-2.34,27.34,23.94,25.76,43.83l7.62,1.12c.85-2.77,9.09-30.27,11.34-57.79,0-.17,0-.34,0-.52C195.37,247,193.94,247.55,193.94,247.55Z"/><path class="cls-13" d="M179.39,246.17c-.16-1.53-2.58-1.55-2.42,0,1.06,9.83,9.57,15,18.13,17.93l.07,0q.19-1.2.37-2.42C188.22,259.13,180.31,254.73,179.39,246.17Z"/><path class="cls-13" d="M151.59,247.06c.07-1.55-2.35-1.55-2.42,0-.18,4.4-.14,9.07,1.92,12.92a12.27,12.27,0,0,1,1.48-.28c.37,0,.74-.06,1.1-.08C151.3,256,151.41,251.31,151.59,247.06Z"/><path class="cls-13" d="M145.92,247.41c.27-1.52-2.06-2.17-2.33-.64a19.16,19.16,0,0,0,3.6,15.11,9.68,9.68,0,0,1,2-1.26A16.56,16.56,0,0,1,145.92,247.41Z"/><path class="cls-13" d="M116.09,255.75l1.13,2.15a20.11,20.11,0,0,0,8.92-17.84c-.09-1.55-2.5-1.56-2.42,0A17.72,17.72,0,0,1,116.09,255.75Z"/><path class="cls-13" d="M196.36,239.66s-70.61-17.89-91.18-5.72c1.77,3.82,3.83,8,6.05,12.41,5.25-.44,11.23-.51,15.39.75,9,2.74,24.29,5.09,34.87,3.53s17.24-3.53,27.42,2a24.12,24.12,0,0,0,7.52,2.63c.34-2.77.63-5.57.86-8.36.15-1.81.26-3.59.36-5.36Z"/><path class="cls-6" d="M102.6,232.65c-2.57,2.27-3,12.4-3,12.4s17.63-3.53,26.64-.78,24.29,5.09,34.87,3.53,17.24-3.53,27.42,2,17.63,1.57,17.63,1.57L196,236.82S119.73,217.51,102.6,232.65Z"/><path class="cls-7" d="M131,244.24l.07.13Z"/><path class="cls-7" d="M196,236.82s-11-2.79-25.64-5.42l-57.39-3.24c-4.36.92-7.92,2.36-10.33,4.49-2,1.8-2.74,8.54-2.95,11.25a11.32,11.32,0,0,0,2.17-1.52l2.81-7.91,13.65-.32-1.63,5.64s4.75-5.35,5-6.2,4.55-1,4.55-1l3.51,10.89a5.37,5.37,0,0,1,2.16-6.25c3.41-2.27,10.5,1.14,10.5,1.14l1.76,9.35h.07c.25-1.16,1.8-8.75,1-11.63-.85-3.12,21.57,0,21.57,0s2.55,6.81,1.94,10.48l1.34-.17c1.87-2.33,4.06-6,2.54-7.83-2.7-3.33,6.95,1.21,6.95,1.21l10.73,10.71a19.56,19.56,0,0,1,4.25,1.54c6.95,1.65,11.58-.76,11.58-.76Z"/><path class="cls-10" d="M200.11,243.57s0-.3,0-.8l-4.18-6s-76.22-19.31-93.35-4.17a3.07,3.07,0,0,0-.23.26,12.66,12.66,0,0,0,1.3,1.89,186.56,186.56,0,0,1,23.71-2.2,7.3,7.3,0,0,0,1.29,1,8.06,8.06,0,0,0,5.37,2h13.38a8,8,0,0,0,5.85-2.45C168,234.37,184.42,237.34,200.11,243.57Z"/><path class="cls-14" d="M141.49,292.6a8.49,8.49,0,0,0-.23-1"/><path class="cls-15" d="M140,286.69c-2-9.28-4.22-26.34,8.42-28.07"/><path class="cls-14" d="M151,258.49l1,0"/><path class="cls-16" d="M193.36,252.52c0,.75-6.51,40.09-6.51,40.09"/><g class="cls-17"><path class="cls-6" d="M129.77,244.13c-.19.13-1.32-1.22-2.12-2.82a11.4,11.4,0,0,1-1.47-6.87c.08-1.79.55-3.48.78-3.44s.19,1.75.42,3.4a24.88,24.88,0,0,0,.65,3.24,24.87,24.87,0,0,0,.73,3.22C129.23,242.46,130,244,129.77,244.13Z"/></g><g class="cls-17"><path class="cls-6" d="M120.37,232.84c.23,0,.41,1.07.26,2.17a5,5,0,0,1-2,3.79,6.11,6.11,0,0,1-1.24.85c-.37.17-.63.23-.71.14s.55-.95,1-1.77a12.22,12.22,0,0,0,.86-1.69,12.22,12.22,0,0,0,.93-1.65C119.88,233.82,120.13,232.84,120.37,232.84Z"/></g><g class="cls-17"><path class="cls-6" d="M170.65,244.36c-.22-.09.13-1.52.24-2.94a21.32,21.32,0,0,0,0-2.82,21.31,21.31,0,0,0,0-2.83c-.07-1.42-.38-2.86-.16-2.94s.94,1.25,1.34,2.75a9.13,9.13,0,0,1-.09,6.08C171.63,243.13,170.86,244.45,170.65,244.36Z"/></g><g class="cls-17"><path class="cls-6" d="M186,246.33c-.14.18-1.72-.83-3.09-2.14a13.66,13.66,0,0,1-4.13-6.24c-.67-1.77-1-3.62-.76-3.68s.94,1.63,1.84,3.17a32.79,32.79,0,0,0,2,3,32.82,32.82,0,0,0,2,3C184.85,244.84,186.12,246.15,186,246.33Z"/></g><g class="cls-17"><path class="cls-6" d="M195.67,192.14c-.23,0-.76-1.64-1.18-3.36s-.74-3.45-.74-3.45-.13-1.76-.15-3.53.06-3.54.3-3.55.57,1.71.89,3.43l.64,3.43.25,3.48C195.79,190.34,195.9,192.1,195.67,192.14Z"/></g><g class="cls-17"><path class="cls-6" d="M201.65,183.2c.15.18-.55,1.05-1.13,2s-1.06,1.86-1.06,1.86-.64.84-1.2,1.78-1,1.94-1.26,1.89-.16-1.21.16-2.36a6.55,6.55,0,0,1,2.45-4C200.49,183.6,201.51,183,201.65,183.2Z"/></g><g class="cls-17"><path class="cls-6" d="M99.76,192.15c-.23,0-.31-1.73-.12-3.44a25.45,25.45,0,0,1,.63-3.39,25.45,25.45,0,0,1,1.47-3.12c.85-1.51,1.91-2.85,2.11-2.73s-.49,1.66-1,3.22-1,3.15-1,3.15-.6,1.52-1.07,3.11S100,192.16,99.76,192.15Z"/></g><g class="cls-17"><path class="cls-6" d="M143.3,249.14a20.33,20.33,0,0,0,1.64-5,23.43,23.43,0,0,0-1.53-11.4c-1.46-4-3.41-7.86-4.5-11a33.28,33.28,0,0,1-1.16-3.81,14.94,14.94,0,0,1-.34-1.48l-.25-1.5c-.11-1-.3-2.32-.34-4a48.24,48.24,0,0,1,.12-5.61c.19-2,.45-4.21.87-6.34a103.19,103.19,0,0,1,2.93-11.54,33.62,33.62,0,0,1,1.8-5.1,40.25,40.25,0,0,1-1.17,5.27c-.75,3.14-1.77,7.33-2.39,11.56-.34,2.11-.52,4.24-.65,6.23a48.28,48.28,0,0,0,0,5.44c.08,1.59.29,2.89.42,3.8l.27,1.42a14.13,14.13,0,0,0,.29,1.42,32.43,32.43,0,0,0,1,3.68c1,3,2.81,6.94,4.16,11.1a28.58,28.58,0,0,1,1.34,6.29,18.79,18.79,0,0,1-.29,5.61,12.56,12.56,0,0,1-1.4,3.71A3.93,3.93,0,0,1,143.3,249.14Z"/></g><path class="cls-7" d="M147.33,200.13a2.89,2.89,0,1,1-2.89-2.89A2.89,2.89,0,0,1,147.33,200.13Zm-3.34,10a2.89,2.89,0,1,0,2.89,2.89A2.89,2.89,0,0,0,144,210.15Z"/><path class="cls-11" d="M146.82,199.45a2.89,2.89,0,1,1-2.89-2.89A2.89,2.89,0,0,1,146.82,199.45Zm-3.34,10a2.89,2.89,0,1,0,2.89,2.89A2.89,2.89,0,0,0,143.48,209.47Z"/><path class="cls-18" d="M140.58,212.36a2.88,2.88,0,1,0,2.89-2.89A2.9,2.9,0,0,0,140.58,212.36Z"/><path class="cls-18" d="M141,199.45a2.87,2.87,0,0,0,.1.7,2.86,2.86,0,0,0,1.32.31,2.87,2.87,0,0,0,2.75-3.6,2.87,2.87,0,0,0-1.27-.31A2.89,2.89,0,0,0,141,199.45Z"/><path class="cls-19" d="M100.25,222.12a11.24,11.24,0,0,0,2.35,10.53s51.24-9.2,96.43,8.77c0,0,.52-8.85-1.63-11.44S153,213.31,100.25,222.12Z"/><path class="cls-20" d="M100.25,222.12a10.59,10.59,0,0,0-.32,4.67,12.16,12.16,0,0,0,2,3.24s51.24-9.2,96.43,8.77A41.77,41.77,0,0,0,198,231a4.25,4.25,0,0,0-.59-1C195.25,227.41,153,213.31,100.25,222.12Z"/><path class="cls-21" d="M198.32,238.81a42.08,42.08,0,0,0-.32-7.71c-2.62-2.7-44.68-16.57-97.09-7.82a10.59,10.59,0,0,0-.32,4.67q.16.39.35.79a12.47,12.47,0,0,0,.94,1.3S153.12,220.84,198.32,238.81Z"/><path class="cls-19" d="M188.34,220.1c-2.69,2.14-11.52,2.17-13.57,2.14v11.6c2.94.36,10.74.9,16.37-2.61C198.2,226.83,191.39,217.67,188.34,220.1Z"/><path class="cls-20" d="M188.34,220.1c-2.89,2.3-12.87,2.16-13.91,2.14v9.21c2.85.36,10.77,1,16.47-2.59a6,6,0,0,0,3.07-4.58C193.07,221.13,190.09,218.71,188.34,220.1Z"/><path class="cls-21" d="M188.67,221.59c-3.05,2.43-14,2.14-14,2.14l-.51,7.69c2.59.35,10.86,1.11,16.74-2.56a6.06,6.06,0,0,0,3-4.15C192.72,222.11,190.21,220.36,188.67,221.59Z"/><path class="cls-22" d="M146.34,219a4.06,4.06,0,0,1,4.3,3.75v4.11a4.06,4.06,0,0,1-4.3,3.75H133a4.06,4.06,0,0,1-4.3-3.75v-4.11A4.06,4.06,0,0,1,133,219h13.38m0-2.81H133c-4.15,0-7.52,2.94-7.52,6.56v4.11c0,3.62,3.37,6.56,7.52,6.56h13.38c4.15,0,7.52-2.94,7.52-6.56v-4.11c0-3.62-3.37-6.56-7.52-6.56Z"/><path class="cls-23" d="M145.39,215.51H132c-4.15,0-7.52,2.94-7.52,6.56v4.11c0,3.62,3.37,6.56,7.52,6.56h13.38c4.15,0,7.52-2.94,7.52-6.56v-4.11C152.9,218.46,149.53,215.51,145.39,215.51Zm4.3,10.67a4.06,4.06,0,0,1-4.3,3.75H132a4.06,4.06,0,0,1-4.3-3.75v-4.11a4.06,4.06,0,0,1,4.3-3.75h13.38a4.06,4.06,0,0,1,4.3,3.75Z"/><path class="cls-19" d="M106,225.61v-.21a1.61,1.61,0,1,0-3.22,0v.21a1.61,1.61,0,0,0,3.22,0Z"/><path class="cls-19" d="M116.6,226a1.61,1.61,0,0,0,0-3.22,1.61,1.61,0,0,0,0,3.22Z"/><path class="cls-19" d="M129.23,225.35a1.61,1.61,0,0,0,0-3.22,1.61,1.61,0,0,0,0,3.22Z"/><path class="cls-19" d="M139,225.35a1.61,1.61,0,0,0,0-3.22,1.61,1.61,0,0,0,0,3.22Z"/><path class="cls-19" d="M158,225.19V225a1.61,1.61,0,1,0-3.22,0v.21a1.61,1.61,0,1,0,3.22,0Z"/><path class="cls-19" d="M168.78,228.25a1.61,1.61,0,0,0,0-3.22,1.61,1.61,0,0,0,0,3.22Z"/><path class="cls-19" d="M181,228.67a1.61,1.61,0,0,0,0-3.22,1.61,1.61,0,0,0,0,3.22Z"/><path class="cls-22" d="M142.22,225.64h6.39a1.61,1.61,0,0,0,0-3.22h-6.39a1.61,1.61,0,0,0,0,3.22Z"/><path class="cls-23" d="M142.22,222.41a1.14,1.14,0,1,0-.63,2H148a1.14,1.14,0,1,0,.63-2Z"/><path class="cls-8" d="M119.28,87.44S109,97.68,107.68,108.59c0,0-7.5-8.87-8.87,2.73s19.78,30,47.75,32.74,60-21.14,61.39-25.92-1.36-13-13.64-10.91l-.68-8.87S149.29,61.53,119.28,87.44Z"/><path class="cls-9" d="M111.15,109.41,108,106.65c-.14.64-.26,1.29-.34,1.94a13.64,13.64,0,0,0-2.68-2.34c-.16,2.05-.52,4.91-1.3,5.46-1.24.89-3.72-2.66-3.72-2.66a5.11,5.11,0,0,0-.79.11,17.75,17.75,0,0,0-.38,2.16c-.46,3.92,1.66,8.63,5.75,13.24Z"/><path class="cls-9" d="M196.15,107l-.09.18.29-.21Z"/><path class="cls-9" d="M207.95,118.14a9,9,0,0,0,0-4.6c-.62,1.56-1.93,2.67-4.44,2.25-4.82-.8-5.82-.4-7.22,1.4s2.21,7.63-2.81,6.62c-4.49-.9.81-13.18,2.56-16.63-12.06,8.93-9.36,19.67-6.53,25.47C200,126.75,207.31,120.36,207.95,118.14Z"/><path class="cls-9" d="M124.26,116.79s4,4.42,9.23,4.21,7.63.8,9,1.61,5.22-2.81,6.22-2.41,3.61,4.62.8,6.22S123.06,131,124.26,116.79Z"/><ellipse class="cls-9" cx="166.31" cy="123.62" rx="12.44" ry="7.67" transform="translate(-27.79 51.06) rotate(-16.13)"/><ellipse class="cls-9" cx="114.01" cy="119.97" rx="5.36" ry="8.7" transform="translate(-38.03 185.35) rotate(-69.73)"/><path class="cls-7" d="M186.35,155.52c-13.32-1.9-77.06,5.71-78,11.89,0,0-1.65,3.66-3.6,9.3.09,3.35,1.28,25.94,17.35,25.94,17.36,0,13.5-5.14,13.5-5.14s14.79,4.5,23.79-7.07c0,0,18.65,3.86,26.37-10.29s-1.29-16.08-1.29-16.08a47.56,47.56,0,0,0,10.08-5.49A26.05,26.05,0,0,0,186.35,155.52Z"/><path class="cls-24" d="M122.51,123.49s-12.22-10.93-20.58-7.07-13.5,16.08-9.65,26.37c0,0-10.93,9-4.5,21.86s15.43,7.72,15.43,7.72,0,26.37,17.36,26.37,13.5-5.14,13.5-5.14,14.79,4.5,23.79-7.07c0,0,18.65,3.86,26.37-10.29S183,160.15,183,160.15s18.65-7.07,15.43-16.08-9.65-8.36-9.65-8.36,8.36-8.36-.64-11.58l5.79-19.29-7.72-7.72s-7.07,7.72-.64,13.5c0,0-7.72,2.57-4.5,9.65,0,0-17.36-1.93-22.51,4.5,0,0-11.58-1.93-16.08,1.29S122.51,123.49,122.51,123.49Z"/><path class="cls-3" d="M186.18,97.13s-5.85,6.38-2.07,11.89l3.22-10.74Z"/><path class="cls-3" d="M178.2,146.22s10.69-4.06,13.82-9.85a7.42,7.42,0,0,0-3.26-.65,14.3,14.3,0,0,0,3.34-5.47c-3.09-7.22-8.52-6.7-8.52-6.7s7.76-7.76-.6-10.74l.3-1c-2,1.37-4.24,4-2.23,8.46,0,0-17.36-1.93-22.51,4.5,0,0-11.58-1.93-16.08,1.29s-19.94-2.57-19.94-2.57-12.22-10.93-20.58-7.07A18.88,18.88,0,0,0,93,126a18.89,18.89,0,0,0,1,4.11,18,18,0,0,0-3,3.38,21.14,21.14,0,0,0,1.2,9.29,20,20,0,0,0-3.67,4.37,18.64,18.64,0,0,0,1.27,3.24c6,11.93,14.32,7.16,14.32,7.16s0,24.46,16.11,24.46,12.53-4.77,12.53-4.77,13.72,4.18,22.08-6.56c0,0,17.3,3.58,24.46-9.55S178.2,146.22,178.2,146.22Z"/><path class="cls-3" d="M116.56,91c-1.25,1.67-9.59,2.08-9.17,10.42s2.92,3.75,2.92,3.75-9.17,6.67-2.92,12.51S116.56,91,116.56,91Z"/><path class="cls-9" d="M191.43,72.1H120.12c-6.31,8-11.63,16.39-11.63,21.07,0,8.82,3.15,8.19,3.15,8.19s.76-13,30.36-14.28c25-1.06,42.78,13.85,49.43,20.49Z"/><path class="cls-11" d="M111.63,97.9s-3.15.63-3.15-8.19,18.89-30.86,27.71-38.42,13.86-12.6,9.45-13.23-17,2.52-6.3-5S167.69,23,180.91,33s25.19,54.17,18.27,74.32l-4.87-.13s-20.21-25-52.31-23.6C112.39,84.88,111.63,97.9,111.63,97.9Z"/><path class="cls-12" d="M125.9,86c-4-.71-12.28,3.31-12.75-1.18s22-10.86,22-10.86-11.1-.24-13.7,0-.94-3.31,3.78-6.85,13.94-2.31,13.94-2.31-1.9-1.23-5.2-3.12,11.55-5.49,11.55-5.49l-13,2.42a75.54,75.54,0,0,1,9.92-9.68c4.72-3.54,13-5.43,14.09-9.22s-8.19-3.53-14.09-4.71c-2.44-.49-2.46-1.66-1.64-2.87-.49.31-1,.62-1.44,1-10.71,7.56,1.89,4.41,6.3,5s-.63,5.67-9.45,13.23-27.71,29.6-27.71,38.42,3.15,8.19,3.15,8.19.47-7.81,14.43-11.92Z"/><path class="cls-12" d="M190.08,102.81a52.05,52.05,0,0,1,4.23,4.42l4.87.13c6.93-20.15-5-64.24-18.27-74.32a32,32,0,0,0-6-3.62,49.89,49.89,0,0,1,12.66,28.21C189.66,76.27,189,87.13,189,86.9s3.78,4.49,2.83,6.61-9.92-5.9-10.86-5.9,9.92,12.28,9.21,15.11A.22.22,0,0,1,190.08,102.81Z"/><path class="cls-24" d="M161,137.93h0a20,20,0,0,0-2-3.05l0,0q-.37-.47-.78-.92l-.06-.07a21.62,21.62,0,0,0-1.83-1.79l-.07-.06q-.43-.37-.88-.71l-.21-.16q-.41-.31-.84-.6l-.19-.13a18.31,18.31,0,0,0-2.16-1.22l-.31-.14-.83-.35-.35-.13q-.46-.17-.93-.3l-.24-.07q-.59-.16-1.19-.27l-.29,0c-.31-.05-.61-.09-.92-.12l-.41,0c-.29,0-.59,0-.88,0h-.38c-.42,0-.84,0-1.26.09l-1.44.18-.3,0-1.24.17-.18,0-1,.14-.22,0-.94.14-.18,0-.75.12-.1,0-.69.12-.16,0-.57.11h0l-.45.1-.11,0-.37.09-.06,0-.26.07-.06,0-.21.07,0,0-.14.06h0l-.1.06h0s-.07.07-.07.1h0a.07.07,0,0,0,0,0h0l-.15-.08-.15-.08-.12-.07-.31-.17-.05,0c-.41-.22-.94-.49-1.51-.76l-.05,0-.52-.24-.11,0-.47-.2-.15-.06-.43-.17-.18-.07-.4-.13-.19-.06-.36-.1-.19,0-.33-.06-.18,0-.3,0h-.16l-.27,0-.12,0a1,1,0,0,0-.31.14s-7.73-2.11-12.54,3.41q-.29.33-.56.7a12.66,12.66,0,0,0-1,1.63q-.24.45-.45.94a17,17,0,0,0-.77,2.15q-.17.58-.31,1.22t-.22,1.17c-1.77,11.19,11.1,3.82,12.38,3.06l0,0,.08,0v.35c0,.08,0,.17,0,.28h0c-.05,1.77.46,6.75,7.9,6.95,9,.24,9-5.28,9-5.28s.71,6.68,7.13,4.52,6.55-4,6.55-4,4.06,6.94,7.56,1.62C163.08,144.12,162.61,141,161,137.93Z"/><path class="cls-4" d="M126.7,125.77s-12.66-3.45-15.67,10S123.29,140,123.29,140s-1.19,7.33,7.85,7.57,9-5.28,9-5.28.71,6.68,7.13,4.52,6.55-4,6.55-4,4.06,6.94,7.56,1.62S155,124.73,143.4,126.16s-9.54,1.95-9.54,1.95S128.16,124.76,126.7,125.77Z"/><path class="cls-5" d="M143.4,126.16c-9.14,1.13-9.8,1.69-9.67,1.87-.81-.47-5.69-3.19-7-2.26,0,0-12.66-3.45-15.67,10.05a16.58,16.58,0,0,0-.35,2.22c3.39,2.11,11.09-2.59,11.09-2.59a7,7,0,0,0,1.15,4.76l.38-.22a5.35,5.35,0,0,0,0,.62c1.13,1.28,3.06,2.32,6.37,2.41,9,.24,9-5.28,9-5.28s.71,6.68,7.13,4.52,6.55-4,6.55-4,4.06,6.94,7.56,1.62a5.32,5.32,0,0,0,.66-3.56C157.52,130.8,150.83,125.24,143.4,126.16Z"/><path class="cls-25" d="M136.21,105A95.67,95.67,0,0,1,133.49,118l2.21-.29c-1.69-2.44-3.86-6.37-7.26-6.07a7.48,7.48,0,0,0-6.24,6.27c-1.08,8.68,10.64,12.24,16.84,8.53a1.21,1.21,0,0,0-1.22-2.09c-4.19,2.51-11.4,1.25-12.86-4-.81-2.89,1.53-7.89,5.45-5.46,1.07.66,2.52,3.06,3.2,4a1.23,1.23,0,0,0,2.21-.29,95.67,95.67,0,0,0,2.72-13.05c.21-1.52-2.12-2.18-2.33-.64Z"/><path class="cls-25" d="M140.19,124.43a1.42,1.42,0,0,1,1,1.83c-.67,1.39,1.41,2.62,2.09,1.22a3.84,3.84,0,0,0-3.13-5.47c-1.55-.13-1.54,2.29,0,2.42Z"/><path class="cls-25" d="M145.55,119.69a3.25,3.25,0,0,1,1.43,4.8c-.87,1.29,1.22,2.5,2.09,1.22a5.69,5.69,0,0,0-2.88-8.35c-1.47-.53-2.1,1.81-.64,2.33Z"/><path class="cls-25" d="M200.81,113.43c-2.33-.07-4.26,2.29-5.22,4.21-1,2.09-1,4.36.87,6,1.17,1,2.89-.69,1.71-1.71s-1-2.15-.3-3.39c.54-1,1.71-2.69,2.94-2.65,1.56,0,1.55-2.37,0-2.42Z"/><path class="cls-25" d="M101.1,112.22a5.73,5.73,0,0,1,1.42,3,1.22,1.22,0,0,0,1.49.84,1.24,1.24,0,0,0,.84-1.49,8,8,0,0,0-2-4.11c-1.05-1.15-2.76.56-1.71,1.71Z"/><path class="cls-9" d="M146.78,103s-.89,7.13,11.28,5,15.14-8.31,15.14-8.31,3.56,1.19,4.45-.59S172.31,80.7,146.78,103Z"/><path class="cls-3" d="M146.44,101.62s-.89,7.13,11.28,5,15.14-8.31,15.14-8.31,3.56,1.19,4.45-.59S172,79.35,146.44,101.62Z"/><path class="cls-5" d="M146.44,101.62a3.55,3.55,0,0,0,0,.55c1.41,1.38,4.24,2.43,9.93,1.45,12.17-2.08,15.14-8.31,15.14-8.31s3.56,1.19,4.45-.59a1.71,1.71,0,0,0,0-.92C173,89.61,164.59,85.79,146.44,101.62Z"/><path class="cls-4" d="M176,94.71a1.71,1.71,0,0,0,0-.92l-.09-.12c-4.05-3-12.41-3.64-27.67,9.65,1.68.69,4.23,1,8.13.3,12.17-2.08,15.14-8.31,15.14-8.31S175.07,96.49,176,94.71Z"/><path class="cls-9" d="M114.11,104.68s6.49-5,12.26-5,13-4.09,10.33-8.89-15.62-3.85-20.91,1.68S111.22,105.64,114.11,104.68Z"/><path class="cls-3" d="M113.77,103s6.49-5,12.26-5,13-4.09,10.33-8.89-15.62-3.85-20.91,1.68S110.88,103.95,113.77,103Z"/><path class="cls-5" d="M125,95.91c5.25,0,11.67-3.39,10.79-7.62-3.55-3.91-15.36-2.77-20.35,2.44-3.23,3.38-4.21,7.56-3.83,10.09a1.26,1.26,0,0,0,1.13.14S119.24,95.91,125,95.91Z"/><path class="cls-4" d="M116.29,92.42a13.67,13.67,0,0,0-3.88,8.61,1.43,1.43,0,0,0,.34-.07s6.49-5,12.26-5c4.83,0,10.64-2.87,10.85-6.63C131.6,86.22,121,87.54,116.29,92.42Z"/><ellipse class="cls-24" cx="163.06" cy="110.47" rx="3.58" ry="5.56"/><ellipse class="cls-24" cx="120.59" cy="107.72" rx="3.58" ry="5.56"/><path class="cls-25" d="M115,113.3a8.55,8.55,0,0,1,3.37.72,7.8,7.8,0,0,1,2.18,2.07c1,1.2,2.7-.52,1.71-1.71a9.07,9.07,0,0,0-3.06-2.64,12.12,12.12,0,0,0-4.2-.86c-1.55-.12-1.54,2.29,0,2.42Z"/><path class="cls-4" d="M113.29,163.08c0,.1-.63.09-1.56,0A10.41,10.41,0,0,1,108.3,162a6.27,6.27,0,0,1-2.8-3,4.71,4.71,0,0,1-.32-2.79l.74,1a6.63,6.63,0,0,1-.83-.08,8.38,8.38,0,0,1-1.94-.58,9,9,0,0,1-3.5-2.63,2.86,2.86,0,0,1-.61-2.47,4.62,4.62,0,0,1,1-1.82,6.81,6.81,0,0,1,1-1,.36.36,0,0,1,.34-.05.19.19,0,0,1,.08.29c0,.05-.11.09-.16.06s0,0,0-.06,0,0,0,0,0,0,0-.05v0s.05-.06,0,0l-.06.07c-.14.23-.42.65-.68,1.11a4.38,4.38,0,0,0-.6,1.62,1.86,1.86,0,0,0,.59,1.57,8.08,8.08,0,0,0,3.16,2,7.26,7.26,0,0,0,1.64.37,4.52,4.52,0,0,0,.68.08l1,.09-.28.91a3.18,3.18,0,0,0,.08,1.9,5.23,5.23,0,0,0,2,2.59,12.46,12.46,0,0,0,3,1.41C112.73,162.78,113.31,163,113.29,163.08Z"/><path class="cls-4" d="M141.83,170.24c.09,0,0,.68-.51,1.55a8.16,8.16,0,0,1-2.46,2.66,8.87,8.87,0,0,1-3.42,1.42,7.62,7.62,0,0,1-1.26.13h-.43a8.53,8.53,0,0,1-1.73-.36,8.87,8.87,0,0,1-3.21-1.85,8.17,8.17,0,0,1-2.09-3c-.37-.94-.39-1.57-.3-1.6s.37.57.87,1.31a9,9,0,0,0,2.25,2.35,7.78,7.78,0,0,0,4.25,1.48l.43,0a6.14,6.14,0,0,0,1,0,8.11,8.11,0,0,0,3-.92,9,9,0,0,0,2.54-2C141.39,170.73,141.71,170.19,141.83,170.24Z"/><path class="cls-4" d="M168,154.12c0-.13.85.12,2.06.06a8,8,0,0,0,4.07-1.36,6.54,6.54,0,0,0,2.52-3.22,2.53,2.53,0,0,0,.1-1.57,1.42,1.42,0,0,0-.22-.52,1.15,1.15,0,0,0-1.13-.55l-4.81,1.38,4.16-2.65a6.33,6.33,0,0,0,2.08-2,2.83,2.83,0,0,0,.18-2.7,2,2,0,0,0-1.88-1c-.6,0-.9.35-1,.28s0-.13.14-.28a1.57,1.57,0,0,1,.74-.45,2.39,2.39,0,0,1,1.31,0,2.46,2.46,0,0,1,1.37,1,3.73,3.73,0,0,1,.18,3.7,7.31,7.31,0,0,1-2.33,2.63l-.64-1.27a2.36,2.36,0,0,1,1.82.12,3,3,0,0,1,1,.83,2.91,2.91,0,0,1,.53,1,3.27,3.27,0,0,1,.1.76,4.61,4.61,0,0,1-.35,1.78,7.64,7.64,0,0,1-3.33,3.68,8.06,8.06,0,0,1-4.69,1A3.37,3.37,0,0,1,168,154.12Z"/><path class="cls-4" d="M153.11,151.91a3.35,3.35,0,0,1,.81,2.8,5.36,5.36,0,0,1-1.11,2.92,6,6,0,0,1-3,2,7.05,7.05,0,0,1-3.66.12,8.2,8.2,0,0,1-2.92-1.35,9.49,9.49,0,0,1-1.69-1.57c-.36-.44-.55-.72-.57-.75l1.45-.19,0,.13a4.85,4.85,0,0,1-.4.84,6.36,6.36,0,0,1-1.57,1.79,7,7,0,0,1-3,1.35,8.43,8.43,0,0,1-3.66-.14,8.61,8.61,0,0,1-3.25-1.57,4.45,4.45,0,0,1-1.67-2.71,3.21,3.21,0,0,1,.39-2.19c.3-.47.58-.61.61-.58s-.15.27-.31.72a3.14,3.14,0,0,0-.06,1.92,3.85,3.85,0,0,0,1.6,2.11,7.93,7.93,0,0,0,2.95,1.17,7.35,7.35,0,0,0,3.12-.05,5.6,5.6,0,0,0,2.33-1.19,4.87,4.87,0,0,0,1.13-1.41,3.46,3.46,0,0,0,.26-.61l0-.09.51-1.32.94,1.13s.16.27.45.65a8.11,8.11,0,0,0,1.35,1.38,6.9,6.9,0,0,0,2.36,1.24,5.9,5.9,0,0,0,3,.08,5.15,5.15,0,0,0,2.62-1.5,4.9,4.9,0,0,0,1.16-2.39A7.32,7.32,0,0,0,153.11,151.91Z"/><path class="cls-4" d="M105.32,138.72s.08.19-.08.48a1.58,1.58,0,0,1-1.12.63,5.06,5.06,0,0,1-1.76-.07,7.5,7.5,0,0,1-2-.55,3.66,3.66,0,0,1-1.72-1.58,2.7,2.7,0,0,1-.32-1.21,3.41,3.41,0,0,1,.17-1.08,11.85,11.85,0,0,0,.43-1.31.81.81,0,0,0,0-.46l.57.56-.64-.18a9.88,9.88,0,0,1-1.83-.82,6.73,6.73,0,0,1-1.68-1.33,4.4,4.4,0,0,1-1.09-2.28,7.09,7.09,0,0,1,.93-4.24c.59-1,1.2-1.51,1.28-1.45s-.33.7-.7,1.72a7.07,7.07,0,0,0-.37,3.76,4,4,0,0,0,2.33,2.49,9.21,9.21,0,0,0,1.62.6s.07,0,.57.18l.45.13.12.43a2.46,2.46,0,0,1,0,1.25,11.32,11.32,0,0,1-.58,1.43,2,2,0,0,0-.17.64,1.42,1.42,0,0,0,.11.62,2.55,2.55,0,0,0,1.07,1.18,7.33,7.33,0,0,0,1.67.68,5.23,5.23,0,0,0,1.52.31A1.44,1.44,0,0,0,105,139C105.19,138.86,105.26,138.71,105.32,138.72Z"/><path class="cls-25" d="M157.32,119.56c5.35-2.72,9.23-5.68,15.63-4.85,1.54.2,1.52-2.22,0-2.42a18.66,18.66,0,0,0-9.36,1.05c-2.67,1-5,2.83-7.49,4.13-1.39.71-.16,2.79,1.22,2.09Z"/><path class="cls-24" d="M112.44,164.64c0,.1-.65.09-1.61,0a10.8,10.8,0,0,1-3.56-1.11,6.5,6.5,0,0,1-2.91-3.09,4.88,4.88,0,0,1-.33-2.89l.76,1a6.89,6.89,0,0,1-.86-.08,8.69,8.69,0,0,1-2-.6,9.31,9.31,0,0,1-3.63-2.73,3,3,0,0,1-.63-2.56,4.79,4.79,0,0,1,1-1.89,7.07,7.07,0,0,1,1-1,.37.37,0,0,1,.35-.05.19.19,0,0,1,.08.3c0,.05-.12.1-.17.06s0-.05,0-.06,0,0,0,0,0,0,0-.05a.06.06,0,0,0,0,0s.05-.06,0,0l-.06.07c-.15.24-.44.67-.71,1.15a4.54,4.54,0,0,0-.62,1.68,1.92,1.92,0,0,0,.61,1.63,8.38,8.38,0,0,0,3.28,2,7.53,7.53,0,0,0,1.71.38,4.7,4.7,0,0,0,.7.08l1.05.09-.29.94a3.3,3.3,0,0,0,.08,2,5.43,5.43,0,0,0,2.12,2.68A12.92,12.92,0,0,0,111,164C111.86,164.33,112.46,164.54,112.44,164.64Z"/><path class="cls-24" d="M142,172.06c.1,0,0,.71-.53,1.61a8.47,8.47,0,0,1-2.55,2.76,9.2,9.2,0,0,1-3.55,1.47,7.91,7.91,0,0,1-1.3.14h-.45a8.84,8.84,0,0,1-1.79-.37,9.19,9.19,0,0,1-3.33-1.92,8.47,8.47,0,0,1-2.17-3.07c-.38-1-.41-1.63-.31-1.66s.38.59.9,1.36a9.31,9.31,0,0,0,2.34,2.44,8.07,8.07,0,0,0,4.41,1.53l.45,0a6.35,6.35,0,0,0,1,0,8.41,8.41,0,0,0,3.14-.95,9.31,9.31,0,0,0,2.63-2.12C141.58,172.58,141.91,172,142,172.06Z"/><path class="cls-24" d="M169.22,155.35c0-.13.88.12,2.14.06a8.3,8.3,0,0,0,4.22-1.41,6.78,6.78,0,0,0,2.62-3.33,2.63,2.63,0,0,0,.11-1.62,1.48,1.48,0,0,0-.23-.54,1.2,1.2,0,0,0-1.17-.57l-5,1.43,4.32-2.75a6.57,6.57,0,0,0,2.16-2,2.94,2.94,0,0,0,.19-2.8,2.05,2.05,0,0,0-2-1c-.62,0-.93.36-1,.29s0-.13.14-.29a1.63,1.63,0,0,1,.76-.46,2.48,2.48,0,0,1,1.36,0,2.55,2.55,0,0,1,1.42,1,3.87,3.87,0,0,1,.19,3.84,7.58,7.58,0,0,1-2.41,2.72l-.67-1.32a2.45,2.45,0,0,1,1.89.12,3.08,3.08,0,0,1,1.08.86,3,3,0,0,1,.55,1.06,3.39,3.39,0,0,1,.1.79,4.78,4.78,0,0,1-.37,1.84A7.93,7.93,0,0,1,176.2,155a8.36,8.36,0,0,1-4.87,1A3.5,3.5,0,0,1,169.22,155.35Z"/><path class="cls-24" d="M153.73,153.06c.05-.08,1,1,.84,2.9a5.55,5.55,0,0,1-1.15,3,6.27,6.27,0,0,1-3.1,2.08,7.31,7.31,0,0,1-3.79.13,8.5,8.5,0,0,1-3-1.4,9.84,9.84,0,0,1-1.75-1.63c-.38-.45-.57-.75-.59-.78l1.5-.2,0,.13a5,5,0,0,1-.42.87,6.6,6.6,0,0,1-1.63,1.86,7.22,7.22,0,0,1-3.1,1.4,8.74,8.74,0,0,1-3.79-.15,8.93,8.93,0,0,1-3.37-1.63,4.61,4.61,0,0,1-1.74-2.81,3.33,3.33,0,0,1,.4-2.27c.31-.48.6-.63.63-.6s-.16.28-.32.75a3.26,3.26,0,0,0-.06,2,4,4,0,0,0,1.66,2.19,8.22,8.22,0,0,0,3.06,1.22,7.62,7.62,0,0,0,3.23-.05,5.8,5.8,0,0,0,2.41-1.24,5,5,0,0,0,1.17-1.46,3.59,3.59,0,0,0,.27-.64l0-.09.53-1.37,1,1.18s.17.28.47.67a8.4,8.4,0,0,0,1.4,1.43,7.15,7.15,0,0,0,2.44,1.29,6.12,6.12,0,0,0,3.13.08,5.34,5.34,0,0,0,2.72-1.56,5.08,5.08,0,0,0,1.2-2.48A7.6,7.6,0,0,0,153.73,153.06Z"/><path class="cls-24" d="M104.17,139.38s.09.2-.08.5a1.64,1.64,0,0,1-1.16.66,5.25,5.25,0,0,1-1.82-.07A7.77,7.77,0,0,1,99,139.9a3.79,3.79,0,0,1-1.78-1.64,2.8,2.8,0,0,1-.34-1.26,3.54,3.54,0,0,1,.18-1.12,12.28,12.28,0,0,0,.44-1.36.83.83,0,0,0,0-.47l.59.58-.67-.19a10.24,10.24,0,0,1-1.9-.85,7,7,0,0,1-1.74-1.38,4.57,4.57,0,0,1-1.13-2.36,7.36,7.36,0,0,1,1-4.4c.61-1.06,1.25-1.57,1.32-1.5s-.35.72-.73,1.78a7.34,7.34,0,0,0-.38,3.9,4.14,4.14,0,0,0,2.42,2.58,9.56,9.56,0,0,0,1.68.62s.08,0,.59.18l.47.13.12.44a2.56,2.56,0,0,1,0,1.3,11.76,11.76,0,0,1-.6,1.48,2.13,2.13,0,0,0-.17.67,1.47,1.47,0,0,0,.12.65,2.65,2.65,0,0,0,1.11,1.22,7.6,7.6,0,0,0,1.74.7,5.42,5.42,0,0,0,1.57.32,1.49,1.49,0,0,0,1-.25C104,139.52,104.11,139.37,104.17,139.38Z"/><path class="cls-4" d="M150,128.46c-.07-.08.23-.42.83-.31a1.69,1.69,0,0,1,1.3,1.6,2.45,2.45,0,0,1-1,1.91,3,3,0,0,1-.62.38l-.15.07-.06,0h0a3.7,3.7,0,0,1-.9.1,7.43,7.43,0,0,1-1.73-.24c-.57-.14-1.1-.26-1.51-.32s-.7-.08-.74-.19.22-.32.68-.46a6.49,6.49,0,0,1,1.69-.21,8.52,8.52,0,0,0,1.47-.12,2.32,2.32,0,0,0,.53-.17h0l.13,0a1.44,1.44,0,0,0,.31-.11,1.25,1.25,0,0,0,.67-.71.91.91,0,0,0-.35-.91C150.35,128.54,150.06,128.57,150,128.46Z"/><path class="cls-4" d="M125.14,132.64c.1.2-1.34,1-3.1.82a4.1,4.1,0,0,1-2.23-1,3.84,3.84,0,0,1-.75-.9s-.05-.11-.13-.3a3.55,3.55,0,0,1-.21-.84,2.92,2.92,0,0,1,.8-2.48,2.69,2.69,0,0,1,2.29-.77,1.62,1.62,0,0,1,.73.33c.12.13.17.22.15.27s-.14.05-.31,0a2.91,2.91,0,0,0-.59,0,2.14,2.14,0,0,0-1.37.89,1.64,1.64,0,0,0-.17,1.41,2,2,0,0,0,.3.62,2.52,2.52,0,0,0,.38.61,3,3,0,0,0,1.38.93C123.56,132.75,125.08,132.42,125.14,132.64Z"/><path class="cls-4" d="M132.32,135.59c.1.05.12.27,0,.54a1.69,1.69,0,0,1-.84.73,2.11,2.11,0,0,1-1.2.13,2.36,2.36,0,0,1-.44-.14l-.1,0a1.78,1.78,0,0,1-.45-.48,2.11,2.11,0,0,1-.35-1.16,1.69,1.69,0,0,1,.34-1.05c.21-.26.39-.28.49-.23s.09.7.35,1.07.58.44.48.39l.08.07c.09.06,0,0,.07.08a1,1,0,0,0,.47.19C131.64,135.78,132.12,135.5,132.32,135.59Z"/><circle class="cls-26" cx="128.74" cy="117.09" r="1.54"/><circle class="cls-26" cx="200.4" cy="109.67" r="1.27"/><circle class="cls-26" cx="102.53" cy="107.84" r="0.93"/><path class="cls-18" d="M171.55,85.06c-.12.22-1.54-.33-3.65-1.06A62.4,62.4,0,0,0,160,81.87a65.89,65.89,0,0,0-8-1c-2.21-.11-3.68-.13-3.68-.13l-1-.06c-.65,0-1.56-.12-2.68-.12-2.22-.09-5.19,0-8.18.12-6,.32-11.94,1.23-12,.76s5.73-2.18,11.79-3.13a80.31,80.31,0,0,1,8.4-.86c1.15-.08,2.12-.06,2.8-.08h1.06s1.55.12,3.85.4a57.36,57.36,0,0,1,8.31,1.77,42,42,0,0,1,7.82,3.25C170.44,83.93,171.65,84.88,171.55,85.06Z"/><path class="cls-18" d="M160.88,54.55c0,.93-13.08,2.36-13.08,2.36s-3.3,0-6.61-.16c-1.66-.08-3.25-.16-4.44-.11s-2,.16-2.1-.07.6-.77,1.84-1.22a22.9,22.9,0,0,1,4.58-1c3.28-.47,6.56-.83,6.56-.83S160.83,53.62,160.88,54.55Z"/><path class="cls-18" d="M142.43,62.68c-.22.41-1.41.28-2.54.19l-2.21-.18-2-.91c-1-.46-2.14-.92-2.13-1.39s1.21-.85,2.48-1a13.8,13.8,0,0,1,2.52,0,13.79,13.79,0,0,1,2.21,1.21C141.78,61.35,142.65,62.27,142.43,62.68Z"/><path class="cls-18" d="M135.11,67.14c-.17.43-.93.59-1.6.72s-1.29.2-1.29.2-.54-.3-1.13-.66-1.22-.79-1.23-1.25.69-.89,1.46-1.12a7.13,7.13,0,0,1,1.53-.28,7.12,7.12,0,0,1,1.32.82C134.79,66.06,135.29,66.71,135.11,67.14Z"/><path class="cls-18" d="M157.59,41.67c-.19-.17.56-1.07.16-2.45a4.25,4.25,0,0,0-1.21-2,3.25,3.25,0,0,0-.48-.38l-.23-.14-.36-.19a7.06,7.06,0,0,0-1.26-.35,22.26,22.26,0,0,0-5.65.22,17.39,17.39,0,0,1-3,.06,10.36,10.36,0,0,1-1.3-.27A7.8,7.8,0,0,1,141,34.44L139.49,33l1.66-1a21.63,21.63,0,0,1,4.1-1.87,20.23,20.23,0,0,1,4.53-.94c2.88-.25,5,.27,5,.57s-2.14.44-4.69,1.16a23.25,23.25,0,0,0-3.91,1.49,21.46,21.46,0,0,0-3.36,2.07l.14-2.38A4.86,4.86,0,0,0,145,33a8.32,8.32,0,0,0,.94.11,14.86,14.86,0,0,0,2.48.19,21.31,21.31,0,0,1,6.39.58,7.87,7.87,0,0,1,1.79.84l.33.24c.12.09.27.23.4.34A5,5,0,0,1,158,36a5.3,5.3,0,0,1,1.09,3.07,3.17,3.17,0,0,1-.71,2.17C158,41.66,157.65,41.74,157.59,41.67Z"/><path class="cls-18" d="M186.16,83.33c-.16,0-.36-.9-.52-2.39s-.27-3.58-.57-5.83-.91-4.65-2.39-6.2a8,8,0,0,0-2.54-1.81c-.5-.18-1-.38-1.45-.53l-1.42-.36-11.95-3,12.36.07a5.52,5.52,0,0,0,3.29-.86l.38-.3.23-.27a.9.9,0,0,0,.19-.23l.13-.18a2.49,2.49,0,0,0,.35-.56,7.13,7.13,0,0,0,.75-2.58,27.87,27.87,0,0,0-.9-9.33,77.19,77.19,0,0,0-2.93-9.34c-.94-2.52-1.71-4.13-1.52-4.26s1.38,1.3,2.71,3.71a54.19,54.19,0,0,1,4,9.25c2.81,8.53,2.29,17.87,2.46,26.7a55.76,55.76,0,0,1-.27,6C186.45,82.41,186.33,83.32,186.16,83.33Z"/><path class="cls-13" d="M111.23,92.68c-.1,0-.15-.47.07-1.12a5,5,0,0,1,1.43-2,10.38,10.38,0,0,1,2-1.36c.58-.3,1-.47,1-.47l1-.3,2.2-.58c1.61-.4,3.24-.74,3.32-.52s-1.41,1-2.92,1.65l-3,1.32-.94.32a11.39,11.39,0,0,0-1.93.89,5.58,5.58,0,0,0-1.56,1.36C111.53,92.33,111.35,92.71,111.23,92.68Z"/><path class="cls-13" d="M189.08,92.64a7.27,7.27,0,0,1-1.5-.91l-1.65-1.14-2.18-1.41a97.26,97.26,0,0,0-12.21-6.67,82.26,82.26,0,0,0-13.05-4.69c-1.81-.53-3.37-.8-4.44-1.07-.53-.13-1-.19-1.25-.25l-.45-.08-1.7-.33c-1.08-.25-2.64-.4-4.51-.69a71.32,71.32,0,0,0-13.84-.24,66.52,66.52,0,0,0-13.65,2.53c-3.65,1.07-6,2-6.06,1.92a6.66,6.66,0,0,1,1.55-.83c1-.47,2.49-1.08,4.3-1.72A61.34,61.34,0,0,1,132.18,74a70.15,70.15,0,0,1,14.12-.12c1.91.25,3.52.37,4.62.61l1.74.3.45.09c.3.06.73.13,1.28.28,1.09.3,2.67.6,4.51,1.19A80.15,80.15,0,0,1,172,81.43a85.66,85.66,0,0,1,12.07,7.21c.77.57,1.49,1.07,2.11,1.55l1.56,1.27A7.19,7.19,0,0,1,189.08,92.64Z"/><path class="cls-13" d="M150.87,44.19c0-.13.63-.23,1.51-.55a8.43,8.43,0,0,0,2.82-1.73,7.42,7.42,0,0,0,1.1-1.32c.28-.45.3-.74.22-.93a1.65,1.65,0,0,0-.71-.66,3.28,3.28,0,0,0-.31-.18,5.6,5.6,0,0,0-1-.38,19.53,19.53,0,0,0-3.32-.77c-2.48-.39-5-.08-5.07-.3s2.49-1,5.17-.89a18,18,0,0,1,3.64.46,7,7,0,0,1,1.24.38,4.67,4.67,0,0,1,.48.23,3.86,3.86,0,0,1,.45.33,2.69,2.69,0,0,1,.91,1.37,2.19,2.19,0,0,1,0,1.17,3.15,3.15,0,0,1-.53,1A8.11,8.11,0,0,1,156,42.82a7.84,7.84,0,0,1-3.43,1.45C151.54,44.42,150.87,44.29,150.87,44.19Z"/><path class="cls-13" d="M198.48,96.69c-.22,0-.86-2.12-2.14-3.88a13.93,13.93,0,0,0-1.93-2.23c-.3-.28-.52-.46-.72-.62l-.3-.24s-.38-.36-1-.84a21.15,21.15,0,0,0-2.52-1.62c-1.94-1.07-4-2-3.93-2.23s2.28.32,4.44,1.15a18.41,18.41,0,0,1,2.89,1.42,14.09,14.09,0,0,1,1.24.85l.28.27c.17.17.47.46.76.79a13.34,13.34,0,0,1,1.83,2.69C198.5,94.3,198.72,96.66,198.48,96.69Z"/><path class="cls-13" d="M157.71,58a7.94,7.94,0,0,1-2.27-.23,38.61,38.61,0,0,0-4.92-.35,45.42,45.42,0,0,0-4.91.3c-1.33.17-2.22.3-2.22.3s-.89.09-2.23.27-3.12.48-4.9.82c-3.56.69-7.12,1.49-7.18,1.26s3.38-1.42,6.91-2.42c1.77-.49,3.55-.92,4.91-1.19s2.27-.41,2.27-.41.92-.09,2.31-.18a39.4,39.4,0,0,1,5.09.06,27.24,27.24,0,0,1,5,.9A6,6,0,0,1,157.71,58Z"/><path class="cls-13" d="M143,65.21c-.07.22-2-.17-3.9-.46s-3.82-.52-3.82-.52-1.88-.41-3.79-.73-3.84-.58-3.84-.81,2-.41,3.95-.38,4,.26,4,.26,1.94.41,3.82,1S143.1,65,143,65.21Z"/><path class="cls-8" d="M73.83,120.23s8.34-25.44,27.82-22.9,5.72,8.13-.33,7.49-8,1-8,1,8.24-1.1,4.52,7.44S86.48,120.63,85.13,120s-4.21,5.57-4.21,5.57S71,125.1,73.83,120.23Z"/><path class="cls-3" d="M129.51,293.85l17.6-1.6,8.53,25.06H118.31s4.27-16.53,26.13-6.93Z"/><path class="cls-3" d="M194.93,293l-19-1-2.82,25.69h37.33s-4.27-16.53-26.13-6.93Z"/><path class="cls-9" d="M85.13,120c1.35.61,9,1.81,12.72-6.72s-4.52-7.44-4.52-7.44,1.94-1.68,8-1c4.84.51,14.6-3,8.32-5.68a1.1,1.1,0,0,0,0,.13c.3,4.17-11.32,3.28-14,3.28s-4.17,3.58-4.17,3.58,4.77,3,5.06,4.47-6,.89-6,.89,4.77.89,4.77,3-4.77,2.38-8,1.79-5.36,3-10.43,3c-1.36,0-1.92-.65-2-1.59-.68,1.58-1,2.59-1,2.59-2.87,4.87,7.09,5.36,7.09,5.36S83.79,119.41,85.13,120Z"/><path class="cls-27" d="M89.1,188.61a22.11,22.11,0,0,1-3.05-3.4c-1.72-2.13-3.9-5.07-5.91-8.13s-3.88-6.22-5.19-8.62-2.1-4.09-2.1-4.09l-.49-1.17c-.3-.75-.72-1.84-1.13-3.18a36.49,36.49,0,0,1-1.4-10.08,69.39,69.39,0,0,1,.74-10,24.29,24.29,0,0,1,.84-4.49,28.48,28.48,0,0,1-.18,4.56,86,86,0,0,0-.2,9.95,36.44,36.44,0,0,0,1.69,9.65c.42,1.26.85,2.29,1.16,3l.51,1.12s.7,1.65,1.94,4.06,2.95,5.61,4.83,8.71,3.88,6.13,5.43,8.37A32.16,32.16,0,0,1,89.1,188.61Z"/><path class="cls-27" d="M138.91,209.67c-.46-.06,0-5.86,0-5.86s1.17-5.7,1.63-5.63,0,5.86,0,5.86S139.38,209.73,138.91,209.67Z"/><path class="cls-27" d="M192,188.54c-.47,0-1-5.42-1-5.42s.19-5.46.66-5.48,1,5.42,1,5.42S192.5,188.53,192,188.54Z"/><path class="cls-27" d="M204.81,186.36c.26.39-1.63,2.12-1.63,2.12s-2.31,1.1-2.57.72,1.63-2.12,1.63-2.12S204.55,186,204.81,186.36Z"/><path class="cls-27" d="M212.3,212c-.22-.11,2.64-5.53,5.43-10.91a24.09,24.09,0,0,0,1.62-4,12.66,12.66,0,0,0,.4-1.91c0-.31.06-.59.08-.87s0-.63,0-.85a11.7,11.7,0,0,0-.39-2.54c-.17-.6-.3-.94-.3-.94a19.79,19.79,0,0,0-1.42-3.38c-1-2-2.62-4.6-4.21-7.17a39.69,39.69,0,0,0-5-6.57c-1.57-1.62-2.84-2.48-2.76-2.6a10,10,0,0,1,3.21,2.12,34.82,34.82,0,0,1,5.56,6.38c1.75,2.53,3.42,5.05,4.59,7.09a21,21,0,0,1,1.65,3.59s.13.38.3,1.07a13.09,13.09,0,0,1,.34,2.92c0,.35,0,.59,0,.93s-.07.69-.13,1a13.85,13.85,0,0,1-.53,2.1,24.38,24.38,0,0,1-1.9,4.18c-1.53,2.68-3.13,5.24-4.33,7.2A18.43,18.43,0,0,1,212.3,212Z"/><path class="cls-27" d="M196.78,187.27c-.23-.05-.16-1.26.13-2.44a15.74,15.74,0,0,1,.77-2.31,15.76,15.76,0,0,1,1.47-1.95c.81-.91,1.76-1.66,1.93-1.5s-.44,1.16-1,2.18-1,2.05-1,2.05-.61.94-1.15,1.95S197,187.32,196.78,187.27Z"/><path class="cls-27" d="M126.53,242.42c-.19.13-1-.7-1.59-1.7a6.31,6.31,0,0,1-1.15-4.42c0-1.17.33-2.28.56-2.25s.37,1.11.63,2.14a20.78,20.78,0,0,0,.61,2,20.8,20.8,0,0,0,.45,2C126.31,241.27,126.72,242.29,126.53,242.42Z"/><path class="cls-27" d="M112.5,240.14c-.07-.22.59-.67,1.1-1.2a8.92,8.92,0,0,0,.92-1.1,8.91,8.91,0,0,0,1-1l.66-.81c.19-.24.35-.41.46-.38s.17.25.17.58a4.27,4.27,0,0,1-.24,1.19,3.49,3.49,0,0,1-2.34,2.52C113.43,240.3,112.56,240.36,112.5,240.14Z"/><path class="cls-27" d="M147.8,244c-.22-.08-.14-.94-.16-1.76s-.08-1.61-.08-1.61.12-.78.16-1.61,0-1.68.24-1.75.68.71.94,1.59a4.37,4.37,0,0,1-.09,3.58C148.51,243.32,148,244.08,147.8,244Z"/><path class="cls-27" d="M172.69,244.9c-.17-.16.35-1,.7-1.9a14.09,14.09,0,0,0,.59-1.78,14.09,14.09,0,0,0,.71-1.74c.31-.9.47-1.89.7-1.9s.5,1,.48,2.09a5.11,5.11,0,0,1-1.46,4C173.73,244.46,172.85,245.07,172.69,244.9Z"/><path class="cls-27" d="M181.53,245.44c-.17.16-1-.37-1.63-1a5.13,5.13,0,0,1-1.86-3.24c-.24-.93-.3-1.87-.07-1.93s.68.73,1.17,1.46,1,1.43,1,1.43.34.79.73,1.58S181.7,245.28,181.53,245.44Z"/><path class="cls-18" d="M126,247.23c.23,0,.47,1.68.08,3.38a8.25,8.25,0,0,1-3.72,5.64,9.12,9.12,0,0,1-2.08,1.1c-.6.2-1,.25-1.06.15s.29-.37.76-.74a17.26,17.26,0,0,0,1.6-1.42,25.7,25.7,0,0,0,3.36-5.08C125.54,248.83,125.74,247.24,126,247.23Z"/><path class="cls-18" d="M128.09,253.49c.2.12,0,.9-.34,1.64a13.72,13.72,0,0,1-.73,1.43,13.74,13.74,0,0,1-1.19,1.08c-.63.5-1.33.92-1.49.75s.21-.86.59-1.53l.76-1.33,1.08-1.08C127.31,253.92,127.89,253.37,128.09,253.49Z"/><path class="cls-18" d="M190,266.57c-.06.22-2.76-.54-5.1-2.09a21.26,21.26,0,0,1-4.25-3.64,17.53,17.53,0,0,1-1-1.44,20.4,20.4,0,0,1-1.77-3.43c-.52-1.3-.84-2.6-1.3-3.45s-1-1.29-.89-1.4.76.17,1.44,1a22.91,22.91,0,0,1,1.84,3.32,22.39,22.39,0,0,0,2,3c.6.78,1,1.25,1,1.25a23,23,0,0,0,3.65,3.75C187.65,265.21,190.11,266.34,190,266.57Z"/><path class="cls-18" d="M136.24,284.55c-.09.05-.61-.64-1-1.87a17.63,17.63,0,0,1-.82-4.62c-.11-1.69-.16-3.35-.19-4.62s0-2.12,0-2.12.05-.85.23-2.12a24.34,24.34,0,0,1,1.07-4.59c1.08-3.29,3.19-6,3.37-5.87s-1.5,3-2.23,6.21a26.06,26.06,0,0,0-.67,4.42c-.09,1.22-.09,2-.09,2s-.07.82-.13,2.06l-.17,4.56a22.14,22.14,0,0,0,.26,4.48A12.1,12.1,0,0,1,136.24,284.55Z"/><path class="cls-18" d="M181.13,284.94c-.49.11-4.18-15.14-4.58-14.88a16.74,16.74,0,0,0-.91-2.15,20.18,20.18,0,0,0-3-4.25c-2.6-2.89-5.26-5.8-5.09-6s3.09,2.43,6,5.15a20.16,20.16,0,0,1,3.49,4.31,17.72,17.72,0,0,1,.85,1.66l.28.64s.36,1,.73,2.41.75,3.39,1.11,5.31C180.7,281,181.36,284.89,181.13,284.94Z"/><path class="cls-4" d="M135.51,311.64c-.07.22-1.4.07-2.69.15a17.36,17.36,0,0,0-2.54.34,17.35,17.35,0,0,0-2.54.35c-1.26.26-2.51.77-2.63.57s.94-1.1,2.24-1.7a12.89,12.89,0,0,1,2.7-.9,12.9,12.9,0,0,1,2.84.15C134.3,310.83,135.58,311.42,135.51,311.64Z"/><path class="cls-4" d="M143.17,305c-.21.1-1.21-1.55-2.42-3a29.69,29.69,0,0,0-2.56-2.75s-.3-.36-.78-.87c-.24-.26-.52-.55-.83-.86l-.52-.49a2.11,2.11,0,0,1-.33-.41,1.13,1.13,0,0,1-.18-.76,1,1,0,0,1,.09-.29l0,0a.66.66,0,0,1,.09-.13,1,1,0,0,1,.32-.24,2.43,2.43,0,0,1,.43-.14c.25-.06.49-.12.73-.15a6.6,6.6,0,0,1,1.31-.08c.77,0,1.25.2,1.24.31s-.5.18-1.18.34a9.7,9.7,0,0,0-1.13.34l-.61.25a1.38,1.38,0,0,0-.24.13h0l-.06-.09-.08-.09s-.06,0,0,0l0,0s0,0,0,0,.37-.12.3-.05l.15.12.56.4c.38.28.72.56,1,.8.57.49.93.84.93.84a22.4,22.4,0,0,1,2.32,3.24C142.75,303.07,143.39,304.95,143.17,305Z"/><path class="cls-4" d="M183,306c-.08-.1.3-.51.76-1.19a20.9,20.9,0,0,0,1.46-2.62c.48-1,1-2,1.41-2.78s.78-1.23.78-1.23.37-.47,1-1.11,1.42-1.46,2.24-2.23l.43,1c-2.29-.16-4.41-.9-4.34-1.12s2.2.08,4.36-.06l1.29-.09-.87,1.08c-.71.88-1.42,1.76-1.92,2.43s-.81,1.13-.81,1.13-.35.41-.82,1.06-1.05,1.58-1.68,2.53a13.28,13.28,0,0,1-2,2.46C183.64,305.85,183.11,306.11,183,306Z"/><path class="cls-4" d="M204,314.09c-.09.08-.46-.19-1-.53s-1.36-.76-2.17-1.18a12.24,12.24,0,0,0-2.16-1,4.45,4.45,0,0,0-.67-.15,1.72,1.72,0,0,0-.27,0,3.84,3.84,0,0,0-1-.08,13.19,13.19,0,0,0-2.35.33,11.36,11.36,0,0,1-2.58.31c-.75,0-1.18-.21-1.17-.31s.49-.17,1.1-.34a21.92,21.92,0,0,0,2.31-.8,12,12,0,0,1,2.55-.74,5.19,5.19,0,0,1,1.32,0,3.13,3.13,0,0,1,.35.07,5.72,5.72,0,0,1,.92.32,11.33,11.33,0,0,1,2.25,1.42,14.37,14.37,0,0,1,1.95,1.68C203.84,313.58,204.06,314,204,314.09Z"/><path class="cls-24" d="M147.11,292.25l-12.51,1.14,9.87,1.41L152.22,315l-10.07-7.16,2.29,2.53-.74-.31,2.81,3.51-27.17,1.27a12.51,12.51,0,0,0-1,2.46h37.33Z"/><path class="cls-24" d="M208.92,314.32l-25-.53,3.07-4.14c-.85.31-1.73.65-2.64,1.05l.65-1.09-8,4.79,3.68-21,8.54-.72-13.21-.7-2.82,25.69h37.33A13.52,13.52,0,0,0,208.92,314.32Z"/><path class="cls-3" d="M218.17,49.72q.83-1,1.26-1.54a18.6,18.6,0,0,1,5.22-4.41,15.37,15.37,0,0,1,4.78-1.58,49.59,49.59,0,0,1,6.62-.42,22.51,22.51,0,0,0,6.54-.78A7.81,7.81,0,0,0,246,38.66a9.2,9.2,0,0,0,2.12-7.13,10.2,10.2,0,0,0-3.72-7,9.92,9.92,0,0,0-7.09-2.57q-3.88.18-8.21,3.89l-4.65-5q5.6-5.15,11.67-5.25t11.74,4.74q6,5.13,6.79,11.47a13.63,13.63,0,0,1-3.19,11,13.22,13.22,0,0,1-5.49,3.88,30.86,30.86,0,0,1-9.63,1.32,32.84,32.84,0,0,0-6,.48,9.44,9.44,0,0,0-3.15,1.43,26.24,26.24,0,0,0-4.15,4Zm-8.95,9.85,4.91-5.74,5.73,4.9L215,64.47Z"/><path class="cls-11" d="M216.77,47.86q.83-1,1.26-1.54a18.6,18.6,0,0,1,5.22-4.41A15.37,15.37,0,0,1,228,40.33a49.55,49.55,0,0,1,6.62-.42,22.5,22.5,0,0,0,6.54-.78,7.82,7.82,0,0,0,3.34-2.33,9.2,9.2,0,0,0,2.12-7.13,10.2,10.2,0,0,0-3.72-7,9.92,9.92,0,0,0-7.09-2.57q-3.88.18-8.21,3.89l-4.65-5q5.6-5.15,11.67-5.25t11.74,4.74q6,5.13,6.79,11.47a13.63,13.63,0,0,1-3.19,11,13.23,13.23,0,0,1-5.49,3.88,30.86,30.86,0,0,1-9.63,1.32,32.84,32.84,0,0,0-6,.48A9.44,9.44,0,0,0,225.76,48a26.23,26.23,0,0,0-4.15,4Zm-8.95,9.85L212.73,52l5.73,4.9-4.91,5.74Z"/><path class="cls-5" d="M37.22,146.65l-1.63-1.15a18.6,18.6,0,0,1-4.78-4.88A15.37,15.37,0,0,1,28.88,136a49.57,49.57,0,0,1-.91-6.58,22.51,22.51,0,0,0-1.26-6.47,7.82,7.82,0,0,0-2.57-3.16,9.2,9.2,0,0,0-7.26-1.59,10.2,10.2,0,0,0-6.74,4.22,9.92,9.92,0,0,0-2,7.26q.46,3.85,4.48,7.9l-4.68,5q-5.54-5.21-6.09-11.25t3.87-12.05q4.68-6.37,10.94-7.61A13.63,13.63,0,0,1,27.82,114a13.22,13.22,0,0,1,4.28,5.19,30.86,30.86,0,0,1,2,9.51,32.84,32.84,0,0,0,.91,5.92,9.44,9.44,0,0,0,1.65,3A26.24,26.24,0,0,0,41,141.52Zm10.48,8.2-6.09-4.47,4.46-6.08,6.09,4.47Z"/><path class="cls-3" d="M35.46,148.18,33.84,147a18.6,18.6,0,0,1-4.78-4.88,15.37,15.37,0,0,1-1.93-4.66,49.57,49.57,0,0,1-.91-6.58A22.51,22.51,0,0,0,25,124.45a7.82,7.82,0,0,0-2.57-3.16,9.2,9.2,0,0,0-7.26-1.59,10.2,10.2,0,0,0-6.74,4.22,9.92,9.92,0,0,0-2,7.26q.46,3.85,4.48,7.9l-4.68,5Q.61,138.87.06,132.83t3.87-12.05q4.68-6.37,10.94-7.61a13.63,13.63,0,0,1,11.19,2.38,13.22,13.22,0,0,1,4.28,5.19,30.86,30.86,0,0,1,2,9.51,32.84,32.84,0,0,0,.91,5.92,9.44,9.44,0,0,0,1.65,3,26.24,26.24,0,0,0,4.31,3.85Zm10.48,8.2-6.09-4.47,4.46-6.08,6.09,4.47Z"/><path class="cls-5" d="M70,63.43q-.82-1.35-1.21-2A22.11,22.11,0,0,1,66,53.79a18.27,18.27,0,0,1,.15-6,58.92,58.92,0,0,1,2.19-7.58,26.75,26.75,0,0,0,1.75-7.63,9.29,9.29,0,0,0-1.26-4.68,10.94,10.94,0,0,0-7.12-5.24A12.13,12.13,0,0,0,52.33,24a11.8,11.8,0,0,0-5.72,6.9q-1.36,4.41,1.05,10.75l-7.5,3.17Q36.65,36.48,39,29.66T49,18.44q8.16-4.66,15.56-3a16.21,16.21,0,0,1,11,8,15.72,15.72,0,0,1,2.14,7.71q.05,4.06-2.4,11.31a39,39,0,0,0-1.87,6.87,11.22,11.22,0,0,0,.33,4.1,31.19,31.19,0,0,0,2.82,6.26Zm7.42,14L73,69.6l7.78-4.44L85.22,73Z"/><path class="cls-3" d="M67.37,64.25q-.82-1.35-1.21-2a22.11,22.11,0,0,1-2.84-7.61,18.27,18.27,0,0,1,.15-6A58.93,58.93,0,0,1,65.67,41a26.75,26.75,0,0,0,1.76-7.63,9.29,9.29,0,0,0-1.26-4.68A10.94,10.94,0,0,0,59,23.48a12.13,12.13,0,0,0-9.36,1.33A11.8,11.8,0,0,0,44,31.72Q42.6,36.12,45,42.46l-7.5,3.17Q34,37.3,36.33,30.47t10-11.22q8.16-4.66,15.56-3a16.21,16.21,0,0,1,11,8A15.72,15.72,0,0,1,75.06,32q.05,4.06-2.4,11.31a39,39,0,0,0-1.87,6.87,11.22,11.22,0,0,0,.33,4.1,31.19,31.19,0,0,0,2.82,6.26Zm7.42,14-4.45-7.8L78.12,66l4.45,7.8Z"/><path class="cls-3" d="M99.91,61.4q-.15-1.18-.22-1.77a16.62,16.62,0,0,1,.36-6.1A13.73,13.73,0,0,1,102,49.46a44.3,44.3,0,0,1,3.81-4.55,20.11,20.11,0,0,0,3.53-4.72,7,7,0,0,0,.55-3.6,8.23,8.23,0,0,0-3.3-5.77,9.12,9.12,0,0,0-6.84-1.93,8.87,8.87,0,0,0-6,3q-2.28,2.62-2.54,7.71L85,39.53q.12-6.8,3.79-10.79t10.3-4.67q7-.73,11.61,2.68a12.18,12.18,0,0,1,5.14,8.84,11.82,11.82,0,0,1-.87,5.95,27.58,27.58,0,0,1-5.09,7,29.35,29.35,0,0,0-3.37,4.15,8.44,8.44,0,0,0-1,2.92,23.44,23.44,0,0,0,0,5.16Zm.86,11.86-.69-6.71,6.7-.69.69,6.71Z"/><path class="cls-11" d="M97.84,61.15q-.15-1.18-.22-1.77a16.62,16.62,0,0,1,.36-6.1,13.73,13.73,0,0,1,1.93-4.07,44.29,44.29,0,0,1,3.81-4.55A20.11,20.11,0,0,0,107.25,40a7,7,0,0,0,.55-3.6,8.23,8.23,0,0,0-3.3-5.77,9.12,9.12,0,0,0-6.84-1.93,8.87,8.87,0,0,0-6,3q-2.28,2.62-2.54,7.71L83,39.28q.12-6.8,3.79-10.79t10.3-4.67q7-.72,11.61,2.68a12.18,12.18,0,0,1,5.14,8.84,11.82,11.82,0,0,1-.87,5.95,27.58,27.58,0,0,1-5.09,7,29.36,29.36,0,0,0-3.37,4.15,8.44,8.44,0,0,0-1,2.92,23.45,23.45,0,0,0,0,5.16ZM98.7,73,98,66.3l6.7-.69.69,6.71Z"/><path class="cls-3" d="M65.38,91.54l-1.48-1a16.62,16.62,0,0,1-4.41-4.23,13.73,13.73,0,0,1-1.85-4.1,44.32,44.32,0,0,1-1-5.85,20.11,20.11,0,0,0-1.31-5.74,7,7,0,0,0-2.38-2.75,8.23,8.23,0,0,0-6.53-1.22,9.12,9.12,0,0,0-5.9,4,8.87,8.87,0,0,0-1.62,6.54q.52,3.43,4.23,6.93l-4,4.6q-5.1-4.5-5.76-9.88t3.12-10.88q4-5.82,9.56-7.11a12.18,12.18,0,0,1,10.06,1.81,11.82,11.82,0,0,1,4,4.52,27.58,27.58,0,0,1,2.07,8.44,29.36,29.36,0,0,0,1,5.26,8.44,8.44,0,0,0,1.56,2.67,23.45,23.45,0,0,0,4,3.32Zm9.59,7-5.56-3.82,3.82-5.55L78.79,93Z"/><path class="cls-11" d="M63.85,93l-1.48-1A16.62,16.62,0,0,1,58,87.75a13.73,13.73,0,0,1-1.85-4.1,44.32,44.32,0,0,1-1-5.85,20.11,20.11,0,0,0-1.31-5.74,7,7,0,0,0-2.38-2.75,8.23,8.23,0,0,0-6.53-1.22A9.12,9.12,0,0,0,39,72a8.87,8.87,0,0,0-1.62,6.54q.52,3.43,4.23,6.93l-4,4.6q-5.1-4.5-5.76-9.88t3.12-10.88q4-5.82,9.56-7.11a12.18,12.18,0,0,1,10.06,1.81,11.82,11.82,0,0,1,4,4.52A27.58,27.58,0,0,1,60.57,77a29.35,29.35,0,0,0,1,5.26A8.44,8.44,0,0,0,63.12,85a23.45,23.45,0,0,0,4,3.32Zm9.59,7-5.56-3.82,3.82-5.55,5.56,3.82Z"/><path class="cls-5" d="M250.82,143q1.1-1.21,1.67-1.8a23,23,0,0,1,6.75-5.06,19,19,0,0,1,6-1.61,61.19,61.19,0,0,1,8.19,0,27.77,27.77,0,0,0,8.12-.49,9.65,9.65,0,0,0,4.29-2.63,11.36,11.36,0,0,0,3.13-8.63,12.59,12.59,0,0,0-4.08-8.92,12.25,12.25,0,0,0-8.55-3.67q-4.79-.06-10.39,4.21l-5.36-6.54q7.27-5.94,14.75-5.63t14.12,6.69q7,6.76,7.54,14.62a16.82,16.82,0,0,1-4.72,13.3,16.32,16.32,0,0,1-7,4.39q-4,1.24-12,.93a40.52,40.52,0,0,0-7.39.16,11.65,11.65,0,0,0-4,1.53,32.37,32.37,0,0,0-5.4,4.65Zm-11.73,11.5,6.46-6.72,6.71,6.44-6.46,6.72Z"/><path class="cls-3" d="M249.23,140.61q1.1-1.21,1.67-1.8a23,23,0,0,1,6.75-5.06,19,19,0,0,1,6-1.61,61.16,61.16,0,0,1,8.19,0,27.77,27.77,0,0,0,8.12-.5,9.64,9.64,0,0,0,4.29-2.63,11.36,11.36,0,0,0,3.13-8.63,12.59,12.59,0,0,0-4.08-8.92,12.25,12.25,0,0,0-8.55-3.67q-4.79-.06-10.39,4.21L259,105.41q7.27-5.94,14.75-5.63t14.12,6.69q7,6.76,7.54,14.62a16.82,16.82,0,0,1-4.72,13.3,16.32,16.32,0,0,1-7,4.39q-4,1.24-12,.93a40.53,40.53,0,0,0-7.39.16,11.65,11.65,0,0,0-4,1.53,32.38,32.38,0,0,0-5.4,4.65ZM237.5,152.1l6.46-6.72,6.71,6.44-6.46,6.72Z"/><path class="cls-3" d="M261.63,172.17l1.69-.73A17.25,17.25,0,0,1,269.5,170a14.26,14.26,0,0,1,4.62.72,46,46,0,0,1,5.65,2.46,20.88,20.88,0,0,0,5.73,2.13,7.25,7.25,0,0,0,3.75-.51,8.54,8.54,0,0,0,4.77-5,9.47,9.47,0,0,0-.09-7.38,9.21,9.21,0,0,0-4.76-5.12q-3.28-1.5-8.42-.27l-1.7-6.12q6.81-1.87,11.85.61t7.68,8.89q2.79,6.78.75,12.34a12.65,12.65,0,0,1-7.29,7.71,12.27,12.27,0,0,1-6.18.88,28.63,28.63,0,0,1-8.51-3,30.47,30.47,0,0,0-5.13-2.14,8.76,8.76,0,0,0-3.21-.16,24.34,24.34,0,0,0-5.13,1.55Zm-11.56,4.34,6.48-2.66,2.66,6.47L252.73,183Z"/><path class="cls-11" d="M261.27,170l1.69-.73a17.25,17.25,0,0,1,6.18-1.43,14.26,14.26,0,0,1,4.62.72,46,46,0,0,1,5.65,2.46,20.88,20.88,0,0,0,5.73,2.13,7.25,7.25,0,0,0,3.75-.51,8.54,8.54,0,0,0,4.77-5,9.47,9.47,0,0,0-.09-7.38,9.21,9.21,0,0,0-4.77-5.12q-3.27-1.5-8.42-.27l-1.7-6.12q6.81-1.87,11.85.61t7.68,8.89q2.79,6.78.75,12.34a12.65,12.65,0,0,1-7.29,7.71,12.27,12.27,0,0,1-6.18.88,28.63,28.63,0,0,1-8.51-3,30.48,30.48,0,0,0-5.13-2.14,8.76,8.76,0,0,0-3.21-.16,24.34,24.34,0,0,0-5.13,1.55Zm-11.56,4.34,6.48-2.66,2.66,6.47-6.48,2.66Z"/><path class="cls-3" d="M221.47,146.64q.35-1.18.54-1.77a17.26,17.26,0,0,1,2.91-5.63,14.26,14.26,0,0,1,3.54-3.05,46,46,0,0,1,5.53-2.71,20.88,20.88,0,0,0,5.33-3,7.25,7.25,0,0,0,2-3.18,8.54,8.54,0,0,0-.7-6.86,9.47,9.47,0,0,0-5.68-4.71,9.21,9.21,0,0,0-7,.31q-3.26,1.52-5.66,6.24l-5.77-2.67q3-6.4,8.15-8.63t11.75-.09q7,2.27,9.89,7.43a12.65,12.65,0,0,1,1.15,10.55,12.27,12.27,0,0,1-3.34,5.28,28.63,28.63,0,0,1-7.8,4.54,30.46,30.46,0,0,0-4.95,2.52,8.76,8.76,0,0,0-2.2,2.34,24.34,24.34,0,0,0-2.14,4.91Zm-4.18,11.62,2.17-6.66,6.65,2.17-2.17,6.66Z"/><path class="cls-11" d="M219.61,145.54q.35-1.18.54-1.77a17.26,17.26,0,0,1,2.91-5.63,14.26,14.26,0,0,1,3.54-3.05,46,46,0,0,1,5.53-2.71,20.88,20.88,0,0,0,5.33-3,7.25,7.25,0,0,0,2-3.18,8.54,8.54,0,0,0-.7-6.86,9.47,9.47,0,0,0-5.68-4.71,9.21,9.21,0,0,0-7,.31q-3.26,1.52-5.66,6.24l-5.77-2.67q3-6.4,8.15-8.63t11.75-.09q7,2.27,9.89,7.43a12.65,12.65,0,0,1,1.15,10.55,12.27,12.27,0,0,1-3.34,5.28,28.63,28.63,0,0,1-7.8,4.54,30.47,30.47,0,0,0-4.95,2.52,8.76,8.76,0,0,0-2.2,2.34,24.34,24.34,0,0,0-2.14,4.91Zm-4.18,11.62,2.17-6.66,6.65,2.17-2.17,6.66Z"/></g></g></svg>