<svg xmlns="http://www.w3.org/2000/svg" xmlns:xlink="http://www.w3.org/1999/xlink" viewBox="0 0 1608.33 408.33"><defs><style>.cls-1,.cls-40{fill:none;}.cls-2{isolation:isolate;}.cls-3{fill:url(#Gradiente_sem_nome_6);}.cls-4{fill:url(#Degradado_sin_nombre_79);}.cls-5{fill:url(#Gradiente_sem_nome_6-2);}.cls-6{fill:#525dea;}.cls-7{fill:#ccc;}.cls-8{fill:#ff57a4;}.cls-9{fill:#e6e6e6;}.cls-16,.cls-36,.cls-9{mix-blend-mode:multiply;}.cls-10{fill:#e0e2e4;}.cls-11{fill:url(#Gradiente_sem_nome_20);}.cls-12{fill:url(#Gradiente_sem_nome_20-2);}.cls-13{fill:#e75d6d;}.cls-14{fill:url(#Gradiente_sem_nome_23);}.cls-15{fill:url(#Gradiente_sem_nome_23-2);}.cls-16,.cls-56{fill:#383838;}.cls-16{opacity:0.4;}.cls-17{fill:#8b3fae;}.cls-18,.cls-21,.cls-44,.cls-45,.cls-48{mix-blend-mode:overlay;}.cls-18{fill:url(#Gradiente_sem_nome_6-3);}.cls-19{fill:url(#Degradado_sin_nombre_79-2);}.cls-20{fill:url(#Degradado_sin_nombre_79-3);}.cls-21{fill:url(#Gradiente_sem_nome_6-4);}.cls-22{fill:#e0c3a1;}.cls-23{fill:#722431;}.cls-24{fill:url(#Gradiente_sem_nome_23-3);}.cls-25{fill:url(#Gradiente_sem_nome_23-4);}.cls-26{fill:url(#Degradado_sin_nombre_79-4);}.cls-27{fill:url(#Degradado_sin_nombre_79-5);}.cls-28{fill:#9ba0b4;}.cls-29{fill:#aeb2c2;}.cls-30{fill:#d7dadf;}.cls-31{fill:url(#Degradado_sin_nombre_79-6);}.cls-32{fill:#e6e8eb;}.cls-33{fill:#ced2d8;}.cls-34{fill:#fff;}.cls-35{fill:#3f02a8;}.cls-36{opacity:0.1;}.cls-37{fill:url(#Gradiente_sem_nome_13);}.cls-38{fill:url(#Gradiente_sem_nome_13-2);}.cls-39{fill:url(#Gradiente_sem_nome_23-5);}.cls-40{stroke:#fff;stroke-miterlimit:10;}.cls-41{fill:url(#Gradiente_sem_nome_10);}.cls-42{fill:url(#Gradiente_sem_nome_4);}.cls-43{fill:url(#Gradiente_sem_nome_6-5);}.cls-44{fill:url(#Gradiente_sem_nome_6-6);}.cls-45{fill:url(#Gradiente_sem_nome_6-7);}.cls-46{fill:url(#Gradiente_sem_nome_20-3);}.cls-47{fill:#4b28c4;}.cls-48{fill:url(#Gradiente_sem_nome_6-8);}.cls-49{fill:url(#Degradado_sin_nombre_80);}.cls-50{fill:url(#Degradado_sin_nombre_80-2);}.cls-51{fill:url(#Gradiente_sem_nome_23-6);}.cls-52{fill:url(#Gradiente_sem_nome_23-7);}.cls-53{fill:url(#Gradiente_sem_nome_23-8);}.cls-54{fill:#fdd900;}.cls-55{fill:#6332b9;}.cls-57{fill:#242449;}.cls-58{fill:#e2d8c7;}.cls-59{opacity:0.1;}.cls-60{clip-path:url(#clip-path);}.cls-61{fill:#232020;}.cls-62{clip-path:url(#clip-path-2);}.cls-63{fill:#5966d6;}</style><linearGradient id="Gradiente_sem_nome_6" x1="1265.42" y1="299.35" x2="1464.83" y2="299.35" gradientUnits="userSpaceOnUse"><stop offset="0" stop-color="#ced2d8"/><stop offset="1" stop-color="#9ba0b4"/></linearGradient><linearGradient id="Degradado_sin_nombre_79" x1="1261.14" y1="299.64" x2="1469.97" y2="299.64" gradientUnits="userSpaceOnUse"><stop offset="0" stop-color="#64bdea"/><stop offset="0.21" stop-color="#69c0df"/><stop offset="1" stop-color="#7ccbb8"/></linearGradient><linearGradient id="Gradiente_sem_nome_6-2" x1="1263.57" y1="360.36" x2="1484.47" y2="360.36" xlink:href="#Gradiente_sem_nome_6"/><linearGradient id="Gradiente_sem_nome_20" x1="1475.49" y1="302.54" x2="1545.55" y2="302.54" gradientUnits="userSpaceOnUse"><stop offset="0" stop-color="#4b28c4"/><stop offset="1" stop-color="#3f02a8"/></linearGradient><linearGradient id="Gradiente_sem_nome_20-2" x1="1528.12" y1="327.25" x2="1591.5" y2="327.25" xlink:href="#Gradiente_sem_nome_20"/><linearGradient id="Gradiente_sem_nome_23" x1="422.46" y1="402.78" x2="277.08" y2="270.8" gradientUnits="userSpaceOnUse"><stop offset="0" stop-color="#525dea"/><stop offset="1" stop-color="#4b28c4"/></linearGradient><linearGradient id="Gradiente_sem_nome_23-2" x1="323.54" y1="218.75" x2="77.96" y2="578.53" xlink:href="#Gradiente_sem_nome_23"/><linearGradient id="Gradiente_sem_nome_6-3" x1="304.31" y1="317.68" x2="304.31" y2="366.54" xlink:href="#Gradiente_sem_nome_6"/><linearGradient id="Degradado_sin_nombre_79-2" x1="239.52" y1="347.43" x2="251.73" y2="347.43" xlink:href="#Degradado_sin_nombre_79"/><linearGradient id="Degradado_sin_nombre_79-3" x1="221.04" y1="347.43" x2="233.25" y2="347.43" xlink:href="#Degradado_sin_nombre_79"/><linearGradient id="Gradiente_sem_nome_6-4" x1="304.67" y1="208.12" x2="112.3" y2="489.96" xlink:href="#Gradiente_sem_nome_6"/><linearGradient id="Gradiente_sem_nome_23-3" x1="27.36" y1="273.15" x2="129.07" y2="358.15" xlink:href="#Gradiente_sem_nome_23"/><linearGradient id="Gradiente_sem_nome_23-4" x1="73.02" y1="338.64" x2="171.92" y2="338.64" xlink:href="#Gradiente_sem_nome_23"/><linearGradient id="Degradado_sin_nombre_79-4" x1="82.42" y1="187.39" x2="109.69" y2="187.39" xlink:href="#Degradado_sin_nombre_79"/><linearGradient id="Degradado_sin_nombre_79-5" x1="92.18" y1="214.99" x2="171.92" y2="214.99" xlink:href="#Degradado_sin_nombre_79"/><linearGradient id="Degradado_sin_nombre_79-6" x1="125.67" y1="182.37" x2="167.52" y2="182.37" xlink:href="#Degradado_sin_nombre_79"/><linearGradient id="Gradiente_sem_nome_13" x1="696.94" y1="247" x2="745.67" y2="295.73" gradientUnits="userSpaceOnUse"><stop offset="0" stop-color="#ff57a4"/><stop offset="1" stop-color="#8b3fae"/></linearGradient><linearGradient id="Gradiente_sem_nome_13-2" x1="696.94" y1="296.08" x2="745.67" y2="344.81" xlink:href="#Gradiente_sem_nome_13"/><linearGradient id="Gradiente_sem_nome_23-5" x1="677.05" y1="155.93" x2="767.57" y2="246.46" xlink:href="#Gradiente_sem_nome_23"/><linearGradient id="Gradiente_sem_nome_10" x1="948.41" y1="364.88" x2="1192.7" y2="364.88" gradientUnits="userSpaceOnUse"><stop offset="0" stop-color="#8b3fae"/><stop offset="1" stop-color="#3f02a8"/></linearGradient><linearGradient id="Gradiente_sem_nome_4" x1="1241.99" y1="451.54" x2="1099.97" y2="322.62" gradientUnits="userSpaceOnUse"><stop offset="0" stop-color="#383838"/><stop offset="1" stop-color="#9ba0b4"/></linearGradient><linearGradient id="Gradiente_sem_nome_6-5" x1="986.65" y1="314.21" x2="1094.6" y2="442.22" xlink:href="#Gradiente_sem_nome_6"/><linearGradient id="Gradiente_sem_nome_6-6" x1="971.35" y1="378.38" x2="971.35" y2="346.93" xlink:href="#Gradiente_sem_nome_6"/><linearGradient id="Gradiente_sem_nome_6-7" x1="1112.25" y1="277.36" x2="996.31" y2="447.21" xlink:href="#Gradiente_sem_nome_6"/><linearGradient id="Gradiente_sem_nome_20-3" x1="930.35" y1="282.56" x2="1163.47" y2="339.6" xlink:href="#Gradiente_sem_nome_20"/><linearGradient id="Gradiente_sem_nome_6-8" x1="1043.88" y1="287.94" x2="1043.88" y2="285.24" xlink:href="#Gradiente_sem_nome_6"/><linearGradient id="Degradado_sin_nombre_80" x1="791.72" y1="210.82" x2="791.72" y2="275.86" gradientUnits="userSpaceOnUse"><stop offset="0" stop-color="#6eb8e6"/><stop offset="0.5" stop-color="#738ec9"/><stop offset="1" stop-color="#7867ae"/></linearGradient><linearGradient id="Degradado_sin_nombre_80-2" x1="835.99" y1="243.34" x2="892.32" y2="243.34" xlink:href="#Degradado_sin_nombre_80"/><linearGradient id="Gradiente_sem_nome_23-6" x1="698.04" y1="369.32" x2="885.47" y2="369.32" xlink:href="#Gradiente_sem_nome_23"/><linearGradient id="Gradiente_sem_nome_23-7" x1="698.04" y1="369.52" x2="885.47" y2="369.52" xlink:href="#Gradiente_sem_nome_23"/><linearGradient id="Gradiente_sem_nome_23-8" x1="952.81" y1="369.52" x2="729.99" y2="369.52" xlink:href="#Gradiente_sem_nome_23"/><clipPath id="clip-path"><rect class="cls-1" x="1186.68" y="246.92" width="88.86" height="103.11"/></clipPath><clipPath id="clip-path-2"><rect class="cls-1" x="1264.17" y="224.98" width="6.84" height="126.4"/></clipPath></defs><title>playstore</title><g class="cls-2"><g id="Layer_1" data-name="Layer 1"><path class="cls-3" d="M1464.83,327.06h-171.7a27.71,27.71,0,0,1,0-55.42h171.7Z"/><path class="cls-4" d="M1470,327.92a4.39,4.39,0,0,0-4.29-4.29H1293.13a23.71,23.71,0,0,1,0-47.42h172.56a4.29,4.29,0,1,0,0-8.57H1293.13a32,32,0,0,0,0,64h172.56C1468,331.64,1470,330.21,1470,327.92Z"/><path class="cls-5" d="M1473.62,388H1263.57V332.75h210.05a10.85,10.85,0,0,1,10.85,10.85v33.53A10.85,10.85,0,0,1,1473.62,388Z"/><path class="cls-6" d="M1468.8,391.92H1259.73a3.94,3.94,0,0,1,0-7.89H1468.8a11.85,11.85,0,0,0,11.83-11.83V348.53a11.85,11.85,0,0,0-11.83-11.83H1259.73a3.94,3.94,0,0,1,0-7.89H1468.8a19.75,19.75,0,0,1,19.72,19.72V372.2A19.75,19.75,0,0,1,1468.8,391.92Z"/><path class="cls-7" d="M1263.57,344.59h205.12a3.94,3.94,0,0,1,3.94,3.94h0a3.94,3.94,0,0,1-3.94,3.94H1263.57Z"/><path class="cls-7" d="M1263.57,358.45h205.12a3.94,3.94,0,0,1,3.94,3.94h0a3.94,3.94,0,0,1-3.94,3.94H1263.57Z"/><path class="cls-7" d="M1263.94,370.68h205.12a3.94,3.94,0,0,1,3.94,3.94h0a3.94,3.94,0,0,1-3.94,3.94H1263.94Z"/><path class="cls-7" d="M1465.46,318.67H1282a3.75,3.75,0,0,1-3.53-3.94h0a3.75,3.75,0,0,1,3.53-3.94h183.48Z"/><path class="cls-7" d="M1465.46,304.8H1282a3.75,3.75,0,0,1-3.53-3.94h0a3.75,3.75,0,0,1,3.53-3.94h183.48Z"/><path class="cls-7" d="M1465.13,292.57H1281.65a3.75,3.75,0,0,1-3.53-3.94h0a3.75,3.75,0,0,1,3.53-3.94h183.48Z"/><path class="cls-8" d="M1266.56,271.19V210.85h206.16a5,5,0,0,1,5,5v50.28a5,5,0,0,1-5,5Z"/><path class="cls-9" d="M1276.62,220.91v35.2a5,5,0,0,0,5,5h181a10.06,10.06,0,0,1,10.06,10.06H1266.56V210.85h0A10.06,10.06,0,0,1,1276.62,220.91Z"/><rect class="cls-9" x="1442.55" y="210.85" width="5.03" height="60.34"/><rect class="cls-9" x="1432.49" y="210.85" width="5.03" height="60.34"/><rect class="cls-9" x="1301.76" y="210.85" width="5.03" height="60.34"/><rect class="cls-9" x="1291.7" y="210.85" width="5.03" height="60.34"/><path class="cls-10" d="M1331.93,245.42v-8.8a.63.63,0,0,1,.63-.63h79.2a.63.63,0,0,1,.63.63v8.8a.63.63,0,0,1-.63.63h-79.2A.63.63,0,0,1,1331.93,245.42Z"/><path class="cls-11" d="M1475.49,210.68l48.57-5.64,21.44,184.81c.32,2.76-1.23,5.21-3.47,5.46l-40.48,4.7c-2.24.26-4.31-1.77-4.63-4.53Z"/><path class="cls-9" d="M1517.13,216l-28.33,3.29c-2.24.26-3.79,2.71-3.47,5.46l18.55,159.83c.64,5.52-2.47,10.41-6.94,10.93h0l-4.64-40-8.11-69.93-8.69-74.92,48.57-5.64h0C1524.71,210.56,1521.6,215.45,1517.13,216Z"/><rect class="cls-9" x="1494.75" y="372.67" width="48.9" height="5.03" transform="translate(-33.12 177.6) rotate(-6.62)"/><rect class="cls-9" x="1493.59" y="362.68" width="48.9" height="5.03" transform="translate(-31.97 177.4) rotate(-6.62)"/><rect class="cls-9" x="1479.1" y="237.81" width="48.9" height="5.03" transform="translate(-17.68 174.89) rotate(-6.62)"/><rect class="cls-9" x="1477.94" y="227.82" width="48.9" height="5.03" transform="translate(-16.54 174.7) rotate(-6.62)"/><path class="cls-9" d="M1504.35,278.2l7.08-.82a.58.58,0,0,1,.58.57l6.23,53.69a.58.58,0,0,1-.43.68l-7.08.82a.58.58,0,0,1-.58-.57l-6.23-53.69A.58.58,0,0,1,1504.35,278.2Z"/><path class="cls-12" d="M1591.5,388.34l-48.19,5.87-15.16-124.48a4,4,0,0,1,3.53-4.5l40.16-4.89a4,4,0,0,1,4.5,3.53Z"/><path class="cls-9" d="M1550.37,385.2l28.11-3.42a4,4,0,0,0,3.53-4.5l-12.72-104.4a8.09,8.09,0,0,1,7.05-9h0l3.91,32.12,3.91,32.12,7.34,60.23-48.19,5.87h0A8.09,8.09,0,0,1,1550.37,385.2Z"/><rect class="cls-9" x="1529.69" y="278.82" width="48.54" height="4.05" transform="translate(-22.56 189.95) rotate(-6.94)"/><rect class="cls-9" x="1530.66" y="286.85" width="48.54" height="4.05" transform="translate(-23.52 190.13) rotate(-6.94)"/><rect class="cls-9" x="1539.96" y="363.15" width="48.54" height="4.05" transform="translate(-32.68 191.81) rotate(-6.94)"/><rect class="cls-9" x="1540.94" y="371.18" width="48.54" height="4.05" transform="translate(-33.64 191.99) rotate(-6.94)"/><path class="cls-10" d="M1565.54,346.67l-7,.86a.51.51,0,0,1-.56-.44l-3.3-27.11a.51.51,0,0,1,.44-.56l7-.86a.51.51,0,0,1,.56.44l3.3,27.11A.51.51,0,0,1,1565.54,346.67Z"/><path class="cls-10" d="M1561.63,314.55l-7,.86a.51.51,0,0,1-.56-.44l-1.35-11a.51.51,0,0,1,.44-.56l7-.86a.51.51,0,0,1,.56.44l1.34,11A.51.51,0,0,1,1561.63,314.55Z"/><polygon class="cls-13" points="1451.69 286.5 1451.69 328.78 1438.83 314.5 1426.84 327.35 1426.84 286.5 1451.69 286.5"/><rect class="cls-14" x="290.01" y="315.36" width="142.95" height="64.13"/><path class="cls-15" d="M432.85,315.36a5.26,5.26,0,0,0,5.26-5.26h0a5.26,5.26,0,0,0-5.26-5.26H39.18a6.42,6.42,0,0,0-6.42,6.42V383.6A6.42,6.42,0,0,0,39.18,390H432.85a5.26,5.26,0,0,0,0-10.53H290V315.36Z"/><polygon class="cls-16" points="432.96 315.34 290.01 315.34 290.01 379.49 295.41 379.49 295.41 320.74 301.77 320.74 301.77 367.13 310.28 359.62 310.28 320.74 432.96 320.74 432.96 315.34"/><polygon class="cls-17" points="308.57 357.52 300.06 365.03 300.06 315.34 308.57 315.34 308.57 357.52"/><polygon class="cls-18" points="306.88 317.18 306.88 356.23 300.06 362.25 300.06 365.05 308.57 357.54 308.57 317.18 306.88 317.18"/><rect class="cls-16" x="300.06" y="315.34" width="8.51" height="1.84"/><rect class="cls-19" x="239.52" y="304.84" width="12.21" height="85.18"/><rect class="cls-20" x="221.04" y="304.84" width="12.21" height="85.18"/><path class="cls-21" d="M32.92,309.9H438.07a5.24,5.24,0,0,0-5.22-5.06H39.18A6.41,6.41,0,0,0,32.92,309.9Z"/><path class="cls-16" d="M438.07,385H32.92A6.32,6.32,0,0,0,39.18,390H432.85A5.27,5.27,0,0,0,438.07,385Z"/><path class="cls-22" d="M87.47,213.78s5.23,16.87,1.64,28.36a83.76,83.76,0,0,1-8,18.43l2.69,1.24s17.12-10.31,21-22.08,0-28.45,0-28.45Z"/><path class="cls-23" d="M88.61,97.64c-11.56,6.07-3.73,15.1-13,28.65-3.93,5.75-3.37,12.33,1.59,17.52,8.51,8.91-.52,10.35,2.35,18.82,3,8.88,25.18,7.71,29.66-2.86C114.31,147.71,102.6,90.29,88.61,97.64Z"/><path class="cls-24" d="M102,262.43c-36.15,12.93-51.56,37-49.63,63.21s10.54,58.76,8.79,66.91c0,0-12.61,19.5-8.66,23S72.91,391.19,74.72,385c4-13.61-5.91-58.34,4-68.69s53.19-41.38,93.24-43.64C171.92,272.62,142.12,248.09,102,262.43Z"/><path class="cls-16" d="M74.91,356.74c-1-16.51-2-34.41,3.77-40.48,9.87-10.35,53.19-41.38,93.24-43.64,0,0-29.8-24.54-69.91-10.19a94.22,94.22,0,0,0-34.84,21.45c-17,17.91,6.14,42.26,7.74,72.86Z"/><path class="cls-25" d="M171.92,272.62c0,34.74-18.16,32.21-48.79,32.21s-15.77,59.07,0,74.65c0,0,9.36,10.84-3.48,33.54s-4.44-23-4.44-23S73.28,348.45,73,309.9s50.11-49.75,50.11-49.75S171.92,250.11,171.92,272.62Z"/><path class="cls-26" d="M103,161c-23.6,7.62-21.94,37.42-18.86,52.14,0,0,12.65,4.52,21.66-7.85C112.88,195.56,109.26,158.95,103,161Z"/><path class="cls-27" d="M103,161c-11.31,6.53-16.89,31.11-1,60.68a42.49,42.49,0,0,1,0,40.8s29-9.57,69.91,10.19c0-15.86-1.36-39.77-7.34-62.25-4.47-16.81-11.53-32.81-22.52-44.05-6.56-6.71-15.26-10.61-25.29-8.3Z"/><path class="cls-22" d="M98.51,138s5.42,9.16,4.52,23.31a6.27,6.27,0,0,0,1,7.3c1.42.18,3.23-4.06,8.55-5.11,10.56-2.08,1.27-30.2,1.27-30.2Z"/><path class="cls-22" d="M81,117.21C80,126,84.89,142.73,90.54,147.43c10.78,9,22.38-5.61,24.65-16.25,0,0,5.57,3.45,7.66-8.18,1.17-6.54-1.57-8.35-3.85-8a5.75,5.75,0,0,0-3.11,2.25s-4-15.49-16.69-11S83.61,95.77,81,117.21Z"/><path class="cls-23" d="M92.42,98.15c-.63,0-17.86,2.57-14.89,22.2,0,0,11.11,5.87,31.16,0C108.7,120.35,109.29,98.52,92.42,98.15Z"/><polygon class="cls-28" points="92.74 256.87 157.85 256.54 113.64 275.45 48.53 275.78 92.74 256.87"/><polygon class="cls-29" points="113.64 275.45 48.38 275.45 16.65 230.95 20.02 228.87 83.36 228.87 113.64 275.45"/><polygon class="cls-30" points="110.77 275.45 48.43 275.45 16.65 230.95 81.84 230.95 110.77 275.45"/><rect class="cls-29" x="48.53" y="275.45" width="65.12" height="6.18"/><polygon class="cls-29" points="113.64 281.63 157.85 261.24 157.85 256.54 113.64 275.45 113.64 281.63"/><path class="cls-22" d="M134.2,162.31c-10.62,2.26-8.33,18.31,7.79,33.07s20.64,27.61,8.06,41.82c-6.59,7.45-37.08,19-38.22,26.57,0,0-1.64,5.79,10.63,0s8.61-10,13.28-10.57c8-1,32.83-13.84,36.17-24.34C178.48,208.23,153.66,158.18,134.2,162.31Z"/><path class="cls-31" d="M133,160.16c-16.08,5.63-3.26,29.52,14.49,44.94,0,0,10.92,2.32,20-12.08C167.52,193,150.67,154,133,160.16Z"/><path class="cls-23" d="M106.79,112.64c3.91,2.56,3.31,6.78,3.31,14s3.16,7.23,4.52,14.45-12.35,15.51-3.16,24.84,33,.78,30.4-13.54c-1.7-9.46-11-9.27-7.19-19.62,4.7-12.86-3.59-12.29-8.33-17.72-2.6-3-6.6-14.94-13.74-18.68-8.21-4.3-20.63-4.05-30,6.38Z"/><rect class="cls-32" x="421.9" y="191.27" width="317.86" height="205.56"/><rect class="cls-33" x="421.9" y="191.27" width="317.86" height="12.65"/><rect class="cls-34" x="458.82" y="212.01" width="244.01" height="143.23"/><rect class="cls-35" x="562.01" y="269.56" width="37.63" height="22"/><polygon class="cls-34" points="588.52 280.56 573.13 273.38 573.13 287.75 588.52 280.56"/><rect class="cls-33" x="458.82" y="368.82" width="95.04" height="7.52"/><rect class="cls-33" x="458.82" y="380.12" width="142.61" height="4.39"/><circle class="cls-33" cx="671.18" cy="372.58" r="4.28"/><circle class="cls-33" cx="683.38" cy="372.58" r="4.28"/><circle class="cls-33" cx="695.59" cy="372.58" r="4.28"/><circle class="cls-35" cx="430.87" cy="197.59" r="3.86"/><circle class="cls-17" cx="441" cy="197.59" r="3.86"/><circle class="cls-8" cx="451.12" cy="197.59" r="3.86"/><g class="cls-36"><circle cx="720.14" cy="271.2" r="22.35"/></g><circle class="cls-37" cx="720.14" cy="270.2" r="22.35"/><polygon class="cls-34" points="735.58 267.53 720.14 263.56 704.7 267.53 720.14 271.5 735.58 267.53"/><path class="cls-34" d="M712.66,271.16v5.6c7.48,3.44,15,0,15,0v-5.6l-7.47,1.92Z"/><path class="cls-34" d="M732.71,272.84a.49.49,0,0,0-.31-.46v-3.33l-.36.1v3.24a.49.49,0,0,0-.05.89l-.26,2a1.08,1.08,0,0,0,1,0l-.26-2A.49.49,0,0,0,732.71,272.84Z"/><g class="cls-36"><circle cx="720.14" cy="320.27" r="22.35"/></g><circle class="cls-38" cx="720.14" cy="319.27" r="22.35"/><path class="cls-34" d="M727.68,313.07c-.45-1.08,0-2.76-.85-3.57s-2.49-.4-3.57-.85-1.93-1.92-3.12-1.92-2.08,1.49-3.12,1.92-2.76,0-3.57.85-.4,2.49-.85,3.57-1.92,1.93-1.92,3.12,1.49,2.08,1.92,3.12,0,2.76.85,3.57,2.49.4,3.57.85,1.93,1.92,3.12,1.92,2.08-1.49,3.12-1.92,2.76,0,3.57-.85.4-2.49.85-3.57,1.92-1.93,1.92-3.12S728.11,314.11,727.68,313.07Zm-7.54,8.62a5.49,5.49,0,1,1,5.49-5.49A5.49,5.49,0,0,1,720.14,321.69Z"/><path class="cls-34" d="M720.14,327.25c-1.12,0-2-1.12-2.95-1.82V333l2.95-2.27,2.95,2.27v-7.59C722.15,326.13,721.26,327.25,720.14,327.25Z"/><g class="cls-36"><circle cx="720.14" cy="200.02" r="41.52"/></g><circle class="cls-39" cx="720.14" cy="199.02" r="41.52"/><ellipse class="cls-40" cx="720.14" cy="187.06" rx="14.27" ry="16.24"/><path class="cls-40" d="M747.74,218.9c0-6.56-5.75-9.54-14.23-12.51-3.53,3.68-8.21,3.21-13.37,3.21s-9.85.47-13.37-3.21c-8.48,3-14.23,6-14.23,12.51"/><path class="cls-41" d="M1103.45,387.77V342h86.08a3.17,3.17,0,0,0,3.17-3.17h0a3.17,3.17,0,0,0-3.17-3.17H952.28a3.87,3.87,0,0,0-3.87,3.87v50.74a3.87,3.87,0,0,0,3.87,3.87h237.25a3.17,3.17,0,0,0,3.17-3.17h0a3.17,3.17,0,0,0-3.17-3.17Z"/><rect class="cls-42" x="1103.45" y="341.99" width="86.15" height="45.79"/><rect class="cls-43" x="955.31" y="341.99" width="148.14" height="45.79"/><rect class="cls-16" x="955.31" y="341.99" width="234.29" height="4.13"/><polygon class="cls-16" points="980.59 381.46 972.43 374.11 964.26 381.46 964.26 341.99 980.59 341.99 980.59 381.46"/><polygon class="cls-8" points="979.71 380.12 971.35 372.44 963 380.12 963 341.99 979.71 341.99 979.71 380.12"/><polygon class="cls-44" points="977.33 344.52 977.33 375.36 971.35 369.72 963 378.13 963 380.12 971.35 372.43 979.71 380.12 979.71 344.52 977.33 344.52"/><rect class="cls-16" x="962.99" y="341.99" width="16.71" height="2.53"/><path class="cls-45" d="M948.47,338.69h244.17a3.16,3.16,0,0,0-3.15-3.05H952.25A3.87,3.87,0,0,0,948.47,338.69Z"/><path class="cls-16" d="M1192.64,391.07H948.47a3.81,3.81,0,0,0,3.78,3.05H1189.5A3.17,3.17,0,0,0,1192.64,391.07Z"/><rect class="cls-46" x="922.49" y="285.04" width="242.77" height="50.61"/><rect class="cls-6" x="1125.41" y="285.04" width="31.58" height="50.61"/><rect class="cls-6" x="951.09" y="304.32" width="163.92" height="12.04"/><circle class="cls-47" cx="1141.24" cy="310.34" r="7.4"/><rect class="cls-48" x="922.49" y="285.04" width="242.77" height="3.05"/><rect class="cls-16" x="922.49" y="332.21" width="242.77" height="3.43"/><path class="cls-22" d="M764.64,275.86s6.78,31,5.3,37.25S755,326.36,755,326.36s-7.63.06-11.89,4.32c-7.09,7.11,12.46,10.91,12.46,10.91s33.41-14.78,36.37-30.26-6.29-38.07-6.29-38.07Z"/><path class="cls-49" d="M819.88,210.82c-31.1,4.18-62.61,28.52-55.24,65h25.09Z"/><path class="cls-22" d="M891.23,275.86s-6.78,31-5.3,37.25,14.94,13.24,14.94,13.24,7.63.06,11.89,4.32c7.09,7.11-12.46,10.91-12.46,10.91s-33.41-14.78-36.37-30.26,6.29-38.07,6.29-38.07Z"/><path class="cls-50" d="M836,210.82c31.1,4.18,62.61,28.52,55.24,65H866.15Z"/><path class="cls-51" d="M860.27,358.59c5.92,8.34,54.77-35.13,83.36-28.58,0,0,6.82,79.28-115.05,79.28S713.53,330,713.53,330c28.6-6.54,77.45,36.92,83.36,28.58Z"/><path class="cls-16" d="M822.88,387.21a75.36,75.36,0,0,1-20.71-9.71c-13-8.64-34.25-28.19-55.43-37.53l74,60.71c3.54-.93,26.62-.81,37.06-3.85,27.26-7.92,63-62.3,63-62.3C900.49,341.61,854.83,380.19,822.88,387.21Z"/><path class="cls-52" d="M785,369.42c8,7.33,53.62,44,78,31.1s54.21,8.71,42.89,8.71h-45C689,414.6,684.93,336.55,713.53,330,713.53,330,733.79,322.28,785,369.42Z"/><path class="cls-16" d="M821,394.21c-12.4,4.48-28.92,4.16-39.33,2.49,0,0,4.64,9.92,34.46,9.92,5.34,0,12.13-2.33,19.65-6.12A123.13,123.13,0,0,1,821,394.21Z"/><path class="cls-53" d="M872.15,369.42c-8,7.33-53.62,44-78,31.1s-54.21,8.71-42.89,8.71h45c171.93,5.36,176-72.68,147.4-79.22C943.64,330,923.38,322.28,872.15,369.42Z"/><path class="cls-54" d="M828.58,367.32c26.14,0,31.69-8.73,31.69-8.73s-2.43-21.16,10.68-72.22S856.66,210,828.58,210s-55.48,25.33-42.37,76.39,10.68,72.22,10.68,72.22S802.44,367.32,828.58,367.32Z"/><path class="cls-55" d="M860.93,174.83,828.58,156l-31.69,19.21c11.63,4.25-2.29,13.65,7.23,21.54,3.83,3.18,7.17,1.58,11,1.58s5.83,4.26,13.41,4.26c6.18,0,9.06-5.4,13.41-4.25,3.68,1,7.22,1.58,11-1.59C862.56,188.83,848.72,181,860.93,174.83Z"/><path class="cls-22" d="M838.25,197.48A55,55,0,0,0,837.17,219s-1,4.36-9.23,3.95c-8.24,0-9-4.41-9-4.41a55.71,55.71,0,0,0,0-21.56Z"/><path class="cls-22" d="M814.54,181.51c1.37,4.5.11,8.76-2.81,9.51s-6.4-2.3-7.77-6.81-.11-8.76,2.81-9.51S813.17,177,814.54,181.51Z"/><path class="cls-22" d="M842.62,181.51c-1.37,4.5-.11,8.76,2.81,9.51s6.4-2.3,7.77-6.81.11-8.76-2.81-9.51S844,177,842.62,181.51Z"/><ellipse class="cls-22" cx="828.58" cy="176.25" rx="21.56" ry="26.31"/><path class="cls-55" d="M828.58,129.83c10.58,0,10.1,10,21.56,8,6.78-1.22,13.61,7.78,9.85,15.32-7,13.93,6,7.9,5.4,16.73s-12.16,7.75-12.16,7.75c-.46-1.91-2.84-2.88-2.84-2.88l-1.54,10.52s-3.41-.7-3.91-3.35,1.51-7.89,1.89-10c.61-3.45-3.49-1.6-6.81-2.07-5.66-.81-9.68-5.76-15.59-3.57-12.26,4.54-13.6,1.74-14.08,5.64-.27,2.17,2.39,7.4,1.89,10s-3.91,3.35-3.91,3.35l-1.54-10.52s-2.38,1-2.84,2.88c0,0-11.59,1.08-12.16-7.75S804.31,165.14,796,152c-3.85-6.12.1-16.85,11-12.47S818,129.83,828.58,129.83Z"/><ellipse class="cls-56" cx="828.58" cy="377.34" rx="13.4" ry="3.38"/><path class="cls-17" d="M828.58,382.88c11.66,0,12.65-2.54,12.65-2.54l75-43.58v-3.69l-75,43.58s-1,2.54-12.65,2.54-12.65-2.54-12.65-2.54l-75-43.58v3.69l75,43.58S816.92,382.88,828.58,382.88Z"/><path class="cls-28" d="M742.7,334.12,753.09,328s75.63,11.07,75.49,37.83v8.61s-9.08.61-12.65,2.23Z"/><path class="cls-33" d="M753.09,328l-10.39,6.14,73.23,42.53c3.57-1.62,12.65-2.23,12.65-2.23C828.25,348.28,753.09,328,753.09,328Z"/><path class="cls-28" d="M914.46,334.12,904.08,328S828.45,339,828.58,365.81v8.61s9.08.61,12.65,2.23Z"/><path class="cls-33" d="M904.08,328l10.39,6.14-73.23,42.53c-3.57-1.62-12.65-2.23-12.65-2.23C828.91,348.28,904.08,328,904.08,328Z"/><path class="cls-57" d="M1327.06,355.81c-1.06-9.38-5.64-16.83-14.11-20.9-6.87-3.31-14.58-4.08-22.11-5.08-16.76-2.21-32.75-4.41-49.67-3.73-13.53.55-21.87,12.39-28.2,24.07-4,7.36-2.88,10.81,2.14,17a61.14,61.14,0,0,0,16.53,14.18c12.43,7.25,31.54,5.46,45.23,3.89A103.71,103.71,0,0,0,1314,373.6c7.42-4,14.11-8.66,13.08-17.8"/><path class="cls-57" d="M1242.42,381.3a166.83,166.83,0,0,0-5.87,16.52,28.64,28.64,0,0,0-1.58,9.12c.26,7.26,8.13,12.52,13.28,5.81a36.76,36.76,0,0,0,5.34-9.74c1.89-5.17-2.1-2.16-5.46-3.74-3.88-1.83-3.78-3.25-2.14-7,2.12-4.8,4.63-7.93,4.33-13.45-.08-1.53-.5-3.29-1.87-3.89a3,3,0,0,0-3.11.78,8.79,8.79,0,0,0-1.78,2.93q-.58,1.32-1.13,2.66"/><path class="cls-22" d="M1268.67,210.5l13.7,1.37a90.65,90.65,0,0,0,1.24-12.54c4-.71,8.66-2,10-6.41a15,15,0,0,0,.46-4.33l.16-18.14a18.3,18.3,0,0,0-.65-6.19c-1.19-3.41-4.24-5.44-7.22-6.72-7.62-3.27-16.51-3.16-23.56,1.46a13.18,13.18,0,0,0-4.73,5c-1.67,3.32-1.47,7.42-1.21,11.25l.7,10.61c.27,4.07.84,8.75,3.86,10.91,1.6,1.14,3.67,1.36,5,2.84,2.43,2.61,1.31,7.24,2.21,10.92"/><path class="cls-23" d="M1287.38,164a6,6,0,0,1,.48,1c.67,1.87.28,4,.93,5.86,1,3,4.46,4.7,5,7.79.46,2.53-1.19,5-1.28,7.55-.11,2.81,1.69,5.44,1.47,8.22a18.63,18.63,0,0,1-3,7.78c.42-.61,4.36-.46,5.37-1.12,1.55-1,1.71-1.63,2.15-3.31s0-3.29.74-5c.85-2.1,2.63-3.66,3.23-5.9.81-3-.82-6.22-.75-9.38.1-4.78,4.05-9.36,2.51-13.88-.9-2.65-3.46-4.31-4.92-6.68-1.11-1.8-1.54-3.94-2.33-5.92s-2.1-3.94-4.1-4.51a33,33,0,0,0-3.44-.35c-2-.34-3.62-1.7-5.52-2.32-2.72-.89-7.44,2-9,4.38s-.7,4.33.94,6.36c2.73,3.39,9.21,5.52,11.48,9.38"/><path class="cls-23" d="M1248.58,150.88c-1.6,1.25-3.58,2.17-5,3.62-2.84,2.83-3.31,7.28-3.34,11.34,0,3.61-1.51,6.85-1.07,10.61a9.29,9.29,0,0,0,3.42,6.52c2.53,1.81,6.46,2,7.62,5,1.27,3.18-1.9,7.28.11,10,1.11,1.52,3.24,1.7,4.81,2.71,1.75,1.12,2.68,3.16,3.76,5s2.71,3.59,4.77,3.6c0-3.22.08-5.77-1.31-8.69-.81-1.7-3.16-4.82-1.43-6.71,1.09-1.56,3.71-2.11,3.74-4a4.49,4.49,0,0,0-1.11-2.4,11.29,11.29,0,0,1-1-10,14.21,14.21,0,0,1,6.82-7.47c3.56-1.85,3-2.74,3.94-6.28.9-3.26,2.68-4.05,5.51-5.29,2.54-1.11,3.35-1.78,4.25-4.26.66-1.81,1.47-4,.44-6a12,12,0,0,0-3.68-3.75c-2.94-2.21-6.23-4.54-9.86-4.2-2,.19-3.9,1.19-5.92,1.35-1.35.1-2.69-.18-4-.2a10.55,10.55,0,0,0-6.55,2.16c-1.85,1.45-1.77,2.93-2.78,5a7.14,7.14,0,0,1-2.1,2.43"/><path class="cls-23" d="M1256.49,137.5c.31-2.25,0-5.17-2.06-5.89-1.15-.39-2.42.08-3.62-.14-2.54-.48-3.46-3.61-4.83-5.87a1.94,1.94,0,0,0-.8-.83,3,3,0,0,0-1.63.07c-2.52.36-4.48-2.16-6.87-3a5.93,5.93,0,0,0-7.46,4c-.34,1.28-.25,2.64-.57,3.93-1.29,5.2-8.65,7.54-8.74,12.91-.06,3.63,3.46,7,2.17,10.42-.82,2.16-3.49,3.67-3.14,6a3.13,3.13,0,0,0,3.23,2.41,6.2,6.2,0,0,0,3.86-1.89c1.71-1.59,3-3.61,4.62-5.29s3.82-3.06,6.11-2.81,4.26,2,6.46,1.56c1.76-.34,3-2,4.77-2.46s3.31.17,5,.24,3.71-.86,3.72-2.57a4.43,4.43,0,0,1,0-1.24c.34-1.11,2.18-1.08,2.51-2.2-.9-1.36-2.12-.85-2.77-2.64-.51-1.39-.14-3.19.06-4.6"/><path class="cls-34" d="M1281.06,206c6.37-.87,12.84-2.06,18.18.33,4.52,2,4.44,7.88,5.45,12.31,3.35,14.65,5.86,29.48,7.83,44.38.94,7.13,2.57,14.76,2.53,22,0,5.78-1.44,11.39-1,17.28.33,4.52,2.21,9.41,6.24,11.25,2,.93,4.37,1,6.4,1.89s3.78,3.38,2.75,5.41a5.53,5.53,0,0,1-2.39,2.07l-15.1,8.64a80,80,0,0,1-11.86,5.94c-5.87,2.16-12.15,2.9-18.38,3.22a147.71,147.71,0,0,1-47.84-5.38c-8.36-2.37-16.44-6.57-14.41-16.27,2.09-10,6.13-20,10.48-29.11,5.27-11.07,6.83-24.42,10.57-36.1,3.78-11.84,7.79-23.61,11.82-35.37l0-.13c1.47-4.3,2.08-8.55,5.32-12,4.44-4.77,6.58-1,11.63,0,3.66.71,7.68.28,11.74-.28"/><path class="cls-22" d="M1296.71,387.25l4.35.24c1.58.09,3.33.11,4.51-1,1.43-1.32,1.27-3.82.11-5.4a9.44,9.44,0,0,0-4.86-3,50.34,50.34,0,0,0-13.76-2.09,3.25,3.25,0,0,0-1.38.15,2.91,2.91,0,0,0-1.43,1.92c-2.64,8.21,6.83,8.87,12.46,9.18"/><path class="cls-22" d="M1240.9,401.23a3.67,3.67,0,0,0,.13,2,2.58,2.58,0,0,0,1,1c3,2,7-.15,9.3-2.93s3.84-6.3,6.76-8.36c6.69-4.73.57-13.38-6.42-11.39-8.16,2.32-9.87,12.37-10.74,19.68"/><path class="cls-57" d="M1331,356.68c5.77-4.35,11.56-9.29,13.67-16.62s-.87-17.68-8.32-21.91c-9.08-5.15-18,1.18-24.48,7.16-13.27,12.23-27.72,23.05-41.86,34.24-4.78,3.78-21.35,17.71-21.35,17.71-.46,2,8.45,19.72,10.81,19.07,25.78-7,50.86-24.08,71.52-39.65"/><path class="cls-57" d="M1201.22,365.12c-5.65-2.82-11.34-6.22-13.57-13s.31-17.94,7.31-24.15c8.54-7.58,17.26-3.61,23.64.66,13.06,8.72,27.21,15.71,41.07,23.16,4.68,2.52,21,12.05,21,12.05.49,1.84-7.5,22-9.78,22-24.88-.15-49.38-10.59-69.61-20.69"/><path class="cls-57" d="M1287,390.83a159.55,159.55,0,0,0,16,6.9,27,27,0,0,0,8.9,2.09c7.16.09,12.72-7.8,6.37-13.47a35.84,35.84,0,0,0-9.32-6c-5-2.21-2.23,2.07-4,5.47-2,3.92-3.38,3.76-7,1.87-4.62-2.44-7.57-5.19-13-5.15-1.51,0-3.27.36-3.92,1.75a3.19,3.19,0,0,0,.61,3.26,8.64,8.64,0,0,0,2.79,2l2.56,1.3"/><path class="cls-22" d="M1361.6,293.07a3.88,3.88,0,0,1-.15-1.06c.16-3.23,2.13-4.82,3.15-7.88.45-1.36-1.78-4.27,1.06-5s8.65-.25,10.64-3c.88-1.22,2-2.83,3.41-2.47a2.9,2.9,0,0,1,1.26.84c12.06,12,.34,26.39-12.81,25.94a5.19,5.19,0,0,1-2.78-.59c-1.48-.87-2.12-2.43-2.81-4a15.53,15.53,0,0,1-1-2.81"/><path class="cls-34" d="M1384.71,295.22c3,1.28,6.65,0,8.7-2.59a12.15,12.15,0,0,0,2.09-9.43,24.48,24.48,0,0,0-3.82-9.08c-2.1-3.3-4.74-6.47-8.32-7.87a18.38,18.38,0,0,0-6.31-1c-1.44,0-3,.05-4.08,1.08a5.54,5.54,0,0,0-1.27,2.85c-1.44,6.74-.31,7.72,4,12.2,3.81,4,6.61,8.88,9,13.84"/><path class="cls-58" d="M1186.68,221.45V211.11s54.06-5.15,86.58,17.06Z"/><path class="cls-34" d="M1175.6,220.35l7.24-5.73s44.21-8.67,90.41,13.55V351.48s-31.33-23.11-97.65-14Z"/><path class="cls-58" d="M1359.83,221.45V211.11s-54.06-5.15-86.58,17.06Z"/><path class="cls-34" d="M1370.9,220.35l-7.24-5.73s-44.21-8.67-90.41,13.55V351.48s31.33-23.11,97.65-14Z"/><path class="cls-8" d="M1273.26,228.11c5-.28,8.87-1.51,9.08-3,0,0,0-.06.09-.1l-.08,0,.26-.07c1.43-.65,8.19-2,10.24-2.49l.43-.1.08,0a151,151,0,0,1,17.39-3.37c22.2-3.57,38.49-2.93,47.65-1.55a48.1,48.1,0,0,1,9.94,2.26,11.62,11.62,0,0,1,1.65.71h0a6.87,6.87,0,0,1,2.73,2.55,8.77,8.77,0,0,1,1,4.9V336.72c0,3.07-2.48,6.12-5.42,5.56a167.7,167.7,0,0,0-44.24-2.48,180.3,180.3,0,0,0-35.49,6c-3.77,1.05-8.5,1.88-12,3.79a3.74,3.74,0,0,1-1.8.46,3.74,3.74,0,0,1-.85-.1l-.84-.31a3.91,3.91,0,0,1-2.11-3.49V230.76c0-.92.79-1.82,2.25-2.65"/><path class="cls-8" d="M1273.28,228.11c-5-.28-8.87-1.51-9.08-3,0,0,0-.06-.09-.1l.08,0-.26-.07c-1.43-.65-8.18-2-10.24-2.49l-.43-.1-.08,0a151,151,0,0,0-17.39-3.37c-22.2-3.57-38.49-2.93-47.65-1.55a48.09,48.09,0,0,0-9.94,2.26,11.58,11.58,0,0,0-1.65.71h0a6.87,6.87,0,0,0-2.73,2.55,8.77,8.77,0,0,0-1,4.9V336.72c0,3.07,2.48,6.12,5.42,5.56a167.7,167.7,0,0,1,44.24-2.48,180.3,180.3,0,0,1,35.49,6c3.77,1.05,8.5,1.88,12,3.79a3.72,3.72,0,0,0,2.65.36l.84-.31a3.91,3.91,0,0,0,2.11-3.49V230.76c0-.92-.79-1.82-2.25-2.65"/><g class="cls-59"><g class="cls-60"><path class="cls-61" d="M1264.17,246.92s-10.78,72-77.49,94h0a167.65,167.65,0,0,1,35.8-1.1,180.3,180.3,0,0,1,35.49,6c3.77,1.06,8.5,1.88,12,3.79a3.73,3.73,0,0,0,1.07.39,3.77,3.77,0,0,0,.73.07,3.7,3.7,0,0,0,.85-.1l.84-.31a3.91,3.91,0,0,0,2.11-3.49V246.92Z"/></g></g><g class="cls-59"><g class="cls-62"><path class="cls-61" d="M1264.19,225l0,123.3c0,1.49,2.91,2.74,6.84,3.1V227.77c-3.93-.36-6.84-1.59-6.82-2.79"/></g></g><path class="cls-63" d="M1357.3,231c-8.83-1.32-24.52-1.94-45.9,1.5-4.06.55-11.15,2-14.82,2.83a3,3,0,0,0-2.37,3v24.9a3,3,0,0,0,3.63,3c8.68-1.94,18-4.65,28.78-5.33a145.91,145.91,0,0,1,32.14,1.07,3,3,0,0,0,3.39-3V234.34a3,3,0,0,0-2.49-3q-1.16-.2-2.34-.35"/><path class="cls-22" d="M1189.78,281.18a3.88,3.88,0,0,0,.15-1.06c-.16-3.23-2.13-4.82-3.15-7.88-.45-1.36,1.78-4.27-1.06-5s-8.65-.25-10.64-3c-.88-1.22-2-2.83-3.41-2.47a2.9,2.9,0,0,0-1.26.84c-12.06,12-.34,26.39,12.81,25.94a5.19,5.19,0,0,0,2.78-.59c1.48-.87,2.12-2.43,2.81-4a15.53,15.53,0,0,0,1-2.81"/><path class="cls-34" d="M1166.67,283.33c-3,1.28-6.65,0-8.7-2.59a12.15,12.15,0,0,1-2.09-9.43,24.48,24.48,0,0,1,3.82-9.08c2.1-3.3,4.74-6.47,8.32-7.87a18.38,18.38,0,0,1,6.31-1c1.44,0,3,.05,4.08,1.08a5.54,5.54,0,0,1,1.27,2.85c1.44,6.74.31,7.72-4,12.2-3.81,4-6.61,8.88-9,13.84"/></g></g></svg>