<svg xmlns="http://www.w3.org/2000/svg" xmlns:xlink="http://www.w3.org/1999/xlink" viewBox="0 0 1080 558.71"><defs><style>.cls-1 {
    isolation: isolate;
}
.cls-2 {
    fill: url(#Gradiente_sem_nome_6);
}
.cls-3 {
    fill: url(#Degradado_sin_nombre_79);
}
.cls-4 {
    fill: url(#Gradiente_sem_nome_6-2);
}
.cls-5 {
    fill: #525dea;
}
.cls-6 {
    fill: #ccc;
}
.cls-7 {
    fill: #ff57a4;
}
.cls-8 {
    fill: #e6e6e6;
}
.cls-16, .cls-24, .cls-25, .cls-8 {
    mix-blend-mode: multiply;
}
.cls-9 {
    fill: #e0e2e4;
}
.cls-10 {
    fill: url(#Gradiente_sem_nome_20);
}
.cls-11 {
    fill: url(#Gradiente_sem_nome_20-2);
}
.cls-12 {
    fill: #e75d6d;
}
.cls-13 {
    fill: url(#Gradiente_sem_nome_10);
}
.cls-14 {
    fill: url(#Gradiente_sem_nome_4);
}
.cls-15 {
    fill: url(#Gradiente_sem_nome_6-3);
}
.cls-16 {
    fill: #383838;
    opacity: 0.4;
}
.cls-17, .cls-18, .cls-21 {
    mix-blend-mode: overlay;
}
.cls-17 {
    fill: url(#Gradiente_sem_nome_6-4);
}
.cls-18 {
    fill: url(#Gradiente_sem_nome_6-5);
}
.cls-19 {
    fill: url(#Gradiente_sem_nome_20-3);
}
.cls-20 {
    fill: #4b28c4;
}
.cls-21 {
    fill: url(#Gradiente_sem_nome_6-6);
}
.cls-22 {
    fill: #722431;
}
.cls-23, .cls-24 {
    fill: #e0c3a1;
}
.cls-24 {
    opacity: 0.19;
}
.cls-25 {
    fill: #fdd900;
    opacity: 0.67;
}
.cls-26 {
    fill: #4f332f;
}
.cls-27 {
    fill: #883446;
    opacity: 0.57;
}
.cls-28 {
    fill: #363348;
}
.cls-29 {
    fill: url(#Degradado_sin_nombre_80);
}
.cls-30 {
    fill: url(#Degradado_sin_nombre_80-2);
}
.cls-31 {
    fill: url(#Degradado_sin_nombre_80-3);
}
.cls-32 {
    fill: #515296;
}
.cls-33 {
    fill: #5f609f;
}
#eye1{
	animation: eye_move 2s ease-in infinite alternate;
}
#eye2{
	animation: eye_move 2s ease-in infinite alternate;
}
@-webkit-keyframes eye_move{
0%{
	transform:translateX(0);
	-ms-transform:translateX(0);
	-webkit-transform:translate(0);
}
50%{
	transform:translateX(7px);
	-ms-transform:translateX(7px);
	-webkit-transform-transform:translate(7px);
}
100%{
	transform:translateX(0);
	-ms-transform:translate(0);
	-webkit-transform:translate(0);
}
}
</style><linearGradient id="Gradiente_sem_nome_6" x1="760.85" y1="457.25" x2="960.26" y2="457.25" gradientUnits="userSpaceOnUse"><stop offset="0" stop-color="#ced2d8"/><stop offset="1" stop-color="#9ba0b4"/></linearGradient><linearGradient id="Degradado_sin_nombre_79" x1="756.57" y1="457.54" x2="965.41" y2="457.54" gradientUnits="userSpaceOnUse"><stop offset="0" stop-color="#64bdea"/><stop offset="0.21" stop-color="#69c0df"/><stop offset="1" stop-color="#7ccbb8"/></linearGradient><linearGradient id="Gradiente_sem_nome_6-2" x1="759" y1="518.26" x2="979.9" y2="518.26" xlink:href="#Gradiente_sem_nome_6"/><linearGradient id="Gradiente_sem_nome_20" x1="970.93" y1="460.43" x2="1040.98" y2="460.43" gradientUnits="userSpaceOnUse"><stop offset="0" stop-color="#4b28c4"/><stop offset="1" stop-color="#3f02a8"/></linearGradient><linearGradient id="Gradiente_sem_nome_20-2" x1="1023.56" y1="485.15" x2="1086.94" y2="485.15" xlink:href="#Gradiente_sem_nome_20"/><linearGradient id="Gradiente_sem_nome_10" x1="-1.63" y1="512.83" x2="321.35" y2="512.83" gradientUnits="userSpaceOnUse"><stop offset="0" stop-color="#8b3fae"/><stop offset="1" stop-color="#3f02a8"/></linearGradient><linearGradient id="Gradiente_sem_nome_4" x1="386.51" y1="627.41" x2="198.74" y2="456.95" gradientUnits="userSpaceOnUse"><stop offset="0" stop-color="#383838"/><stop offset="1" stop-color="#9ba0b4"/></linearGradient><linearGradient id="Gradiente_sem_nome_6-3" x1="48.92" y1="445.84" x2="191.65" y2="615.08" xlink:href="#Gradiente_sem_nome_6"/><linearGradient id="Gradiente_sem_nome_6-4" x1="28.69" y1="530.67" x2="28.69" y2="489.1" xlink:href="#Gradiente_sem_nome_6"/><linearGradient id="Gradiente_sem_nome_6-5" x1="214.98" y1="397.11" x2="61.7" y2="621.68" xlink:href="#Gradiente_sem_nome_6"/><linearGradient id="Gradiente_sem_nome_20-3" x1="-25.52" y1="404" x2="282.7" y2="479.4" xlink:href="#Gradiente_sem_nome_20"/><linearGradient id="Gradiente_sem_nome_6-6" x1="124.58" y1="411.1" x2="124.58" y2="407.54" xlink:href="#Gradiente_sem_nome_6"/><linearGradient id="Degradado_sin_nombre_80" x1="389.89" y1="330.84" x2="389.89" y2="575.18" gradientUnits="userSpaceOnUse"><stop offset="0" stop-color="#6eb8e6"/><stop offset="0.5" stop-color="#738ec9"/><stop offset="1" stop-color="#7867ae"/></linearGradient><linearGradient id="Degradado_sin_nombre_80-2" x1="540.57" y1="339.11" x2="540.57" y2="573.95" xlink:href="#Degradado_sin_nombre_80"/><linearGradient id="Degradado_sin_nombre_80-3" x1="690.34" y1="333.07" x2="690.34" y2="584.16" xlink:href="#Degradado_sin_nombre_80"/></defs><title>app_land</title><g class="cls-1"><g id="Layer_1" data-name="Layer 1"><path class="cls-2" d="M960.26, 485H788.57a27.71, 27.71, 0, 0, 1, 0-55.42h171.7Z"/><path class="cls-3" d="M965.41, 485.82a4.39, 4.39, 0, 0, 0-4.29-4.29H788.57a23.71, 23.71, 0, 0, 1, 0-47.42H961.12a4.29, 4.29, 0, 1, 0, 0-8.57H788.57a32, 32, 0, 0, 0, 0, 64H961.12C963.41, 489.53, 965.41, 488.11, 965.41, 485.82Z"/><path class="cls-4" d="M969.05, 545.87H759V490.65H969.05A10.85, 10.85, 0, 0, 1, 979.9, 501.5V535A10.85, 10.85, 0, 0, 1, 969.05, 545.87Z"/><path class="cls-5" d="M964.23, 549.82H755.16a3.94, 3.94, 0, 0, 1, 0-7.89H964.23a11.85, 11.85, 0, 0, 0, 11.83-11.83V506.43a11.85, 11.85, 0, 0, 0-11.83-11.83H755.16a3.94, 3.94, 0, 0, 1, 0-7.89H964.23A19.75, 19.75, 0, 0, 1, 984, 506.43V530.1A19.75, 19.75, 0, 0, 1, 964.23, 549.82Z"/><path class="cls-6" d="M759, 502.48H964.12a3.94, 3.94, 0, 0, 1, 3.94, 3.94h0a3.94, 3.94, 0, 0, 1-3.94, 3.94H759Z"/><path class="cls-6" d="M759, 516.35H964.12a3.94, 3.94, 0, 0, 1, 3.94, 3.94h0a3.94, 3.94, 0, 0, 1-3.94, 3.94H759Z"/><path class="cls-6" d="M759.37, 528.58H964.49a3.94, 3.94, 0, 0, 1, 3.94, 3.94h0a3.94, 3.94, 0, 0, 1-3.94, 3.94H759.37Z"/><path class="cls-6" d="M960.89, 476.56H777.41a3.75, 3.75, 0, 0, 1-3.53-3.94h0a3.75, 3.75, 0, 0, 1, 3.53-3.94H960.89Z"/><path class="cls-6" d="M960.89, 462.7H777.41a3.75, 3.75, 0, 0, 1-3.53-3.94h0a3.75, 3.75, 0, 0, 1, 3.53-3.94H960.89Z"/><path class="cls-6" d="M960.56, 450.47H777.08a3.75, 3.75, 0, 0, 1-3.53-3.94h0a3.75, 3.75, 0, 0, 1, 3.53-3.94H960.56Z"/><path class="cls-7" d="M762, 429.09V368.75H968.15a5, 5, 0, 0, 1, 5, 5v50.28a5, 5, 0, 0, 1-5, 5Z"/><path class="cls-8" d="M772, 378.81V414a5, 5, 0, 0, 0, 5, 5h181a10.06, 10.06, 0, 0, 1, 10.06, 10.06H762V368.75h0A10.06, 10.06, 0, 0, 1, 772, 378.81Z"/><rect class="cls-8" x="937.98" y="368.75" width="5.03" height="60.34"/><rect class="cls-8" x="927.93" y="368.75" width="5.03" height="60.34"/><rect class="cls-8" x="797.19" y="368.75" width="5.03" height="60.34"/><rect class="cls-8" x="787.13" y="368.75" width="5.03" height="60.34"/><path class="cls-9" d="M827.36, 403.32v-8.8a.63.63, 0, 0, 1, .63-.63h79.2a.63.63, 0, 0, 1, .63.63v8.8a.63.63, 0, 0, 1-.63.63H828A.63.63, 0, 0, 1, 827.36, 403.32Z"/><path class="cls-10" d="M970.93, 368.57l48.57-5.64, 21.44, 184.81c.32, 2.76-1.23, 5.21-3.47, 5.46L997, 557.91c-2.24.26-4.31-1.77-4.63-4.53Z"/><path class="cls-8" d="M1012.56, 373.87l-28.33, 3.29c-2.24.26-3.79, 2.71-3.47, 5.46l18.55, 159.83c.64, 5.52-2.47, 10.41-6.94, 10.93h0l-4.64-40-8.11-69.93-8.69-74.92, 48.57-5.64h0C1020.14, 368.46, 1017, 373.35, 1012.56, 373.87Z"/><rect class="cls-8" x="990.18" y="530.57" width="48.9" height="5.03" transform="translate(-54.68 120.5) rotate(-6.62)"/><rect class="cls-8" x="989.02" y="520.58" width="48.9" height="5.03" transform="translate(-53.54 120.29) rotate(-6.62)"/><rect class="cls-8" x="974.53" y="395.71" width="48.9" height="5.03" transform="translate(-39.24 117.79) rotate(-6.62)"/><rect class="cls-8" x="973.37" y="385.72" width="48.9" height="5.03" transform="translate(-38.1 117.59) rotate(-6.62)"/><path class="cls-8" d="M999.78, 436.09l7.08-.82a.58.58, 0, 0, 1, .58.57l6.23, 53.69a.58.58, 0, 0, 1-.43.68l-7.08.82a.58.58, 0, 0, 1-.58-.57l-6.23-53.69A.58.58, 0, 0, 1, 999.78, 436.09Z"/><path class="cls-11" d="M1086.94, 546.23l-48.19, 5.87-15.16-124.48a4, 4, 0, 0, 1, 3.53-4.5l40.16-4.89a4, 4, 0, 0, 1, 4.5, 3.53Z"/><path class="cls-8" d="M1045.8, 543.09l28.11-3.42a4, 4, 0, 0, 0, 3.53-4.5l-12.72-104.4a8.09, 8.09, 0, 0, 1, 7.05-9h0l3.91, 32.12L1079.6, 486l7.34, 60.23-48.19, 5.87h0A8.09, 8.09, 0, 0, 1, 1045.8, 543.09Z"/><rect class="cls-8" x="1025.12" y="436.72" width="48.54" height="4.05" transform="translate(-45.35 130.1) rotate(-6.94)"/><rect class="cls-8" x="1026.1" y="444.75" width="48.54" height="4.05" transform="translate(-46.31 130.28) rotate(-6.94)"/><rect class="cls-8" x="1035.39" y="521.05" width="48.54" height="4.05" transform="translate(-55.47 131.96) rotate(-6.94)"/><rect class="cls-8" x="1036.37" y="529.08" width="48.54" height="4.05" transform="translate(-56.43 132.14) rotate(-6.94)"/><path class="cls-9" d="M1061, 504.57l-7, .86a.51.51, 0, 0, 1-.56-.44l-3.3-27.11a.51.51, 0, 0, 1, .44-.56l7-.86a.51.51, 0, 0, 1, .56.44l3.3, 27.11A.51.51, 0, 0, 1, 1061, 504.57Z"/><path class="cls-9" d="M1057.06, 472.45l-7, .86a.51.51, 0, 0, 1-.56-.44l-1.35-11a.51.51, 0, 0, 1, .44-.56l7-.86a.51.51, 0, 0, 1, .56.44l1.34, 11A.51.51, 0, 0, 1, 1057.06, 472.45Z"/><polygon class="cls-12" points="947.12 444.39 947.12 486.68 934.27 472.39 922.27 485.25 922.27 444.39 947.12 444.39"/><path class="cls-13" d="M203.34, 543.1V482.56H317.15a4.19, 4.19, 0, 0, 0, 4.19-4.19h0a4.19, 4.19, 0, 0, 0-4.19-4.19H3.48a5.11, 5.11, 0, 0, 0-5.11, 5.11v67.09a5.11, 5.11, 0, 0, 0, 5.11, 5.11H317.15a4.19, 4.19, 0, 0, 0, 4.19-4.19h0a4.19, 4.19, 0, 0, 0-4.19-4.19Z"/><rect class="cls-14" x="203.34" y="482.56" width="113.9" height="60.54"/><rect class="cls-15" x="7.48" y="482.56" width="195.86" height="60.54"/><rect class="cls-16" x="7.48" y="482.56" width="309.76" height="5.45"/><polygon class="cls-16" points="40.91 534.75 30.11 525.03 19.32 534.75 19.32 482.56 40.91 482.56 40.91 534.75"/><polygon class="cls-7" points="39.74 532.98 28.69 522.82 17.64 532.98 17.64 482.56 39.74 482.56 39.74 532.98"/><polygon class="cls-17" points="36.59 485.91 36.59 526.69 28.69 519.23 17.64 530.35 17.64 532.98 28.69 522.82 39.74 532.98 39.74 485.91 36.59 485.91"/><rect class="cls-16" x="17.65" y="482.56" width="22.09" height="3.35"/><path class="cls-18" d="M-1.56, 478.21H321.27a4.18, 4.18, 0, 0, 0-4.16-4H3.44A5.11, 5.11, 0, 0, 0-1.56, 478.21Z"/><path class="cls-16" d="M321.27, 547.45H-1.56a5, 5, 0, 0, 0, 5, 4H317.11A4.2, 4.2, 0, 0, 0, 321.27, 547.45Z"/><rect class="cls-19" x="-35.9" y="407.26" width="320.97" height="66.91"/><rect class="cls-5" x="232.37" y="407.26" width="41.75" height="66.91"/><rect class="cls-5" x="1.91" y="432.76" width="216.73" height="15.91"/><circle class="cls-20" cx="253.31" cy="440.72" r="9.78"/><rect class="cls-21" x="-35.9" y="407.26" width="320.97" height="4.03"/><rect class="cls-16" x="-35.9" y="469.64" width="320.97" height="4.53"/><path id="hair" class="cls-22" d="M327.15, 241.09S324, 197.65, 333, 162.36C344.75, 116.2, 396.82, 90, 412.55, 42c0, 0, 53.82, 11.76, 89.32, 0, 37.16-12.3, 94.9-14.37, 140.3, 0, 52.38, 16.58, 75.58, 50.62, 88.49, 75.37, 14.36, 27.54, 28.59, 66.28, 17, 106.79S327.15, 241.09, 327.15, 241.09Z"/><path class="cls-23" d="M350.88, 221s-15.1-23.38-37.11-18.37S295, 268.08, 327.15, 265.9, 350.88, 221, 350.88, 221Z"/><path class="cls-23" d="M728.17, 221s15.1-23.38, 37.11-18.37, 18.81, 65.48-13.38, 63.29S728.17, 221, 728.17, 221Z"/><path class="cls-23" d="M341.67, 236.84c.1, 74.17, 30.15, 159.58, 203.69, 156.34s193-91.25, 193-151.94c.09-99.63-83.94-105.45-108.5-151.26, 0, 0-78.35, 35.17-174.63, 0, 0, 0-19.74, 23.2-53.73, 40.63C360.1, 151.87, 341.6, 192.1, 341.67, 236.84Z"/><path class="cls-24" d="M410.76, 229.42c65-48.27, 150.47-39.09, 219.83-5.23a263.62, 263.62, 0, 0, 1, 96.9, 81.22c8.8-21.7, 10.88-44.39, 10.9-64.17.09-99.63-83.94-105.45-108.5-151.26, 0, 0-78.35, 35.17-174.63, 0, 0, 0-19.74, 23.2-53.73, 40.63-41.43, 21.26-59.93, 61.48-59.86, 106.23, 0, 21.6, 2.61, 44.14, 10.52, 65.18C365.78, 273.67, 385.18, 248.41, 410.76, 229.42Z"/><path id="blush_r" data-name="blush r" class="cls-25" d="M638.26, 235.54c-6.5, 34.25, 74.91, 31.6, 77.34, 8.84S642.77, 211.79, 638.26, 235.54Z"/><path id="blush_l" data-name="blush l" class="cls-25" d="M366.89, 250.4c-1.36, 29.32, 79.62, 21.33, 81.57-3S368.51, 215.38, 366.89, 250.4Z"/><path id="eye2" class="cls-26" d="M584.31, 230.25c-7.74-.85-6.94, 17, 1.57, 16.48S594.27, 231.35, 584.31, 230.25Z"/><path id="eye1" class="cls-26" d="M486.67, 230.25c7.74-.85, 6.94, 17-1.57, 16.48S476.71, 231.35, 486.67, 230.25Z"/><path id="mouth" class="cls-26" d="M535.26, 274.92a11, 11, 0, 0, 1-11-11, 2.2, 2.2, 0, 1, 1, 4.39, 0, 6.59, 6.59, 0, 0, 0, 13.18, 0, 2.2, 2.2, 0, 0, 1, 4.39, 0A11, 11, 0, 0, 1, 535.26, 274.92Z"/><path class="cls-27" d="M450, 67.34c22.48, 5.07, 44.2-2.59, 66.14-7a452.81, 452.81, 0, 0, 1, 79.33-8.51c5.51-.12, 5.52-8.69, 0-8.57a469.64, 469.64, 0, 0, 0-69, 6.48c-24, 4.1-49.75, 14.82-74.16, 9.32-5.37-1.21-7.66, 7-2.28, 8.26Z"/><path class="cls-27" d="M623.35, 56.7a121.76, 121.76, 0, 0, 1, 45.74, 19.67c4.53, 3.16, 8.82-4.26, 4.32-7.4a128, 128, 0, 0, 0-47.79-20.53c-5.38-1.11-7.68, 7.15-2.28, 8.26Z"/><path id="specs" class="cls-28" d="M736, 194c-2.47-2.46-22.67.7-32, 2.31a82.68, 82.68, 0, 0, 0-158.42-15.73c-7.93-3.38-15.85-1.77-21, .13a82.68, 82.68, 0, 0, 0-158.46, 15.49c-9.56-1.64-28.92-4.6-31.34-2.2-10, 9.9-3.27, 15.32-2.41, 18.19.63, 2.11, 21.34, 4.28, 32.62, 3.62a82.7, 82.7, 0, 1, 0, 162.79-25c3.52-1.38, 9.21-2.68, 14.55, 0a82.7, 82.7, 0, 1, 0, 162.79, 25c11.12.78, 32.63-1.44, 33.27-3.59C739.25, 209.31, 745.95, 203.89, 736, 194ZM447.52, 282.84a72.15, 72.15, 0, 1, 1, 72.15-72.15A72.23, 72.23, 0, 0, 1, 447.52, 282.84Zm175.06, 0a72.15, 72.15, 0, 1, 1, 72.15-72.15A72.23, 72.23, 0, 0, 1, 622.58, 282.84Z"/><path class="cls-23" d="M793.67, 419.7s16.6, 4.39, 12.66, 18.3-18.54, 5.61-18.54, 5.61Z"/><path class="cls-23" d="M288.06, 419.7s-16.6, 4.39-12.66, 18.3, 18.54, 5.61, 18.54, 5.61Z"/><path class="cls-29" d="M272.43, 347.9s37.93, 227.73, 42.47, 227.28S507.36, 571, 507.36, 571L505.67, 350S397.16, 308.36, 272.43, 347.9Z"/><path class="cls-30" d="M505.67, 350, 507.36, 571s31-38.46, 62.9, 2.92l5.21-223.85S533, 325.47, 505.67, 350Z"/><path class="cls-31" d="M575.47, 350.1l-5.21, 223.85S692, 565.33, 760, 584.16l50.42-231.47S678.11, 310.31, 575.47, 350.1Z"/><path class="cls-23" d="M282.75, 453c1.17, 9.82, 56.22, 1.25, 53.5-9.4S280.86, 437, 282.75, 453Z"/><path class="cls-23" d="M286.54, 470.61c1.57, 10.62, 49.22, 3, 47.76-9.3S284.27, 455.19, 286.54, 470.61Z"/><path class="cls-23" d="M289.92, 487.61c.43, 8, 35.29, 4.28, 35.29-5.19S289.12, 472.71, 289.92, 487.61Z"/><path class="cls-23" d="M799, 453c-1.17, 9.82-56.22, 1.25-53.5-9.4S800.87, 437, 799, 453Z"/><path class="cls-23" d="M795.19, 470.61c-1.57, 10.62-49.22, 3-47.76-9.3S797.46, 455.19, 795.19, 470.61Z"/><path class="cls-23" d="M791.81, 487.61c-.43, 8-35.29, 4.28-35.29-5.19S792.61, 472.71, 791.81, 487.61Z"/><path class="cls-32" d="M558.17, 356.58l-1.66, 61.87c-.11, 4.24, 6.48, 4.24, 6.59, 0l1.66-61.87c.11-4.24-6.48-4.24-6.59, 0Z"/><path class="cls-32" d="M556.45, 432.36l.8, 18c.19, 4.22, 6.78, 4.25, 6.59, 0l-.8-18c-.19-4.22-6.78-4.25-6.59, 0Z"/><path class="cls-33" d="M638.54, 364.1c35.78-5, 71.81-.87, 107.44, 3.37, 6.73.8, 6.67-9.75, 0-10.55-36.73-4.37-73.38-8.18-110.24-3-6.69.94-3.84, 11.1, 2.8, 10.17Z"/><path class="cls-33" d="M762.9, 370l21.57, 3.18c6.64, 1, 9.5-9.18, 2.8-10.17l-21.57-3.18c-6.64-1-9.5, 9.18-2.8, 10.17Z"/><path class="cls-33" d="M294.91, 369.33a352.15, 352.15, 0, 0, 1, 95.91-9c6.79.29, 6.77-10.26, 0-10.55a363, 363, 0, 0, 0-98.72, 9.43c-6.6, 1.56-3.81, 11.73, 2.8, 10.17Z"/><path class="cls-33" d="M409.5, 362a233.33, 233.33, 0, 0, 1, 26.73, 3.86c6.63, 1.35, 9.46-8.81, 2.8-10.17a258, 258, 0, 0, 0-29.54-4.24c-6.76-.58-6.72, 10, 0, 10.55Z"/></g></g></svg>