<svg xmlns="http://www.w3.org/2000/svg" xmlns:xlink="http://www.w3.org/1999/xlink" viewBox="0 0 879 1041.67"><defs><style>.cls-1, .cls-29, .cls-48, .cls-49 {
    fill: none;
}
.cls-2 {
    isolation: isolate;
}
.cls-3 {
    fill: #722431;
}
.cls-4, .cls-5 {
    fill: #e0c3a1;
}
.cls-5 {
    opacity: 0.19;
}
.cls-26, .cls-5, .cls-6, .cls-89 {
    mix-blend-mode: multiply;
}
.cls-6 {
    fill: #fdd900;
    opacity: 0.67;
}
.cls-7 {
    fill: #4f332f;
}
.cls-8 {
    fill: #883446;
    opacity: 0.57;
}
.cls-9 {
    fill: #363348;
}
.cls-10 {
    fill: url(#Degradado_sin_nombre_80);
}
.cls-11 {
    fill: url(#Degradado_sin_nombre_80-2);
}
.cls-12 {
    fill: url(#Degradado_sin_nombre_80-3);
}
.cls-13 {
    fill: #515296;
}
.cls-14 {
    fill: #5f609f;
}
.cls-15 {
    fill: url(#Gradiente_sem_nome_23);
}
.cls-16 {
    fill: url(#Degradado_sin_nombre_80-4);
}
.cls-17 {
    fill: url(#Gradiente_sem_nome_23-2);
}
.cls-18 {
    fill: url(#Gradiente_sem_nome_23-3);
}
.cls-19 {
    fill: url(#Degradado_sin_nombre_2);
}
.cls-20 {
    fill: url(#Gradiente_sem_nome_23-4);
}
.cls-21 {
    fill: url(#Degradado_sin_nombre_2-2);
}
.cls-22 {
    fill: url(#Gradiente_sem_nome_23-5);
}
.cls-23 {
    fill: url(#Gradiente_sem_nome_23-6);
}
.cls-24 {
    fill: url(#Gradiente_sem_nome_23-7);
}
.cls-25 {
    fill: url(#Gradiente_sem_nome_23-8);
}
.cls-26 {
    fill: #e6e6e6;
}
.cls-27 {
    fill: url(#Degradado_sin_nombre_80-5);
}
.cls-28 {
    fill: url(#Degradado_sin_nombre_79);
}
.cls-29 {
    stroke: #94cdad;
    stroke-miterlimit: 10;
    stroke-width: 2.91px;
}
.cls-30 {
    fill: #fcf3d9;
}
.cls-31 {
    opacity: 0.05;
}
.cls-32 {
    fill: #fff;
}
.cls-33 {
    fill: #4a9e6f;
}
.cls-34, .cls-35 {
    fill: #442c19;
}
.cls-35, .cls-45, .cls-52 {
    opacity: 0.1;
}
.cls-36 {
    fill: url(#Degradado_sin_nombre_80-6);
}
.cls-37 {
    fill: url(#Degradado_sin_nombre_79-2);
}
.cls-38 {
    fill: #e8dfc7;
}
.cls-39 {
    fill: #e8dfc8;
}
.cls-40 {
    fill: #d4cbb6;
}
.cls-41 {
    fill: #bab2a0;
}
.cls-42 {
    fill: url(#Degradado_sin_nombre_80-7);
}
.cls-43 {
    fill: url(#Degradado_sin_nombre_80-8);
}
.cls-44 {
    fill: url(#Gradiente_sem_nome_23-9);
}
.cls-45 {
    fill: url(#Degradado_sin_nombre_80-9);
}
.cls-46 {
    fill: url(#Degradado_sin_nombre_80-10);
}
.cls-47 {
    fill: url(#Gradiente_sem_nome_23-10);
}
.cls-48, .cls-49 {
    stroke: #304747;
    stroke-linecap: round;
    stroke-linejoin: round;
}
.cls-48 {
    stroke-width: 1.72px;
}
.cls-49 {
    stroke-width: 2.49px;
}
.cls-50 {
    fill: #304747;
}
.cls-51 {
    fill: #94cdad;
}
.cls-53 {
    fill: url(#Degradado_sin_nombre_80-11);
}
.cls-54 {
    fill: url(#Gradiente_sem_nome_23-11);
}
.cls-55 {
    fill: url(#Degradado_sin_nombre_80-12);
}
.cls-56 {
    fill: url(#Gradiente_sem_nome_23-12);
}
.cls-57 {
    fill: url(#Degradado_sin_nombre_80-13);
}
.cls-58 {
    fill: #c2b59b;
}
.cls-59 {
    opacity: 0.15;
}
.cls-60 {
    fill: url(#Degradado_sin_nombre_80-14);
}
.cls-61 {
    fill: url(#Degradado_sin_nombre_80-15);
}
.cls-62 {
    fill: #8c5c26;
}
.cls-63 {
    fill: #fcd900;
}
.cls-64 {
    fill: url(#Degradado_sin_nombre_79-3);
}
.cls-65 {
    fill: url(#Degradado_sin_nombre_80-16);
}
.cls-66 {
    fill: url(#Degradado_sin_nombre_80-17);
}
.cls-67 {
    fill: url(#Degradado_sin_nombre_80-18);
}
.cls-68 {
    fill: url(#Degradado_sin_nombre_80-19);
}
.cls-69 {
    fill: url(#Degradado_sin_nombre_80-20);
}
.cls-70 {
    fill: #e2d8c7;
}
.cls-71 {
    fill: url(#Degradado_sin_nombre_80-21);
}
.cls-72 {
    fill: url(#Degradado_sin_nombre_80-22);
}
.cls-73 {
    opacity: 0.1;
}
.cls-74 {
    clip-path: url(#clip-path);
}
.cls-75 {
    fill: #232020;
}
.cls-76 {
    fill: url(#Degradado_sin_nombre_79-4);
}
.cls-77 {
    opacity: 0.2;
}
.cls-78 {
    clip-path: url(#clip-path-2);
}
.cls-79 {
    fill: #5966d6;
}
.cls-80 {
    fill: #2f3787;
}
.cls-81 {
    fill: url(#Degradado_sin_nombre_80-23);
}
.cls-82 {
    fill: #cec4b5;
}
.cls-83 {
    fill: #7eacf1;
}
.cls-84 {
    opacity: 0.08;
}
.cls-85 {
    clip-path: url(#clip-path-3);
}
.cls-86 {
    fill: url(#Gradiente_sem_nome_10);
}
.cls-87 {
    fill: url(#Gradiente_sem_nome_4);
}
.cls-88 {
    fill: url(#Gradiente_sem_nome_6);
}
.cls-89 {
    fill: #383838;
    opacity: 0.4;
}
.cls-90 {
    fill: #ff57a4;
}
.cls-100, .cls-101, .cls-91, .cls-92, .cls-96 {
    mix-blend-mode: overlay;
}
.cls-91 {
    fill: url(#Gradiente_sem_nome_6-2);
}
.cls-92 {
    fill: url(#Gradiente_sem_nome_6-3);
}
.cls-93 {
    fill: url(#Gradiente_sem_nome_20);
}
.cls-94 {
    fill: #525dea;
}
.cls-95 {
    fill: #4b28c4;
}
.cls-96 {
    fill: url(#Gradiente_sem_nome_6-4);
}
.cls-97 {
    fill: url(#Gradiente_sem_nome_6-5);
}
.cls-98 {
    fill: url(#Gradiente_sem_nome_13);
}
.cls-99 {
    fill: #8b3fae;
}
.cls-100 {
    fill: url(#Gradiente_sem_nome_6-6);
}
.cls-101 {
    fill: url(#Gradiente_sem_nome_6-7);
}
.cls-102 {
    fill: url(#Degradado_sin_nombre_4);
}
.cls-103 {
    fill: url(#Degradado_sin_nombre_80-24);
}
.cls-104 {
    fill: url(#Degradado_sin_nombre_4-2);
}
.cls-105 {
    fill: url(#Degradado_sin_nombre_3);
}
.cls-106 {
    fill: url(#Degradado_sin_nombre_4-3);
}
.cls-107 {
    fill: url(#Degradado_sin_nombre_3-2);
}
.cls-108 {
    fill: url(#Degradado_sin_nombre_3-3);
}
.cls-109 {
    fill: url(#Degradado_sin_nombre_4-4);
}
.cls-110 {
    fill: url(#Degradado_sin_nombre_4-5);
}
.cls-111 {
    fill: url(#Degradado_sin_nombre_3-4);
}
.cls-112 {
    fill: url(#Degradado_sin_nombre_4-6);
}
.cls-113 {
    fill: url(#Degradado_sin_nombre_3-5);
}
.cls-114 {
    fill: url(#Degradado_sin_nombre_3-6);
}
.cls-115 {
    fill: url(#Degradado_sin_nombre_4-7);
}
.cls-116 {
    fill: url(#Degradado_sin_nombre_80-25);
}
.cls-117 {
    fill: url(#Degradado_sin_nombre_4-8);
}
.cls-118 {
    fill: url(#Degradado_sin_nombre_3-7);
}
.cls-119 {
    fill: url(#Degradado_sin_nombre_4-9);
}
.cls-120 {
    fill: url(#Degradado_sin_nombre_3-8);
}
.cls-121 {
    fill: url(#Degradado_sin_nombre_3-9);
}
.cls-122 {
    fill: url(#Degradado_sin_nombre_6);
}
.cls-123 {
    fill: url(#Degradado_sin_nombre_81);
}
.cls-124 {
    fill: url(#Degradado_sin_nombre_6-2);
}
.cls-125 {
    fill: url(#Degradado_sin_nombre_5);
}
.cls-126 {
    fill: url(#Degradado_sin_nombre_6-3);
}
.cls-127 {
    fill: url(#Degradado_sin_nombre_5-2);
}
.cls-128 {
    fill: url(#Degradado_sin_nombre_5-3);
}
#eye1{
	animation: eye_move 2s ease-in infinite alternate;
}
#eye2{
	animation: eye_move 2s ease-in infinite alternate;
}
@-webkit-keyframes eye_move{
0%{
	transform:translateX(0);
	-ms-transform:translateX(0);
	-webkit-transform:translate(0);
}
50%{
	transform:translateX(5px);
	-ms-transform:translateX(5px);
	-webkit-transform-transform:translate(5px);
}
100%{
	transform:translateX(0);
	-ms-transform:translate(0);
	-webkit-transform:translate(0);
}
}

#books_1{
	animation: book_moveY 2s ease-in infinite alternate;
}
#books_2{
	animation: book_moveX 2s ease-in infinite alternate-reverse;
}
#books_3{
	animation: book_moveY 2s ease-in infinite alternate;
}
#books_4{
	animation: book_moveY 2s ease-in infinite alternate-reverse;
}
#books_5{
	animation: book_moveX 2s ease-in infinite alternate;
}
#books_6{
	animation: book_moveY 2s ease-in infinite alternate;
}
#books_7{
	animation: book_moveX 2s ease-in infinite alternate-reverse;
}
#books_8{
	animation: book_moveX 2s ease-in infinite alternate;
}
#books_9{
	animation: book_moveY 2s ease-in infinite alternate;
}
#books_10{
	animation: book_moveY 2s ease-in infinite alternate-reverse;
}
#books_11{
	animation: book_moveX 2s ease-in infinite alternate;
}
#books_12{
	animation: book_moveY 2s ease-in infinite alternate;
}
#books_13{
	animation: book_moveX 2s ease-in infinite alternate-reverse;
}
#books_14{
	animation: book_moveY 2s ease-in infinite alternate;
}
#books_15{
	animation: book_moveX 2s ease-in infinite alternate-reverse;
}
#books_16{
	animation: book_moveY 2s ease-in infinite alternate;
}
#books_17{
	animation: book_moveX 2s ease-in infinite alternate;
}
#books_18{
	animation: book_moveY 2s ease-in infinite alternate-reverse;
}
#books_19{
	animation: book_moveX 2s ease-in infinite alternate;
}


@-webkit-keyframes book_moveY{
	0%{
	-ms-transform: translateY(0);
	-webkit-transform: translateY()
	tranform:translateY(0);
	}
	50%{
	-ms-tranform: translateY(15px);
	-webkit-transform: translateY(15px);
	transform:translateY(15px);
	}
	100{
	-ms-transform: translateY(0);
    -webkit-transform: translateY(10px);
    transform: translateY(10px);
	}

}

@-webkit-keyframes book_moveX{
	0%{
	-ms-transform: translateX(0);
	-webkit-transform: translate(0);
	transform: translate(0);
	}
	50%{
	-ms-transform: translate(15px);
	-webkit-transform: translate(15px);
	transform: translate(15px);
	}
	100%{
	-ms-transform: translate(0);
	-webkit-transform: translate(0);
	transform: translate(0);
	}
}

#paper_3 {
	animation: paper_move 2s ease-in-out infinite alternate;
}

#paper_2 {
	animation: paper_move2 2s ease-in-out infinite reverse;
}

#paper_1 {
	animation: paper_move2 2s ease-in-out infinite alternate;
}
#paper_4 {
	animation: paper_move 2s ease-in-out infinite reverse;
}
#paper_5 {
	animation: paper_move2 2s ease-in-out infinite alternate;
}
#paper_6 {
	animation: paper_move 2s ease-in-out infinite reverse;
}
#paper_7 {
	animation: paper_move2 2s ease-in-out infinite alternate;
}
#paper_8 {
	animation: paper_move2 2s ease-in-out infinite alternate;
}

@-webkit-keyframes paper_move{
	0%{
	-ms-transform: skew(0);
	-webkit-transform: skew(0);
	transform: skew(0);
	}
	50%{
	-ms-transform: skew(3deg);
	-webkit-transform: skew(3deg);
	transform:skew(3deg);
	}
	100%{
	-ms-transform: skew(0);
	-webkit-transform: skew(0);
	transform: skew(0);
	}
}

@-webkit-keyframes paper_move2{
	0%{
	-ms-transform: skew(0);
	-webkit-transform: skew(0);
	transform: skew(0);
	}
	50%{
	-ms-transform: skew(2deg);
	-webkit-transform: skew(2deg);
	transform:skew(2deg);
	}
	100%{
	-ms-transform: skew(0);
	-webkit-transform: skew(0);
	transform: skew(0);
	}
}
</style><linearGradient id="Degradado_sin_nombre_80" x1="434.73" y1="869.74" x2="434.73" y2="1047.91" gradientUnits="userSpaceOnUse"><stop offset="0" stop-color="#6eb8e6"/><stop offset="0.5" stop-color="#738ec9"/><stop offset="1" stop-color="#7867ae"/></linearGradient><linearGradient id="Degradado_sin_nombre_80-2" x1="544.61" y1="875.77" x2="544.61" y2="1047.02" xlink:href="#Degradado_sin_nombre_80"/><linearGradient id="Degradado_sin_nombre_80-3" x1="653.82" y1="871.36" x2="653.82" y2="1054.46" xlink:href="#Degradado_sin_nombre_80"/><linearGradient id="Gradiente_sem_nome_23" x1="677.68" y1="164.94" x2="677.68" y2="93.56" gradientTransform="translate(4.57 43) rotate(1.63)" gradientUnits="userSpaceOnUse"><stop offset="0" stop-color="#525dea"/><stop offset="1" stop-color="#4b28c4"/></linearGradient><linearGradient id="Degradado_sin_nombre_80-4" x1="670.67" y1="126.31" x2="689.49" y2="158.91" gradientTransform="translate(4.57 43) rotate(1.63)" xlink:href="#Degradado_sin_nombre_80"/><linearGradient id="Gradiente_sem_nome_23-2" x1="417.88" y1="125.69" x2="417.88" y2="47.66" gradientTransform="matrix(1,  0,  0,  1,  0,  0)" xlink:href="#Gradiente_sem_nome_23"/><linearGradient id="Gradiente_sem_nome_23-3" x1="732.48" y1="627.22" x2="776.85" y2="627.22" gradientTransform="matrix(1,  0,  0,  1,  0,  0)" xlink:href="#Gradiente_sem_nome_23"/><linearGradient id="Degradado_sin_nombre_2" x1="747.13" y1="645.67" x2="799.01" y2="645.67" xlink:href="#Degradado_sin_nombre_80"/><linearGradient id="Gradiente_sem_nome_23-4" x1="218.48" y1="911.22" x2="262.85" y2="911.22" gradientTransform="matrix(1,  0,  0,  1,  0,  0)" xlink:href="#Gradiente_sem_nome_23"/><linearGradient id="Degradado_sin_nombre_2-2" x1="233.13" y1="929.67" x2="285.01" y2="929.67" xlink:href="#Degradado_sin_nombre_80"/><linearGradient id="Gradiente_sem_nome_23-5" x1="-1927.49" y1="-1557.1" x2="-1847.5" y2="-1557.1" gradientTransform="translate(-1141.7 2588.27) rotate(81.76)" xlink:href="#Gradiente_sem_nome_23"/><linearGradient id="Gradiente_sem_nome_23-6" x1="311.82" y1="667.58" x2="365.86" y2="573.98" gradientTransform="matrix(1,  0,  0,  1,  0,  0)" xlink:href="#Gradiente_sem_nome_23"/><linearGradient id="Gradiente_sem_nome_23-7" x1="85.82" y1="99.58" x2="139.86" y2="5.98" gradientTransform="matrix(1,  0,  0,  1,  0,  0)" xlink:href="#Gradiente_sem_nome_23"/><linearGradient id="Gradiente_sem_nome_23-8" x1="-210.28" y1="-180.95" x2="-210.28" y2="-254.25" gradientTransform="translate(169.85 1096.62) rotate(27.75)" xlink:href="#Gradiente_sem_nome_23"/><linearGradient id="Degradado_sin_nombre_80-5" x1="690.24" y1="316.86" x2="783.78" y2="316.86" xlink:href="#Degradado_sin_nombre_80"/><linearGradient id="Degradado_sin_nombre_79" x1="698.45" y1="313.55" x2="783.78" y2="313.55" gradientTransform="translate(885.85 -478.05) rotate(77.43)" gradientUnits="userSpaceOnUse"><stop offset="0" stop-color="#64bdea"/><stop offset="0.21" stop-color="#69c0df"/><stop offset="1" stop-color="#7ccbb8"/></linearGradient><linearGradient id="Degradado_sin_nombre_80-6" x1="760.87" y1="967.71" x2="854.42" y2="967.71" xlink:href="#Degradado_sin_nombre_80"/><linearGradient id="Degradado_sin_nombre_79-2" x1="769.09" y1="964.41" x2="854.42" y2="964.41" gradientTransform="translate(1576.37 -37.78) rotate(77.43)" xlink:href="#Degradado_sin_nombre_79"/><linearGradient id="Degradado_sin_nombre_80-7" x1="233.19" y1="422.93" x2="337" y2="422.93" xlink:href="#Degradado_sin_nombre_80"/><linearGradient id="Degradado_sin_nombre_80-8" x1="308.27" y1="402.93" x2="399.91" y2="402.93" xlink:href="#Degradado_sin_nombre_80"/><linearGradient id="Gradiente_sem_nome_23-9" x1="298.88" y1="423.31" x2="345.38" y2="423.31" gradientTransform="matrix(1,  0,  0,  1,  0,  0)" xlink:href="#Gradiente_sem_nome_23"/><linearGradient id="Degradado_sin_nombre_80-9" x1="307.77" y1="403.71" x2="399.91" y2="403.71" xlink:href="#Degradado_sin_nombre_80"/><linearGradient id="Degradado_sin_nombre_80-10" x1="176.04" y1="-610.62" x2="285.14" y2="-610.62" gradientTransform="matrix(0.74,  0.45,  -0.34,  0.89,  -174.79,  1065.66)" xlink:href="#Degradado_sin_nombre_80"/><linearGradient id="Gradiente_sem_nome_23-10" x1="179.2" y1="-615.48" x2="281.59" y2="-615.48" gradientTransform="matrix(0.69,  0.52,  -0.43,  0.85,  -216.92,  1025.77)" xlink:href="#Gradiente_sem_nome_23"/><linearGradient id="Degradado_sin_nombre_80-11" x1="-273.72" y1="-1745.23" x2="-185.82" y2="-1745.23" gradientTransform="translate(-579.85 1166.78) rotate(58.36)" xlink:href="#Degradado_sin_nombre_80"/><linearGradient id="Gradiente_sem_nome_23-11" x1="-271.18" y1="-1749.14" x2="-188.68" y2="-1749.14" gradientTransform="matrix(-0.52,  0.85,  -0.85,  -0.52,  -821.05,  -668.67)" xlink:href="#Gradiente_sem_nome_23"/><linearGradient id="Degradado_sin_nombre_80-12" x1="1212.21" y1="767.13" x2="1300.11" y2="767.13" gradientTransform="translate(-956.03 60.35) rotate(7.51)" xlink:href="#Degradado_sin_nombre_80"/><linearGradient id="Gradiente_sem_nome_23-12" x1="1214.76" y1="763.22" x2="1297.26" y2="763.22" gradientTransform="translate(-479.3 -327.58) rotate(31.65)" xlink:href="#Gradiente_sem_nome_23"/><linearGradient id="Degradado_sin_nombre_80-13" x1="577.78" y1="517.75" x2="739.29" y2="517.75" gradientTransform="translate(94.22 -101.34) rotate(9.48)" xlink:href="#Degradado_sin_nombre_80"/><linearGradient id="Degradado_sin_nombre_80-14" x1="414.79" y1="-542.14" x2="504.62" y2="-542.14" gradientTransform="translate(71.46 -505.28) rotate(99.48)" xlink:href="#Degradado_sin_nombre_80"/><linearGradient id="Degradado_sin_nombre_80-15" x1="503.12" y1="358.8" x2="555.24" y2="358.8" gradientTransform="translate(738.26 -245.39) rotate(74.95)" xlink:href="#Degradado_sin_nombre_80"/><linearGradient id="Degradado_sin_nombre_79-3" x1="524.6" y1="413.17" x2="559.64" y2="413.17" gradientTransform="translate(805.29 -215.6) rotate(75.4)" xlink:href="#Degradado_sin_nombre_79"/><linearGradient id="Degradado_sin_nombre_80-16" x1="-304.62" y1="1583.04" x2="-261.7" y2="1657.37" gradientTransform="translate(-621.48 -1140.48) rotate(-37.34)" xlink:href="#Degradado_sin_nombre_80"/><linearGradient id="Degradado_sin_nombre_80-17" x1="-378.79" y1="1639.5" x2="-292.82" y2="1639.5" gradientTransform="translate(-621.48 -1140.48) rotate(-37.34)" xlink:href="#Degradado_sin_nombre_80"/><linearGradient id="Degradado_sin_nombre_80-18" x1="-378.79" y1="1638.9" x2="-320.38" y2="1638.9" gradientTransform="translate(-621.48 -1140.48) rotate(-37.34)" xlink:href="#Degradado_sin_nombre_80"/><linearGradient id="Degradado_sin_nombre_80-19" x1="-301.36" y1="1671.72" x2="-286.94" y2="1671.72" gradientTransform="translate(1010.89 -1100.8) rotate(20.16)" xlink:href="#Degradado_sin_nombre_80"/><linearGradient id="Degradado_sin_nombre_80-20" x1="-320.38" y1="1601.98" x2="-246.27" y2="1601.98" gradientTransform="translate(-621.48 -1140.48) rotate(-37.34)" xlink:href="#Degradado_sin_nombre_80"/><linearGradient id="Degradado_sin_nombre_80-21" x1="359.8" y1="225.15" x2="430.7" y2="225.15" xlink:href="#Degradado_sin_nombre_80"/><linearGradient id="Degradado_sin_nombre_80-22" x1="292.02" y1="225.15" x2="362.92" y2="225.15" xlink:href="#Degradado_sin_nombre_80"/><clipPath id="clip-path"><rect class="cls-1" x="301.59" y="200.77" width="61.33" height="69.37"/></clipPath><linearGradient id="Degradado_sin_nombre_79-4" x1="355.07" y1="228.56" x2="367.68" y2="228.56" gradientTransform="matrix(1,  0,  0,  1,  0,  0)" xlink:href="#Degradado_sin_nombre_79"/><clipPath id="clip-path-2"><rect class="cls-1" x="292.02" y="180.16" width="138.68" height="9.18"/></clipPath><linearGradient id="Degradado_sin_nombre_80-23" x1="44.64" y1="-463.99" x2="129.23" y2="-463.99" gradientTransform="translate(-38.31 606.18) rotate(17.97)" xlink:href="#Degradado_sin_nombre_80"/><clipPath id="clip-path-3"><rect class="cls-1" x="129.2" y="156.64" width="116.19" height="81.46" transform="translate(-58.22 314.65) rotate(-72.03)"/></clipPath><linearGradient id="Gradiente_sem_nome_10" x1="-2224.56" y1="-2061.65" x2="-2113.93" y2="-2061.65" gradientTransform="translate(-1234.13 2576.27) rotate(83.74)" gradientUnits="userSpaceOnUse"><stop offset="0" stop-color="#8b3fae"/><stop offset="1" stop-color="#3f02a8"/></linearGradient><linearGradient id="Gradiente_sem_nome_4" x1="-2091.61" y1="-2022.4" x2="-2155.92" y2="-2080.78" gradientTransform="translate(2717.08 2290.85)" gradientUnits="userSpaceOnUse"><stop offset="0" stop-color="#383838"/><stop offset="1" stop-color="#9ba0b4"/></linearGradient><linearGradient id="Gradiente_sem_nome_6" x1="-2207.24" y1="-2084.59" x2="-2158.35" y2="-2026.62" gradientTransform="translate(2764.34 2238.11)" gradientUnits="userSpaceOnUse"><stop offset="0" stop-color="#ced2d8"/><stop offset="1" stop-color="#9ba0b4"/></linearGradient><linearGradient id="Gradiente_sem_nome_6-2" x1="-2214.17" y1="-2055.53" x2="-2214.17" y2="-2069.77" gradientTransform="translate(-1234.13 2576.27) rotate(83.74)" xlink:href="#Gradiente_sem_nome_6"/><linearGradient id="Gradiente_sem_nome_6-3" x1="-2150.36" y1="-2101.28" x2="-2202.87" y2="-2024.36" gradientTransform="translate(-1234.13 2576.27) rotate(83.74)" xlink:href="#Gradiente_sem_nome_6"/><linearGradient id="Gradiente_sem_nome_20" x1="-1676.32" y1="-1428.76" x2="-1570.75" y2="-1402.93" gradientTransform="translate(1711.65 2046.3)" gradientUnits="userSpaceOnUse"><stop offset="0" stop-color="#4b28c4"/><stop offset="1" stop-color="#3f02a8"/></linearGradient><linearGradient id="Gradiente_sem_nome_6-4" x1="-1624.91" y1="-1426.32" x2="-1624.91" y2="-1427.54" gradientTransform="translate(1721.95 2053.92)" xlink:href="#Gradiente_sem_nome_6"/><linearGradient id="Gradiente_sem_nome_6-5" x1="-391.01" y1="-617.51" x2="-430.69" y2="-653.53" gradientTransform="translate(523.13 1562.98)" xlink:href="#Gradiente_sem_nome_6"/><linearGradient id="Gradiente_sem_nome_13" x1="-418" y1="-667.74" x2="-485.03" y2="-569.54" gradientTransform="translate(-23.24 1670.05) rotate(43.42)" gradientUnits="userSpaceOnUse"><stop offset="0" stop-color="#ff57a4"/><stop offset="1" stop-color="#8b3fae"/></linearGradient><linearGradient id="Gradiente_sem_nome_6-6" x1="-423.25" y1="-640.73" x2="-423.25" y2="-627.4" gradientTransform="translate(-23.24 1670.05) rotate(43.42)" xlink:href="#Gradiente_sem_nome_6"/><linearGradient id="Gradiente_sem_nome_6-7" x1="-423.15" y1="-670.63" x2="-475.66" y2="-593.71" gradientTransform="translate(-23.24 1670.05) rotate(43.42)" xlink:href="#Gradiente_sem_nome_6"/><linearGradient id="Degradado_sin_nombre_4" x1="70.58" y1="-1417.8" x2="78.17" y2="-1417.8" gradientTransform="translate(-251.19 1086.43) rotate(45.35)" xlink:href="#Degradado_sin_nombre_79"/><linearGradient id="Degradado_sin_nombre_80-24" x1="77.7" y1="-1380.27" x2="85.5" y2="-1381.79" gradientTransform="translate(-548.34 -181.88) rotate(101.52)" xlink:href="#Degradado_sin_nombre_80"/><linearGradient id="Degradado_sin_nombre_4-2" x1="86.58" y1="-1331.5" x2="93.85" y2="-1331.5" gradientTransform="translate(-251.19 1086.43) rotate(45.35)" xlink:href="#Degradado_sin_nombre_79"/><linearGradient id="Degradado_sin_nombre_3" x1="70.15" y1="-1413.38" x2="79.87" y2="-1413.38" gradientTransform="translate(-562.97 -209.33) rotate(101.52)" xlink:href="#Degradado_sin_nombre_80"/><linearGradient id="Degradado_sin_nombre_4-3" x1="71.93" y1="-1410.29" x2="79.36" y2="-1410.29" gradientTransform="translate(-561.56 -206.73) rotate(101.52)" xlink:href="#Degradado_sin_nombre_79"/><linearGradient id="Degradado_sin_nombre_3-2" x1="83.95" y1="-1344.88" x2="93.86" y2="-1345.57" gradientTransform="translate(-532.14 -151.52) rotate(101.52)" xlink:href="#Degradado_sin_nombre_80"/><linearGradient id="Degradado_sin_nombre_3-3" x1="68.7" y1="-1401.95" x2="74.51" y2="-1401.95" gradientTransform="translate(-251.19 1086.43) rotate(45.35)" xlink:href="#Degradado_sin_nombre_80"/><linearGradient id="Degradado_sin_nombre_4-4" x1="464.38" y1="-191.89" x2="471.97" y2="-191.89" gradientTransform="translate(-217.57 627.71) rotate(29.19)" xlink:href="#Degradado_sin_nombre_79"/><linearGradient id="Degradado_sin_nombre_4-5" x1="480.38" y1="-105.58" x2="487.65" y2="-105.58" gradientTransform="translate(-217.57 627.71) rotate(29.19)" xlink:href="#Degradado_sin_nombre_79"/><linearGradient id="Degradado_sin_nombre_3-4" x1="463.95" y1="-187.47" x2="473.67" y2="-187.47" gradientTransform="matrix(-0.2,  0.98,  -0.98,  -0.2,  193.07,  195.9)" xlink:href="#Degradado_sin_nombre_80"/><linearGradient id="Degradado_sin_nombre_4-6" x1="465.73" y1="-184.37" x2="473.16" y2="-184.37" gradientTransform="translate(195.28 198.91) rotate(101.52)" xlink:href="#Degradado_sin_nombre_79"/><linearGradient id="Degradado_sin_nombre_3-5" x1="477.75" y1="-118.96" x2="487.66" y2="-119.65" gradientTransform="translate(241.51 262.18) rotate(101.52)" xlink:href="#Degradado_sin_nombre_80"/><linearGradient id="Degradado_sin_nombre_3-6" x1="462.5" y1="-176.03" x2="468.31" y2="-176.03" gradientTransform="translate(-217.57 627.71) rotate(29.19)" xlink:href="#Degradado_sin_nombre_80"/><linearGradient id="Degradado_sin_nombre_4-7" x1="1073.14" y1="582.35" x2="1080.73" y2="582.35" gradientTransform="translate(-628.14 -276.92) rotate(0.68)" xlink:href="#Degradado_sin_nombre_79"/><linearGradient id="Degradado_sin_nombre_80-25" x1="1080.27" y1="619.87" x2="1088.07" y2="618.36" gradientTransform="translate(1271.77 -583.68) rotate(101.52)" xlink:href="#Degradado_sin_nombre_80"/><linearGradient id="Degradado_sin_nombre_4-8" x1="1089.15" y1="668.65" x2="1096.42" y2="668.65" gradientTransform="translate(-628.14 -276.92) rotate(0.68)" xlink:href="#Degradado_sin_nombre_79"/><linearGradient id="Degradado_sin_nombre_3-7" x1="1072.71" y1="586.77" x2="1082.44" y2="586.77" gradientTransform="translate(1232.55 -616.1) rotate(101.52)" xlink:href="#Degradado_sin_nombre_80"/><linearGradient id="Degradado_sin_nombre_4-9" x1="1074.49" y1="589.86" x2="1081.92" y2="589.86" gradientTransform="matrix(-0.2,  0.98,  -0.98,  -0.2,  1236.31,  -612.99)" xlink:href="#Degradado_sin_nombre_79"/><linearGradient id="Degradado_sin_nombre_3-8" x1="1086.51" y1="655.27" x2="1096.42" y2="654.58" gradientTransform="translate(1315.18 -547.79) rotate(101.52)" xlink:href="#Degradado_sin_nombre_80"/><linearGradient id="Degradado_sin_nombre_3-9" x1="1071.26" y1="598.2" x2="1077.08" y2="598.2" gradientTransform="translate(-628.14 -276.92) rotate(0.68)" xlink:href="#Degradado_sin_nombre_80"/><linearGradient id="Degradado_sin_nombre_6" x1="-2119.38" y1="-556.84" x2="-2110.13" y2="-556.84" gradientTransform="matrix(-0.86,  0.52,  -0.52,  -0.86,  -1302.28,  1421.26)" xlink:href="#Degradado_sin_nombre_79"/><linearGradient id="Degradado_sin_nombre_81" x1="-2110.7" y1="-511.18" x2="-2101.21" y2="-513.02" gradientTransform="matrix(-0.2,  0.98,  -0.98,  -0.2,  -156.51,  2734.6)" gradientUnits="userSpaceOnUse"><stop offset="0" stop-color="#f45184"/><stop offset="0.29" stop-color="#f47084"/><stop offset="0.76" stop-color="#f49e84"/><stop offset="1" stop-color="#f4b084"/></linearGradient><linearGradient id="Degradado_sin_nombre_6-2" x1="-2099.89" y1="-451.83" x2="-2091.04" y2="-451.83" gradientTransform="matrix(-0.86,  0.52,  -0.52,  -0.86,  -1302.28,  1421.26)" xlink:href="#Degradado_sin_nombre_79"/><linearGradient id="Degradado_sin_nombre_5" x1="-2119.89" y1="-551.47" x2="-2108.06" y2="-551.47" gradientTransform="translate(-169.5 2764.18) rotate(101.52)" xlink:href="#Degradado_sin_nombre_80"/><linearGradient id="Degradado_sin_nombre_6-3" x1="-2117.73" y1="-547.7" x2="-2108.69" y2="-547.7" gradientTransform="translate(-168.19 2761.39) rotate(101.52)" xlink:href="#Degradado_sin_nombre_79"/><linearGradient id="Degradado_sin_nombre_5-2" x1="-2103.1" y1="-468.11" x2="-2091.04" y2="-468.95" gradientTransform="translate(-142.12 2701.87) rotate(101.52)" xlink:href="#Degradado_sin_nombre_80"/><linearGradient id="Degradado_sin_nombre_5-3" x1="-2121.66" y1="-537.55" x2="-2114.58" y2="-537.55" gradientTransform="matrix(-0.86,  0.52,  -0.52,  -0.86,  -1302.28,  1421.26)" xlink:href="#Degradado_sin_nombre_80"/></defs><title>landing</title><g class="cls-2"><g id="Layer_1" data-name="Layer 1"><g id="boy"><g id="face"><path id="hair" class="cls-3" d="M389, 804.29s-2.27-31.67, 4.27-57.41c8.56-33.66, 46.53-52.78, 58-87.75, 0, 0, 39.25, 8.57, 65.13, 0, 27.1-9, 69.2-10.48, 102.31, 0, 38.2, 12.09, 55.12, 36.91, 64.53, 55, 10.47, 20.08, 20.85, 48.33, 12.38, 77.88S389, 804.29, 389, 804.29Z"/><path class="cls-4" d="M406.28, 789.62s-11-17-27.06-13.39S365.51, 824, 389, 822.38, 406.28, 789.62, 406.28, 789.62Z"/><path class="cls-4" d="M681.41, 789.62s11-17, 27.06-13.39, 13.71, 47.75-9.76, 46.15S681.41, 789.62, 681.41, 789.62Z"/><path class="cls-4" d="M399.56, 801.19c.08, 54.09, 22, 116.37, 148.53, 114s140.72-66.54, 140.76-110.8c.06-72.65-61.21-76.9-79.12-110.3, 0, 0-57.14, 25.65-127.34, 0, 0, 0-14.4, 16.91-39.18, 29.63C413, 739.23, 399.52, 768.56, 399.56, 801.19Z"/><path class="cls-5" d="M449.94, 795.78c47.41-35.2, 109.73-28.5, 160.31-3.82a192.23, 192.23, 0, 0, 1, 70.66, 59.23c6.42-15.83, 7.94-32.37, 7.95-46.79.06-72.65-61.21-76.9-79.12-110.3, 0, 0-57.14, 25.65-127.34, 0, 0, 0-14.4, 16.91-39.18, 29.63-30.21, 15.5-43.7, 44.83-43.65, 77.46, 0, 15.75, 1.9, 32.19, 7.67, 47.53C417.14, 828, 431.29, 809.63, 449.94, 795.78Z"/><path id="blush_r" class="cls-6" d="M615.84, 800.25c-4.74, 25, 54.63, 23, 56.4, 6.45S619.13, 782.93, 615.84, 800.25Z"/><path id="blush_l" class="cls-6" d="M418, 811.08c-1, 21.38, 58.06, 15.55, 59.48-2.16S419.14, 785.54, 418, 811.08Z"/><path id="eye2" class="cls-7" d="M576.5, 796.39c-5.64-.62-5.06, 12.42, 1.15, 12S583.77, 797.19, 576.5, 796.39Z"/><path id="eye1" class="cls-7" d="M505.3, 796.39c5.64-.62, 5.06, 12.42-1.15, 12S498, 797.19, 505.3, 796.39Z"/><path id="mouth" class="cls-7" d="M540.73, 829a8, 8, 0, 0, 1-8-8, 1.6, 1.6, 0, 0, 1, 3.2, 0, 4.81, 4.81, 0, 0, 0, 9.61, 0, 1.6, 1.6, 0, 0, 1, 3.2, 0A8, 8, 0, 0, 1, 540.73, 829Z"/><path class="cls-8" d="M478.58, 677.59c16.39, 3.7, 32.23-1.89, 48.23-5.09a330.19, 330.19, 0, 0, 1, 57.85-6.2c4-.09, 4-6.33, 0-6.25a342.47, 342.47, 0, 0, 0-50.34, 4.73c-17.51, 3-36.28, 10.81-54.08, 6.79-3.92-.88-5.59, 5.14-1.66, 6Z"/><path class="cls-8" d="M605, 669.83a88.79, 88.79, 0, 0, 1, 33.35, 14.34c3.31, 2.31, 6.43-3.11, 3.15-5.39a93.34, 93.34, 0, 0, 0-34.85-15c-3.92-.81-5.6, 5.21-1.66, 6Z"/><path id="specs" class="cls-9" d="M687.1, 769.94c-1.8-1.79-16.53.51-23.31, 1.69a60.29, 60.29, 0, 0, 0-115.52-11.47c-5.78-2.47-11.55-1.29-15.32.1a60.29, 60.29, 0, 0, 0-115.55, 11.29c-7-1.19-21.09-3.36-22.85-1.61-7.27, 7.22-2.38, 11.17-1.76, 13.27.46, 1.54, 15.56, 3.12, 23.79, 2.64a60.3, 60.3, 0, 1, 0, 118.71-18.26c2.57-1, 6.71-2, 10.61, 0a60.3, 60.3, 0, 1, 0, 118.71, 18.24c8.11.57, 23.79-1, 24.26-2.61C689.48, 781.12, 694.37, 777.16, 687.1, 769.94Zm-210.35, 64.8a52.61, 52.61, 0, 1, 1, 52.61-52.61A52.67, 52.67, 0, 0, 1, 476.75, 834.74Zm127.66, 0A52.61, 52.61, 0, 1, 1, 657, 782.12, 52.67, 52.67, 0, 0, 1, 604.41, 834.74Z"/></g><g id="book"><path class="cls-4" d="M729.17, 934.54s12.11, 3.2, 9.23, 13.35S724.88, 952, 724.88, 952Z"/><path class="cls-4" d="M360.47, 934.54s-12.11, 3.2-9.23, 13.35S364.76, 952, 364.76, 952Z"/><path class="cls-10" d="M349.07, 882.18s27.66, 166.07, 31, 165.73, 140.34-3, 140.34-3l-1.23-161.21S440, 853.34, 349.07, 882.18Z"/><path class="cls-11" d="M519.16, 883.67l1.23, 161.21s22.62-28, 45.87, 2.13l3.8-163.23S539.11, 865.82, 519.16, 883.67Z"/><path class="cls-12" d="M570.06, 883.78, 566.25, 1047s88.79-6.29, 138.37, 7.45l36.76-168.79S644.9, 854.77, 570.06, 883.78Z"/><path class="cls-4" d="M356.6, 958.83c.85, 7.16, 41, .91, 39-6.85S355.22, 947.18, 356.6, 958.83Z"/><path class="cls-4" d="M359.37, 971.66c1.14, 7.75, 35.89, 2.21, 34.83-6.78S357.71, 960.42, 359.37, 971.66Z"/><path class="cls-4" d="M361.83, 984.06c.31, 5.85, 25.73, 3.12, 25.73-3.79S361.25, 973.19, 361.83, 984.06Z"/><path class="cls-4" d="M733, 958.83c-.85, 7.16-41, .91-39-6.85S734.42, 947.18, 733, 958.83Z"/><path class="cls-4" d="M730.27, 971.66c-1.14, 7.75-35.89, 2.21-34.83-6.78S731.93, 960.42, 730.27, 971.66Z"/><path class="cls-4" d="M727.81, 984.06c-.31, 5.85-25.73, 3.12-25.73-3.79S728.39, 973.19, 727.81, 984.06Z"/><path class="cls-13" d="M557.44, 888.5l-1.21, 45.12c-.08, 3.09, 4.72, 3.09, 4.81, 0l1.21-45.12c.08-3.09-4.72-3.09-4.81, 0Z"/><path class="cls-13" d="M556.19, 943.77l.58, 13.09c.14, 3.08, 4.94, 3.1, 4.81, 0L561, 943.77c-.14-3.08-4.94-3.1-4.81, 0Z"/><path class="cls-14" d="M616, 894c26.09-3.67, 52.36-.64, 78.34, 2.46, 4.9.58, 4.86-7.11, 0-7.69-26.78-3.19-53.51-6-80.39-2.18-4.88.69-2.8, 8.1, 2, 7.42Z"/><path class="cls-14" d="M706.73, 898.3l15.73, 2.32c4.84.71, 6.93-6.69, 2-7.42l-15.73-2.32c-4.84-.71-6.93, 6.69-2, 7.42Z"/><path class="cls-14" d="M365.46, 897.81a256.79, 256.79, 0, 0, 1, 69.94-6.6c4.95.21, 4.94-7.48, 0-7.69a264.67, 264.67, 0, 0, 0-72, 6.87c-4.81, 1.13-2.78, 8.55, 2, 7.42Z"/><path class="cls-14" d="M449, 892.48a170.15, 170.15, 0, 0, 1, 19.5, 2.81c4.83, 1, 6.9-6.43, 2-7.42A188.12, 188.12, 0, 0, 0, 449, 884.79c-4.93-.42-4.9, 7.27, 0, 7.69Z"/></g></g><g id="paper_8"><path class="cls-15" d="M653.27, 224.61s-10.42-48.89-15.79-66.34l77.68-1.49c-1.52, 5, .62, 35.67, 4.65, 44.35L658.67, 226.6Z"/><path class="cls-16" d="M660.59, 236.92s-6-.24-9.54-10c0, 0, 46-48.09, 47.45-53.27l21.31, 27.47Z"/></g><path id="paper_7" class="cls-17" d="M392, 125.69s-3.59-28.1-12.26-51.12c0, 0, 25.11-12.56, 33.19-26.91, 0, 0, 32, 16.14, 43.05, 68.76Z"/><g id="paper_6"><path class="cls-18" d="M767.81, 606.61c-21.56-10.38-35.32, 9.2-35.32, 9.2s37, 17.67, 37.48, 32, 6.89-26.76, 6.89-26.76Z"/><path class="cls-19" d="M747.13, 684.73s31.44-38.06, 20.68-78.12c0, 0, 34, 23.26, 31, 56Z"/></g><g id="paper_5"><path class="cls-20" d="M253.81, 890.61c-21.56-10.38-35.32, 9.2-35.32, 9.2s37, 17.67, 37.48, 32, 6.89-26.76, 6.89-26.76Z"/><path class="cls-21" d="M233.13, 968.73s31.44-38.06, 20.68-78.12c0, 0, 34, 23.26, 31, 56Z"/></g><path id="paper_4" class="cls-22" d="M152.08, 453.41S170.3, 501, 153.55, 534l-50.81, 6.45s10.4-47.87-6.85-77.77Z"/><path id="paper_3" class="cls-23" d="M359.23, 667.58S340.49, 616.77, 380, 582.15L321.94, 576c-39.5, 34.63-20.77, 85.43-20.77, 85.43Z"/><path id="paper_2" class="cls-24" d="M133.23, 99.58S114.49, 48.77, 154, 14.15L95.94, 8C56.44, 42.62, 75.17, 93.43, 75.17, 93.43Z"/><path id="paper_1" class="cls-25" d="M46.51, 827.27s9.31-24.93, 12.17-47.86c0, 0, 26.37.54, 39.36-7.85, 0, 0, 19.53, 27.41, 5.72, 76Z"/><g id="books_19"><path class="cls-6" d="M435, 515.09l66.59-23.61L533.29, 581c.47, 1.34-1.63, 3.3-4.69, 4.39L473.11, 605c-3.06, 1.09-5.93.88-6.41-.45Z"/><path class="cls-26" d="M492.19, 500.25, 453.34, 514c-3.06, 1.09-5.17, 3-4.69, 4.39l27.43, 77.39c.95, 2.67-3.25, 6.6-9.38, 8.77h0l-6.86-19.35-12-33.86L435, 515.09l66.59-23.61h0C502.52, 494.15, 498.32, 498.08, 492.19, 500.25Z"/><rect class="cls-26" x="461.67" y="583.02" width="70.65" height="2.57" transform="translate(-166.66 199.63) rotate(-19.52)"/><rect class="cls-26" x="459.96" y="578.18" width="70.65" height="2.57" transform="translate(-165.15 198.78) rotate(-19.52)"/><rect class="cls-26" x="438.52" y="517.72" width="70.65" height="2.57" transform="translate(-146.18 188.15) rotate(-19.52)"/><rect class="cls-26" x="436.81" y="512.88" width="70.65" height="2.57" transform="translate(-144.66 187.3) rotate(-19.52)"/><path class="cls-26" d="M475.42, 538.86l9.71-3.44c.38-.14.74-.11.8.06l9.22, 26c.06.17-.2.41-.59.55l-9.71, 3.44c-.38.14-.74.11-.8-.06l-9.22-26C474.78, 539.24, 475, 539, 475.42, 538.86Z"/></g><g id="books_18"><path class="cls-6" d="M169.64, 736.43l70.09, 8.87-11.92, 94.18c-.18, 1.41-2.94, 2.21-6.16, 1.81l-58.41-7.39c-3.23-.41-5.7-1.88-5.52-3.28Z"/><path class="cls-26" d="M227.41, 748.92l-40.89-5.18c-3.23-.41-6, .4-6.16, 1.81L170, 827c-.36, 2.81-5.87, 4.43-12.33, 3.61h0l2.58-20.36, 4.51-35.64, 4.83-38.18, 70.09, 8.87h0C239.38, 748.12, 233.86, 749.73, 227.41, 748.92Z"/><rect class="cls-26" x="192.61" y="790.82" width="2.57" height="70.65" transform="translate(-650.06 914.75) rotate(-82.79)"/><rect class="cls-26" x="193.26" y="785.73" width="2.57" height="70.65" transform="matrix(0.13,  -0.99,  0.99,  0.13,  -644.44,  910.94)"/><rect class="cls-26" x="201.31" y="722.09" width="2.57" height="70.65" transform="translate(-574.27 863.29) rotate(-82.79)"/><rect class="cls-26" x="201.96" y="717" width="2.57" height="70.65" transform="translate(-568.65 859.47) rotate(-82.79)"/><path class="cls-26" d="M195.07, 775.86l10.22, 1.29c.4.05.71.23.69.41l-3.46, 27.36c0, .18-.37.28-.77.23l-10.22-1.29c-.4-.05-.71-.23-.69-.41l3.46-27.36C194.32, 775.91, 194.66, 775.81, 195.07, 775.86Z"/></g><g id="books_17"><path class="cls-6" d="M294.24-6.35l32.14, 41.87L270.12, 78.7c-.84.64-2.72-.4-4.2-2.32L239.14, 41.49c-1.48-1.93-2-4-1.16-4.66Z"/><path class="cls-26" d="M318, 30.88, 299.24, 6.45c-1.48-1.93-3.36-3-4.2-2.32L246.38, 41.48c-1.68, 1.29-5.44-.79-8.4-4.64h0l12.16-9.34, 21.29-16.34L294.24-6.35l32.14, 41.87h0C324.7, 36.81, 320.94, 34.73, 318, 30.88Z"/><rect class="cls-26" x="258.42" y="27.29" width="1.92" height="52.78" transform="translate(20.94 169.03) rotate(-37.51)"/><rect class="cls-26" x="261.46" y="24.96" width="1.92" height="52.78" transform="translate(22.99 170.4) rotate(-37.51)"/><rect class="cls-26" x="299.47" y="-4.22" width="1.92" height="52.78" transform="translate(48.61 187.51) rotate(-37.51)"/><rect class="cls-26" x="302.51" y="-6.55" width="1.92" height="52.78" transform="translate(50.66 188.88) rotate(-37.51)"/><path class="cls-26" d="M286.68, 27.87, 291.37, 34c.18.24.25.5.14.58L275.17, 47.11c-.1.08-.34, 0-.52-.29L270, 40.71c-.18-.24-.25-.5-.14-.58l16.35-12.55C286.26, 27.5, 286.5, 27.63, 286.68, 27.87Z"/></g><g id="books_16"><path class="cls-27" d="M718.27, 262a6.94, 6.94, 0, 0, 0-8.28, 5.26L690.24, 355.8l72.29, 16.12, 18.24-81.8, 1.51-6.77, 1.51-6.77Z"/><rect class="cls-28" x="695.74" y="279.95" width="90.75" height="67.19" transform="translate(273.79 968.66) rotate(-77.43)"/><path class="cls-29" d="M763.17, 365l-63.85-14.24A6.94, 6.94, 0, 0, 0, 691, 356h0a6.94, 6.94, 0, 0, 0, 5.26, 8.28l63.85, 14.24Z"/><path class="cls-30" d="M764, 365.15l-64.72-14.43A6.94, 6.94, 0, 0, 0, 691, 356h0a6.94, 6.94, 0, 0, 0, 5.26, 8.28L761, 378.69Z"/><path class="cls-31" d="M764, 365.15l-3, 13.54L696.3, 364.26A6.94, 6.94, 0, 0, 1, 691, 356h0l67.1, 15, 1.51-6.77Z"/><path class="cls-32" d="M758.49, 340.5A4.59, 4.59, 0, 0, 1, 753, 344L717.42, 336a4.59, 4.59, 0, 0, 1-3.48-5.48h0a4.59, 4.59, 0, 0, 1, 5.48-3.48L755, 335a4.59, 4.59, 0, 0, 1, 3.48, 5.48Z"/><rect class="cls-33" x="729.23" y="280.22" width="28.47" height="45.64" transform="translate(285.88 962.73) rotate(-77.43)"/><rect class="cls-30" x="731.94" y="283.47" width="23.05" height="39.13" transform="translate(285.88 962.73) rotate(-77.43)"/><polygon class="cls-34" points="749.71 389.72 744.49 383.34 737.06 386.9 741.45 367.22 754.1 370.04 749.71 389.72"/><polygon class="cls-35" points="747.77 368.63 744.49 383.34 744.49 383.34 749.71 389.72 754.1 370.04 747.77 368.63"/><ellipse class="cls-32" cx="697.35" cy="338.31" rx="2.65" ry="1.32" transform="translate(215.37 945.31) rotate(-77.43)"/><polygon class="cls-31" points="747.05 268.38 724.1 371.31 739.76 374.8 737.06 386.9 744.49 383.34 744.49 383.34 749.71 389.72 752.4 377.62 760.78 379.49 760.96 378.68 761.01 378.69 783.78 276.57 747.05 268.38"/></g><g id="books_15"><path class="cls-36" d="M788.9, 912.82a6.94, 6.94, 0, 0, 0-8.28, 5.26l-19.75, 88.57, 72.29, 16.12L851.4, 941l1.51-6.77, 1.51-6.77Z"/><rect class="cls-37" x="766.38" y="930.81" width="90.75" height="67.19" transform="translate(-306.2 1546.81) rotate(-77.43)"/><path class="cls-29" d="M833.8, 1015.81, 770, 1001.57a6.94, 6.94, 0, 0, 0-8.28, 5.26h0a6.94, 6.94, 0, 0, 0, 5.26, 8.28l63.85, 14.24Z"/><path class="cls-30" d="M834.67, 1016, 770, 1001.57a6.94, 6.94, 0, 0, 0-8.28, 5.26h0a6.94, 6.94, 0, 0, 0, 5.26, 8.28l64.72, 14.43Z"/><path class="cls-31" d="M834.67, 1016l-3, 13.54-64.72-14.43a6.94, 6.94, 0, 0, 1-5.26-8.28h0l67.1, 15, 1.51-6.77Z"/><path class="cls-32" d="M829.13, 991.36a4.59, 4.59, 0, 0, 1-5.48, 3.48l-35.59-7.94a4.59, 4.59, 0, 0, 1-3.48-5.48h0a4.59, 4.59, 0, 0, 1, 5.48-3.48l35.59, 7.94a4.59, 4.59, 0, 0, 1, 3.48, 5.48Z"/><rect class="cls-33" x="799.86" y="931.08" width="28.47" height="45.64" transform="translate(-294.11 1540.87) rotate(-77.43)"/><rect class="cls-30" x="802.57" y="934.33" width="23.05" height="39.13" transform="translate(-294.11 1540.87) rotate(-77.43)"/><polygon class="cls-34" points="820.34 1040.58 815.13 1034.19 807.7 1037.76 812.09 1018.08 824.73 1020.89 820.34 1040.58"/><polygon class="cls-35" points="818.41 1019.48 815.13 1034.2 815.13 1034.19 820.34 1040.58 824.73 1020.89 818.41 1019.48"/><ellipse class="cls-32" cx="767.98" cy="989.17" rx="2.65" ry="1.32" transform="translate(-364.62 1523.46) rotate(-77.43)"/><polygon class="cls-31" points="817.69 919.24 794.74 1022.17 810.39 1025.66 807.7 1037.76 815.13 1034.2 815.13 1034.19 820.34 1040.58 823.04 1028.48 831.42 1030.35 831.6 1029.53 831.65 1029.54 854.42 927.43 817.69 919.24"/></g><g id="books_14"><path class="cls-30" d="M334.74, 464.76l-40.16-9.35c-.38-.09-.73-.35-1.14-1.76l-27.28-93.46c-.41-1.42-.17-1.55.21-1.45l41.42, 13.66Z"/><path class="cls-38" d="M334.37, 463.5, 280, 458.76c-.51-.05-1-.26-1.37-1.65l-26.69-91.43c-.41-1.39-.05-1.54.46-1.49l55.62, 9Z"/><path class="cls-39" d="M334.74, 464.76l28.82-29.49c.27-.28.43-.68, 0-2.1l-27.28-93.46c-.41-1.42-.69-1.39-1-1.11l-27.56, 33.8Z"/><path class="cls-40" d="M334.37, 463.5l43.29-33.26c.4-.32.67-.74.27-2.13l-26.69-91.43c-.41-1.39-.79-1.33-1.19-1L308, 373.14Z"/><path class="cls-40" d="M334.58, 464.23, 264.83, 464c-.65, 0-1.23-.19-1.63-1.57l-26.61-91.14c-.4-1.38.07-1.57.72-1.56l71, 4.39Z"/><path class="cls-41" d="M334.58, 464.23l58.7-37.69c.54-.36.93-.82.53-2.2l-26.61-91.14c-.4-1.38-.9-1.29-1.44-.93l-57.47, 41.89Z"/><path class="cls-42" d="M337, 472.49l-74.23-.74c-.69, 0-1.3-.21-1.72-1.64l-27.69-94.85c-.42-1.44, 0-1.91.69-1.9l74.23.74Z"/><path class="cls-43" d="M337, 472.49l62.17-40.56c.58-.38, 1-.87.57-2.31L372, 334.78c-.42-1.44-1-1.61-1.6-1.24L308.27, 374.1Z"/><path class="cls-44" d="M317.23, 370.7a54.53, 54.53, 0, 0, 1-18.35, 5.36l28, 95.79h0c1, 3.42, 5.92, 5, 11, 3.52s8.36-5.45, 7.37-8.87h0Z"/><circle class="cls-30" cx="332.07" cy="455.61" r="5.36" transform="translate(-114.37 111.31) rotate(-16.27)"/><polygon class="cls-30" points="373.4 379.5 340.32 398.97 334.98 380.69 368.06 361.22 373.4 379.5"/><path class="cls-45" d="M337.83, 475.36c4.79-1.4, 8-5, 7.49-8.3l53.85-35.13c.58-.38, 1-.87.57-2.31L372, 334.78c-.42-1.44-1-1.61-1.6-1.24l-2.64, 1.72-.6-2.05c-.4-1.38-.9-1.29-1.44-.93l-13, 9.5-1.49-5.1c-.41-1.39-.79-1.33-1.19-1l-11.86, 10.57-1.9-6.52c-.41-1.42-.69-1.39-1-1.11l-27.56, 33.8Z"/></g><g id="books_13"><path class="cls-46" d="M173.81, 581.09c-3, .3-5.16, 3.56-4.79, 7.27l8.84, 88.5L236.17, 671l-8.11-81.25-.67-6.72-.67-6.72Z"/><rect class="cls-47" x="178.05" y="578.23" width="53.16" height="88.94" transform="translate(-60.85 23.41) rotate(-5.7)"/><polygon class="cls-48" points="240.17 677.69 236.87 678.02 226.71 576.34 231.02 586.04 240.17 677.69"/><path class="cls-49" d="M235.49, 664.32l-52.2, 5.21c-3, .3-5.16, 3.56-4.79, 7.27h0c.37, 3.71, 3.12, 6.48, 6.13, 6.18l54.81-5.47Z"/><path class="cls-30" d="M238.8, 664l-55.51, 5.54c-3, .3-5.16, 3.56-4.79, 7.27h0c.37, 3.71, 3.12, 6.48, 6.13, 6.18l55.51-5.54Z"/><path class="cls-31" d="M178.54, 677.07c.47, 3.57, 3.15, 6.2, 6.09, 5.91l52.2-5.21-2.09-6.31Z"/><polygon class="cls-39" points="240.14 677.43 235.5 664.32 226.71 576.34 231.04 586.3 240.14 677.43"/><rect class="cls-50" x="183.14" y="598.44" width="40.04" height="19.07" transform="translate(-59.4 23.19) rotate(-5.7)"/><rect class="cls-30" x="184.93" y="600.26" width="36.45" height="15.44" transform="translate(-59.4 23.19) rotate(-5.7)"/><polygon class="cls-51" points="187.54 626.72 184.38 624.22 181.79 627.3 177.14 580.76 182.89 580.18 187.54 626.72"/><polygon class="cls-52" points="180.01 580.47 184.38 624.23 184.38 624.22 187.54 626.72 182.89 580.18 180.01 580.47"/><path class="cls-31" d="M240.64, 677.64a.73.73, 0, 0, 0, 0-.11L231.47, 586a.67.67, 0, 0, 0-.05-.21l-4.31-9.7a.44.44, 0, 0, 0-.54-.29l0, 0-27.22, 2.72, 10.26, 102.79, 30.83-3.08, 0-.06A.56.56, 0, 0, 0, 240.64, 677.64Z"/></g><g id="books_12"><path class="cls-53" d="M781.21, 9.54A5.44, 5.44, 0, 0, 0, 773.9, 12L741.69, 76l51.93, 26.13, 29.57-58.77, 2.45-4.86, 2.45-4.86Z"/><rect class="cls-54" x="752.78" y="27.01" width="71.66" height="52.74" transform="translate(386.49 733.86) rotate(-63.29)"/><polygon class="cls-48" points="794.03 108.63 791.09 107.15 828.08 33.6 827.38 42.34 794.03 108.63"/><path class="cls-49" d="M796.07, 97.24, 749.57, 73.84a5.44, 5.44, 0, 0, 0-7.31, 2.42h0a5.44, 5.44, 0, 0, 0, 2.42, 7.31l48.81, 24.56Z"/><path class="cls-30" d="M799, 98.72, 749.57, 73.84a5.44, 5.44, 0, 0, 0-7.31, 2.42h0a5.44, 5.44, 0, 0, 0, 2.42, 7.31l49.44, 24.87Z"/><path class="cls-31" d="M742.18, 76.46a5.44, 5.44, 0, 0, 0, 2.51, 7.11L791.17, 107l1.06-5.32Z"/><polygon class="cls-39" points="794.12 108.44 796.07 97.24 828.08 33.6 827.28 42.53 794.12 108.44"/><rect class="cls-50" x="786.29" y="22.86" width="15.37" height="39.73" transform="translate(398.96 732.78) rotate(-63.29)"/><rect class="cls-30" x="787.75" y="24.64" width="12.44" height="36.16" transform="translate(398.96 732.78) rotate(-63.29)"/><polygon class="cls-51" points="772.36 47.27 770.81 43.97 767.24 44.69 784.17 11.03 789.29 13.61 772.36 47.27"/><polygon class="cls-52" points="786.73 12.32 770.81 43.97 770.81 43.97 772.36 47.27 789.29 13.61 786.73 12.32"/><path class="cls-31" d="M794.44, 108.84l0-.09, 33.31-66.21a.45.45, 0, 0, 0, 0-.17l.71-8.73a.45.45, 0, 0, 0-.33-.47h-.05L803.91, 21, 766.5, 95.31, 794, 109.13v-.05A.45.45, 0, 0, 0, 794.44, 108.84Z"/></g><g id="books_11"><path class="cls-55" d="M150.79, 959.23a5.44, 5.44, 0, 0, 0-2.74, 7.2l29.31, 65.4L230.41, 1008l-26.9-60-2.23-5-2.23-5Z"/><rect class="cls-56" x="163.09" y="945.33" width="52.74" height="71.66" transform="translate(-384.68 163.28) rotate(-24.14)"/><polygon class="cls-48" points="235.73 1011.85 232.72 1013.2 199.05 938.07 205.38 944.13 235.73 1011.85"/><path class="cls-49" d="M228.18, 1003.08l-47.5, 21.28a5.44, 5.44, 0, 0, 0-2.74, 7.2h0a5.44, 5.44, 0, 0, 0, 7.19, 2.74L235, 1012Z"/><path class="cls-30" d="M231.19, 1001.73l-50.5, 22.63a5.44, 5.44, 0, 0, 0-2.74, 7.2h0a5.44, 5.44, 0, 0, 0, 7.19, 2.74l50.5-22.63Z"/><path class="cls-31" d="M178, 1031.75a5.44, 5.44, 0, 0, 0, 7.09, 2.55l47.5-21.28-3.45-4.18Z"/><polygon class="cls-39" points="235.64 1011.67 228.18 1003.08 199.05 938.07 205.46 944.33 235.64 1011.67"/><rect class="cls-50" x="164.72" y="962.6" width="39.73" height="15.37" transform="translate(-380.66 160.33) rotate(-24.14)"/><rect class="cls-30" x="166.51" y="964.06" width="36.16" height="12.44" transform="translate(-380.66 160.33) rotate(-24.14)"/><polygon class="cls-51" points="174.46 989.91 170.93 989.03 169.23 992.26 153.82 957.87 159.05 955.53 174.46 989.91"/><polygon class="cls-52" points="156.44 956.7 170.92 989.03 170.93 989.03 174.46 989.91 159.05 955.53 156.44 956.7"/><path class="cls-31" d="M236.15, 1011.66l0-.08-30.31-67.63a.45.45, 0, 0, 0-.1-.14l-6.33-6.06a.45.45, 0, 0, 0-.58, 0l0, 0L174, 948.84l34, 76, 28-12.57, 0, 0A.45.45, 0, 0, 0, 236.15, 1011.66Z"/></g><g id="books_10"><rect class="cls-57" x="584.52" y="470.71" width="148.04" height="94.09" transform="translate(-76.25 115.47) rotate(-9.48)"/><rect class="cls-31" x="657.77" y="463.05" width="74.02" height="94.09" transform="translate(-74.49 121.33) rotate(-9.48)"/><path class="cls-31" d="M665.46, 560.18l66.17-11a2.29, 2.29, 0, 0, 0, 1.88-2.63l-13.41-80.35a2.29, 2.29, 0, 0, 0-2.63-1.88l-64.94, 10.84"/><path class="cls-31" d="M651.45, 475.29l-66, 11a2.29, 2.29, 0, 0, 0-1.88, 2.64L597, 569.29a2.33, 2.33, 0, 0, 0, 2.79, 1.85l65.85-11Z"/><rect class="cls-30" x="588.98" y="472.66" width="138.42" height="86.04" rx="2.29" ry="2.29" transform="translate(-75.91 115.39) rotate(-9.48)"/><path class="cls-58" d="M665.12, 558.14l66.17-11a2.29, 2.29, 0, 0, 0, 1.88-2.63l-13.41-80.35a2.29, 2.29, 0, 0, 0-2.63-1.88l-64.94, 10.84"/><path class="cls-30" d="M651.11, 473.25l-66, 11a2.29, 2.29, 0, 0, 0-1.88, 2.63l13.41, 80.35a2.33, 2.33, 0, 0, 0, 2.79, 1.85l65.85-11Z"/><polygon class="cls-59" points="638.86 475.3 649.66 539.98 652.79 536.53 656.88 538.77 646.09 474.09 638.86 475.3"/><path class="cls-40" d="M665.27, 558.12l61.87-21.65c.58-.2.87-1.37.66-2.62L714.4, 453.5c-.21-1.25-.84-2.09-1.42-1.89l-61.87, 21.65Z"/><path class="cls-39" d="M665.27, 558.12, 717.4, 531c.48-.25.71-1.47.5-2.71L704.49, 448c-.21-1.25-.77-2.05-1.25-1.8l-52.12, 27.1Z"/><path class="cls-40" d="M615.44, 488.66a.88.88, 0, 0, 1-.73, 1l-22.16, 3.7a.88.88, 0, 0, 1-1-.73h0a.88.88, 0, 0, 1, .73-1l22.16-3.7a.88.88, 0, 0, 1, 1, .73Z"/><path class="cls-40" d="M634.74, 493.89a.88.88, 0, 0, 1-.73, 1l-40.09, 6.69a.88.88, 0, 0, 1-1-.73h0a.88.88, 0, 0, 1, .73-1l40.09-6.69a.88.88, 0, 0, 1, 1, .73Z"/><path class="cls-40" d="M635, 519.18a.88.88, 0, 0, 1-.73, 1l-36.23, 6a.88.88, 0, 0, 1-1-.73h0a.88.88, 0, 0, 1, .73-1l36.23-6a.88.88, 0, 0, 1, 1, .73Z"/><path class="cls-40" d="M640.48, 552.05a.88.88, 0, 0, 1-.73, 1l-36.23, 6a.88.88, 0, 0, 1-1-.73h0a.89.89, 0, 0, 1, .73-1l36.23-6a.89.89, 0, 0, 1, 1, .73Z"/><path class="cls-40" d="M637.48, 510.32a.88.88, 0, 0, 1-.73, 1L596.67, 518a.88.88, 0, 0, 1-1-.73h0a.89.89, 0, 0, 1, .73-1l40.09-6.69a.88.88, 0, 0, 1, 1, .73Z"/><path class="cls-40" d="M641.59, 535a.88.88, 0, 0, 1-.73, 1l-40.09, 6.69a.88.88, 0, 0, 1-1-.73h0a.88.88, 0, 0, 1, .73-1l40.09-6.69a.88.88, 0, 0, 1, 1, .73Z"/><path class="cls-40" d="M643.46, 526.22a.88.88, 0, 0, 1-.73, 1l-43.32, 7.23a.88.88, 0, 0, 1-1-.73h0a.88.88, 0, 0, 1, .73-1l43.32-7.23a.88.88, 0, 0, 1, 1, .72Z"/><path class="cls-40" d="M643.83, 500.82a.88.88, 0, 0, 1-.73, 1l-47.81, 8a.88.88, 0, 0, 1-1-.73h0a.88.88, 0, 0, 1, .73-1l47.81-8a.88.88, 0, 0, 1, 1, .73Z"/><path class="cls-40" d="M650.68, 541.9a.88.88, 0, 0, 1-.73, 1l-47.81, 8a.88.88, 0, 0, 1-1-.73h0a.88.88, 0, 0, 1, .73-1l47.81-8a.88.88, 0, 0, 1, 1, .73Z"/><path class="cls-40" d="M676.93, 469.78a1.23, 1.23, 0, 0, 1-.52, 1.23l-16.82, 9.14c-.37.2-.73, 0-.81-.51h0a1.24, 1.24, 0, 0, 1, .52-1.23l16.82-9.14c.37-.2.73, 0, .81.51Z"/><path class="cls-40" d="M691.91, 470.6a1.24, 1.24, 0, 0, 1-.51, 1.23L661, 488.37c-.37.2-.73, 0-.81-.51h0a1.24, 1.24, 0, 0, 1, .51-1.23l30.43-16.54c.36-.2.73, 0, .81.51Z"/><path class="cls-40" d="M693.09, 496.84a1.24, 1.24, 0, 0, 1-.52, 1.23L665.07, 513c-.37.2-.73, 0-.81-.51h0a1.24, 1.24, 0, 0, 1, .51-1.23l27.5-14.94c.37-.2.73, 0, .81.51Z"/><path class="cls-40" d="M698.58, 529.71a1.24, 1.24, 0, 0, 1-.52, 1.23l-27.5, 14.94c-.37.2-.73, 0-.81-.51h0a1.23, 1.23, 0, 0, 1, .52-1.23l27.5-14.94c.37-.2.73, 0, .81.51Z"/><path class="cls-40" d="M694.65, 487a1.23, 1.23, 0, 0, 1-.52, 1.23L663.7, 504.8c-.37.2-.73, 0-.81-.51h0a1.24, 1.24, 0, 0, 1, .51-1.23l30.43-16.54c.36-.2.73, 0, .81.51Z"/><path class="cls-40" d="M698.76, 511.69a1.24, 1.24, 0, 0, 1-.52, 1.23l-30.43, 16.54c-.37.2-.73, 0-.81-.51h0a1.24, 1.24, 0, 0, 1, .51-1.23L698, 511.17c.36-.2.73, 0, .81.51Z"/><path class="cls-40" d="M699.85, 502.13a1.23, 1.23, 0, 0, 1-.52, 1.23l-32.89, 17.87c-.37.2-.73, 0-.81-.51h0a1.23, 1.23, 0, 0, 1, .52-1.23L699, 501.62c.37-.2.73, 0, .81.51Z"/><path class="cls-40" d="M699.14, 475.63a1.23, 1.23, 0, 0, 1-.52, 1.23l-36.29, 19.72c-.37.2-.73, 0-.81-.51h0a1.24, 1.24, 0, 0, 1, .51-1.23l36.29-19.72c.37-.2.73, 0, .81.51Z"/><path class="cls-40" d="M706, 516.72a1.24, 1.24, 0, 0, 1-.52, 1.23l-36.29, 19.72c-.37.2-.73, 0-.81-.51h0a1.23, 1.23, 0, 0, 1, .52-1.23l36.29-19.72c.36-.2.73, 0, .81.51Z"/><polygon class="cls-34" points="657.35 537.37 653.26 535.13 650.13 538.58 639.55 475.18 646.77 473.98 657.35 537.37"/><polygon class="cls-35" points="643.16 474.58 653.26 535.13 653.26 535.13 657.35 537.37 646.77 473.98 643.16 474.58"/></g><g id="books_9"><rect class="cls-60" x="504.36" y="-3.77" width="52.33" height="82.34" transform="translate(434.91 560.57) rotate(-83.68)"/><rect class="cls-31" x="524.91" y="18.2" width="52.33" height="41.17" transform="translate(451.82 582.24) rotate(-83.68)"/><path class="cls-31" d="M527.8, 61.15l37.08, 4.11a1.27, 1.27, 0, 0, 0, 1.4-1.12l5-45a1.27, 1.27, 0, 0, 0-1.12-1.41l-36.4-4"/><path class="cls-31" d="M533.16, 13.6l-37-4.1a1.27, 1.27, 0, 0, 0-1.41, 1.13l-5, 45A1.3, 1.3, 0, 0, 0, 491, 57.07l36.91, 4.09Z"/><rect class="cls-30" x="506.72" y="-2.25" width="47.85" height="76.99" rx="1.27" ry="1.27" transform="translate(436.17 559.67) rotate(-83.68)"/><path class="cls-58" d="M527.93, 60, 565, 64.12a1.27, 1.27, 0, 0, 0, 1.4-1.12l5-45a1.27, 1.27, 0, 0, 0-1.12-1.41l-36.4-4"/><path class="cls-30" d="M533.29, 12.46l-37-4.1a1.27, 1.27, 0, 0, 0-1.41, 1.13l-5, 45a1.29, 1.29, 0, 0, 0, 1.21, 1.42L528, 60Z"/><polygon class="cls-59" points="526.42 11.7 522.4 47.95 524.61 46.58 526.45 48.4 530.47 12.15 526.42 11.7"/><path class="cls-40" d="M528, 60l36.39-2.22c.34, 0, .68-.6.75-1.3l5-45c.08-.7-.13-1.25-.47-1.23l-36.39, 2.21Z"/><path class="cls-39" d="M528, 60l32-6.61c.3-.06.6-.68.68-1.38l5-45c.08-.7-.1-1.22-.4-1.15l-32, 6.61Z"/><path class="cls-40" d="M511.86, 15.3a.49.49, 0, 0, 1-.54.43L498.9, 14.36a.49.49, 0, 0, 1-.43-.54h0a.49.49, 0, 0, 1, .54-.43l12.42, 1.38a.49.49, 0, 0, 1, .43.54Z"/><path class="cls-40" d="M521.4, 21a.49.49, 0, 0, 1-.54.43L498.39, 19a.49.49, 0, 0, 1-.43-.54h0a.49.49, 0, 0, 1, .54-.43L521, 20.48a.49.49, 0, 0, 1, .43.54Z"/><path class="cls-40" d="M517.7, 34.6a.49.49, 0, 0, 1-.54.43l-20.3-2.25a.49.49, 0, 0, 1-.43-.54h0a.49.49, 0, 0, 1, .54-.43l20.3, 2.25a.49.49, 0, 0, 1, .43.54Z"/><path class="cls-40" d="M515.66, 53a.49.49, 0, 0, 1-.54.43l-20.3-2.25a.49.49, 0, 0, 1-.43-.54h0a.49.49, 0, 0, 1, .54-.44l20.3, 2.25a.49.49, 0, 0, 1, .43.54Z"/><path class="cls-40" d="M520.38, 30.23a.49.49, 0, 0, 1-.54.43l-22.47-2.49a.49.49, 0, 0, 1-.43-.54h0a.49.49, 0, 0, 1, .54-.43l22.47, 2.49a.49.49, 0, 0, 1, .43.54Z"/><path class="cls-40" d="M518.85, 44a.49.49, 0, 0, 1-.54.43L495.84, 42a.49.49, 0, 0, 1-.43-.54h0a.49.49, 0, 0, 1, .54-.43l22.47, 2.49a.49.49, 0, 0, 1, .43.54Z"/><path class="cls-40" d="M521.17, 39.65a.49.49, 0, 0, 1-.54.43l-24.28-2.69a.49.49, 0, 0, 1-.43-.54h0a.49.49, 0, 0, 1, .54-.43l24.28, 2.69a.49.49, 0, 0, 1, .43.54Z"/><path class="cls-40" d="M525.21, 26.11a.49.49, 0, 0, 1-.54.43l-26.79-3a.49.49, 0, 0, 1-.43-.54h0a.49.49, 0, 0, 1, .54-.43l26.79, 3a.49.49, 0, 0, 1, .43.54Z"/><path class="cls-40" d="M522.66, 49.13a.49.49, 0, 0, 1-.54.43l-26.79-3a.49.49, 0, 0, 1-.43-.54h0a.49.49, 0, 0, 1, .54-.43l26.79, 3a.49.49, 0, 0, 1, .43.54Z"/><path class="cls-40" d="M547.63, 14.51a.69.69, 0, 0, 1-.46.58l-10.39, 2.34c-.23.05-.38-.13-.35-.4h0a.69.69, 0, 0, 1, .46-.58l10.39-2.35c.23-.05.38.13.35.4Z"/><path class="cls-40" d="M555.52, 17.22a.69.69, 0, 0, 1-.46.58L536.27, 22c-.23.05-.38-.13-.35-.4h0a.69.69, 0, 0, 1, .46-.58l18.79-4.24c.23-.05.38.13.35.4Z"/><path class="cls-40" d="M552.18, 31.44a.69.69, 0, 0, 1-.46.58l-17, 3.83c-.23.05-.38-.13-.35-.4h0a.69.69, 0, 0, 1, .46-.58l17-3.83c.23-.05.39.13.36.4Z"/><path class="cls-40" d="M550.14, 49.86a.69.69, 0, 0, 1-.46.58l-17, 3.83c-.23.05-.38-.13-.35-.4h0a.69.69, 0, 0, 1, .46-.58l17-3.83c.23-.05.39.13.36.4Z"/><path class="cls-40" d="M554.5, 26.43A.69.69, 0, 0, 1, 554, 27l-18.79, 4.24c-.23.05-.38-.13-.35-.4h0a.69.69, 0, 0, 1, .46-.58L554.15, 26c.23-.05.38.13.35.4Z"/><path class="cls-40" d="M553, 40.24a.69.69, 0, 0, 1-.46.58l-18.79, 4.24c-.23.05-.38-.13-.35-.4h0a.69.69, 0, 0, 1, .46-.58l18.79-4.24c.23-.05.38.13.35.4Z"/><path class="cls-40" d="M555, 35.3a.69.69, 0, 0, 1-.46.58l-20.31, 4.58c-.23.05-.38-.13-.35-.4h0a.69.69, 0, 0, 1, .46-.58l20.31-4.58c.23-.05.38.13.35.4Z"/><path class="cls-40" d="M558.63, 21a.69.69, 0, 0, 1-.46.58l-22.41, 5.06c-.23.05-.38-.13-.35-.4h0a.69.69, 0, 0, 1, .46-.58l22.41-5.06c.23-.05.38.13.35.4Z"/><path class="cls-40" d="M556.08, 44a.69.69, 0, 0, 1-.46.58l-22.41, 5.06c-.23.05-.38-.13-.35-.4h0a.68.68, 0, 0, 1, .46-.58l22.41-5.06c.23-.05.38.13.35.4Z"/><polygon class="cls-34" points="526.92 47.72 525.07 45.9 522.87 47.27 526.81 11.74 530.85 12.19 526.92 47.72"/><polygon class="cls-35" points="528.83 11.96 525.07 45.9 525.07 45.9 526.92 47.72 530.85 12.19 528.83 11.96"/></g><g id="books_8"><rect class="cls-61" x="470.37" y="347.63" width="117.62" height="22.34" transform="matrix(0.26,  -0.97,  0.97,  0.26,  45.27,  776.66)"/><rect class="cls-30" x="526.13" y="335.69" width="14.29" height="15.77" transform="translate(63.03 769.36) rotate(-74.95)"/><rect class="cls-62" x="540.6" y="293.79" width="6.12" height="22.34" transform="translate(107.99 750.79) rotate(-74.95)"/><rect class="cls-62" x="510.29" y="399.7" width="9.78" height="22.34" transform="translate(-15.36 801.71) rotate(-74.95)"/><rect class="cls-52" x="475.76" y="354.67" width="117.62" height="11.17" transform="matrix(0.26,  -0.97,  0.97,  0.26,  47.87,  782.94)"/></g><g id="books_7"><rect class="cls-63" x="491.42" y="370.85" width="117.62" height="22.34" transform="translate(41.83 818.16) rotate(-75.4)"/><rect class="cls-64" x="515.5" y="402" width="53.24" height="22.34" transform="translate(5.63 833.63) rotate(-75.4)"/><rect class="cls-30" x="524.43" y="406.37" width="35.39" height="13.6" transform="translate(5.66 833.66) rotate(-75.4)"/><rect class="cls-52" x="496.83" y="377.84" width="117.62" height="11.17" transform="translate(44.51 824.45) rotate(-75.4)"/></g><g id="books_6"><path class="cls-65" d="M161.79, 369.15l15.62-55.74c.14-.52.13-1-.86-1.65l-65-41.4c-1-.63-1.43-.42-1.58.1L94.37, 326.2Z"/><path class="cls-66" d="M161.79, 369.15l-43.92, 37.72c-.41.35-.87.55-1.86-.08l-65-41.4c-1-.63-1-1.12-.58-1.47L94.37, 326.2Z"/><path class="cls-67" d="M116, 406.79l-65-41.4c-1-.63-1-1.12-.58-1.47L94.37, 326.2Z"/><ellipse class="cls-68" cx="158.54" cy="367.08" rx="7.45" ry="5.03" transform="translate(-236.24 303.55) rotate(-57.5)"/><path class="cls-40" d="M160, 368l-42, 36.6c-.39.33-.82.52-1.76-.08l-63.4-40.39a3.2, 3.2, 0, 0, 1-.12-2.08l42.59-35.29Z"/><path class="cls-30" d="M158.54, 367.08l-41, 35.74c-.39.33-.81.52-1.76-.08L53.32, 363c-.95-.6-.77-1-.38-1.28l41-35.74Z"/><path class="cls-40" d="M80.11, 348.3a.52.52, 0, 0, 1, .11.89L66.08, 361a1.1, 1.1, 0, 0, 1-1.22, 0h0a.52.52, 0, 0, 1-.11-.89l14.13-11.82a1.1, 1.1, 0, 0, 1, 1.22, 0Z"/><path class="cls-40" d="M97.8, 342.72a.52.52, 0, 0, 1, .11.89L72.34, 365a1.1, 1.1, 0, 0, 1-1.22, 0h0a.52.52, 0, 0, 1-.11-.89l25.56-21.39a1.1, 1.1, 0, 0, 1, 1.22, 0Z"/><path class="cls-40" d="M114.1, 356.74a.52.52, 0, 0, 1, .11.89L91.1, 377a1.1, 1.1, 0, 0, 1-1.22, 0h0a.52.52, 0, 0, 1-.11-.89l23.1-19.33a1.1, 1.1, 0, 0, 1, 1.22, 0Z"/><path class="cls-40" d="M139.11, 372.67a.52.52, 0, 0, 1, .11.89l-23.1, 19.33a1.1, 1.1, 0, 0, 1-1.22, 0h0a.52.52, 0, 0, 1-.11-.89l23.1-19.33a1.1, 1.1, 0, 0, 1, 1.22, 0Z"/><path class="cls-40" d="M110.3, 350.69a.52.52, 0, 0, 1, .11.89L84.85, 373a1.1, 1.1, 0, 0, 1-1.22, 0h0a.52.52, 0, 0, 1-.11-.89l25.57-21.39a1.1, 1.1, 0, 0, 1, 1.22, 0Z"/><path class="cls-40" d="M129.07, 362.64a.52.52, 0, 0, 1, .11.89l-25.57, 21.39a1.1, 1.1, 0, 0, 1-1.22, 0h0a.52.52, 0, 0, 1-.11-.89l25.56-21.39a1.1, 1.1, 0, 0, 1, 1.22, 0Z"/><path class="cls-40" d="M124.88, 356.93a.52.52, 0, 0, 1, .11.89L97.35, 380.93a1.1, 1.1, 0, 0, 1-1.22, 0h0a.52.52, 0, 0, 1-.11-.89L123.66, 357a1.1, 1.1, 0, 0, 1, 1.22, 0Z"/><path class="cls-40" d="M109, 342.59a.52.52, 0, 0, 1, .11.89L78.59, 369a1.1, 1.1, 0, 0, 1-1.22, 0h0a.52.52, 0, 0, 1-.11-.89l30.49-25.5a1.1, 1.1, 0, 0, 1, 1.22, 0Z"/><path class="cls-40" d="M140.24, 362.51a.52.52, 0, 0, 1, .11.89l-30.49, 25.5a1.1, 1.1, 0, 0, 1-1.22, 0h0a.52.52, 0, 0, 1-.11-.89L139, 362.55a1.1, 1.1, 0, 0, 1, 1.22, 0Z"/><path class="cls-69" d="M176.56, 311.76l-65-41.4c-1-.63-1.43-.42-1.58.1L94.37, 326.2Z"/><path class="cls-58" d="M160, 368l15.41-53.57c.13-.49.13-1-.82-1.56l-63.4-40.39a3.2, 3.2, 0, 0, 0-1.93.77l-14, 53.51Z"/><path class="cls-39" d="M158.54, 367.08, 173.6, 314.8c.13-.49.13-1-.82-1.56l-62.45-39.78c-.95-.6-1.19-.29-1.33.19L93.94, 325.93Z"/><path class="cls-40" d="M107, 305.36a1.1, 1.1, 0, 0, 1, .51, 1.07l-4, 16.57c-.09.36-.45.46-.82.23h0a1.1, 1.1, 0, 0, 1-.51-1.07l4-16.57c.09-.36.45-.46.82-.23Z"/><path class="cls-40" d="M116.42, 295.94a1.1, 1.1, 0, 0, 1, .51, 1.07l-7.17, 30c-.09.36-.45.46-.82.23h0a1.1, 1.1, 0, 0, 1-.51-1.07l7.17-30c.09-.36.45-.46.82-.23Z"/><path class="cls-40" d="M134.49, 310.78a1.1, 1.1, 0, 0, 1, .51, 1.07l-6.48, 27.1c-.09.36-.45.46-.82.23h0a1.1, 1.1, 0, 0, 1-.51-1.07l6.48-27.1c.09-.36.45-.46.82-.23Z"/><path class="cls-40" d="M128.93, 303.91a1.1, 1.1, 0, 0, 1, .51, 1.07l-7.17, 30c-.09.36-.45.46-.82.23h0a1.1, 1.1, 0, 0, 1-.51-1.07l7.17-30c.09-.36.45-.46.82-.23Z"/><path class="cls-40" d="M147.69, 315.86a1.1, 1.1, 0, 0, 1, .51, 1.07l-7.17, 30c-.09.36-.45.46-.82.23h0a1.1, 1.1, 0, 0, 1-.51-1.07l7.17-30c.09-.36.45-.46.82-.23Z"/><path class="cls-40" d="M142, 309.45a1.1, 1.1, 0, 0, 1, .51, 1.07l-7.75, 32.4c-.09.36-.45.46-.82.23h0a1.1, 1.1, 0, 0, 1-.51-1.07l7.75-32.4c.09-.36.45-.46.82-.23Z"/><path class="cls-40" d="M124.06, 294.15a1.1, 1.1, 0, 0, 1, .51, 1.07L116, 331c-.09.36-.45.46-.82.23h0a1.1, 1.1, 0, 0, 1-.51-1.07l8.55-35.76c.09-.36.45-.46.82-.23Z"/><polygon class="cls-35" points="140.74 338.6 135.46 341.75 138.18 350.01 94.93 322.45 98.12 311.44 140.74 338.6"/><polygon class="cls-34" points="139.15 336.11 133.87 339.27 136.59 347.52 95.3 321.22 98.49 310.2 139.15 336.11"/><polygon class="cls-35" points="96.89 315.71 133.87 339.27 133.87 339.27 139.15 336.11 98.49 310.2 96.89 315.71"/><path class="cls-31" d="M101.08, 301.16l-3.52, 12.22-2.63, 9.08h0l-1, 3.46-23, 20L138.64, 389l17.62-15.13c2.18.14, 4.8-1.42, 6.53-4.12s2-5.74, 1-7.66l5-17.85Z"/></g><g id="books_5"><path class="cls-70" d="M301.59, 183.64v-7s37.32-3.47, 59.76, 11.48Z"/><path class="cls-32" d="M293.95, 182.9l5-3.85s30.52-5.83, 62.4, 9.11v83s-21.62-15.54-67.4-9.44Z"/><path class="cls-70" d="M421.1, 183.64v-7s-37.32-3.47-59.76, 11.48Z"/><path class="cls-32" d="M428.75, 182.9l-5-3.85s-30.52-5.83-62.4, 9.11v83s21.62-15.54, 67.4-9.44Z"/><path class="cls-71" d="M361.35, 188.12c3.48-.19, 6.12-1, 6.27-2, 0, 0, 0, 0, .06-.07l-.05, 0, .18, 0c1-.44, 5.65-1.37, 7.07-1.68l.3-.07h.06a106.6, 106.6, 0, 0, 1, 12-2.27c15.32-2.4, 26.56-2, 32.89-1a33.93, 33.93, 0, 0, 1, 6.86, 1.52, 8.13, 8.13, 0, 0, 1, 1.14.48h0a4.69, 4.69, 0, 0, 1, 1.88, 1.72, 5.77, 5.77, 0, 0, 1, .69, 3.3v73.27c0, 2.07-1.71, 4.12-3.74, 3.74a118.7, 118.7, 0, 0, 0-30.54-1.67, 127.4, 127.4, 0, 0, 0-24.5, 4c-2.6.71-5.87, 1.26-8.26, 2.55a2.63, 2.63, 0, 0, 1-1.24.31, 2.65, 2.65, 0, 0, 1-.59-.07l-.58-.21a2.62, 2.62, 0, 0, 1-1.45-2.35V189.9c0-.62.54-1.22, 1.56-1.79"/><path class="cls-72" d="M361.36, 188.12c-3.48-.19-6.12-1-6.27-2, 0, 0, 0, 0-.06-.07l.05, 0-.18, 0c-1-.44-5.65-1.37-7.07-1.68l-.3-.07h-.06a106.63, 106.63, 0, 0, 0-12-2.27c-15.32-2.4-26.57-2-32.89-1a33.92, 33.92, 0, 0, 0-6.86, 1.52, 8.1, 8.1, 0, 0, 0-1.14.48h0a4.69, 4.69, 0, 0, 0-1.88, 1.72, 5.77, 5.77, 0, 0, 0-.69, 3.3v73.27c0, 2.07, 1.71, 4.12, 3.74, 3.74a118.7, 118.7, 0, 0, 1, 30.54-1.67, 127.4, 127.4, 0, 0, 1, 24.5, 4c2.6.71, 5.87, 1.26, 8.26, 2.55a2.63, 2.63, 0, 0, 0, 1.24.31, 2.65, 2.65, 0, 0, 0, .59-.07l.58-.21a2.62, 2.62, 0, 0, 0, 1.45-2.35V189.9c0-.62-.54-1.22-1.56-1.79"/><g class="cls-73"><g class="cls-74"><path class="cls-75" d="M355.07, 200.77S347.63, 249.2, 301.59, 264h0a118.69, 118.69, 0, 0, 1, 24.71-.74, 127.4, 127.4, 0, 0, 1, 24.5, 4c2.6.71, 5.87, 1.27, 8.26, 2.55a2.61, 2.61, 0, 0, 0, .74.26, 2.67, 2.67, 0, 0, 0, .5, 0, 2.62, 2.62, 0, 0, 0, .59-.07l.58-.21a2.62, 2.62, 0, 0, 0, 1.45-2.35V200.77Z"/></g></g><path class="cls-76" d="M361.38, 188c-3.48, 0-6.3-1-6.29-1.95l0, 83c0, 1.19, 2.82, 2.15, 6.3, 2.15s6.3-1, 6.3-2.15V186c-.31, 1.09-2.82, 1.93-6.3, 1.93"/><g class="cls-77"><g class="cls-78"><path class="cls-75" d="M430, 184.62a4.7, 4.7, 0, 0, 0-1.88-1.72h0a8.1, 8.1, 0, 0, 0-1.14-.48, 33.92, 33.92, 0, 0, 0-6.86-1.52c-6.33-.93-17.57-1.35-32.89, 1a106.49, 106.49, 0, 0, 0-12, 2.27h-.06l-.3.07c-1.42.3-6.08, 1.24-7.07, 1.68l-.18, 0, .05, 0s-.06, 0-.06.06a.7.7, 0, 0, 1-.07.21c-.62, 1-3, 1.65-6.17, 1.65-3.34, 0-6.07-.91-6.27-1.83v0h0a.46.46, 0, 0, 1, 0-.09v.07l-.05, 0, .05, 0-.18, 0c-1-.44-5.65-1.37-7.07-1.68l-.3-.07h-.06a106.5, 106.5, 0, 0, 0-12-2.27c-15.32-2.4-26.56-2-32.89-1a33.93, 33.93, 0, 0, 0-6.86, 1.52, 8.13, 8.13, 0, 0, 0-1.14.48h0a4.69, 4.69, 0, 0, 0-1.88, 1.72, 5.77, 5.77, 0, 0, 0-.69, 3.3v1.38a5.77, 5.77, 0, 0, 1, .69-3.3, 4.69, 4.69, 0, 0, 1, 1.88-1.72h0a8.06, 8.06, 0, 0, 1, 1.14-.48, 33.93, 33.93, 0, 0, 1, 6.86-1.52c6.33-.93, 17.57-1.35, 32.89, 1a106.5, 106.5, 0, 0, 1, 12, 2.27h.06l.3.07c1.42.3, 6.08, 1.24, 7.07, 1.68l.18, 0a.46.46, 0, 0, 0, 0, .09h0v0c.2.92, 2.93, 1.83, 6.27, 1.83, 3.18, 0, 5.55-.7, 6.17-1.65a.7.7, 0, 0, 0, .07-.21s0, 0, .06-.06l-.05, 0, .18, 0c1-.44, 5.65-1.37, 7.07-1.68l.3-.07h.06a106.49, 106.49, 0, 0, 1, 12-2.27c15.32-2.4, 26.56-2, 32.89-1a33.92, 33.92, 0, 0, 1, 6.86, 1.52, 8, 8, 0, 0, 1, 1.14.48h0A4.7, 4.7, 0, 0, 1, 430, 186a5.77, 5.77, 0, 0, 1, .69, 3.3v-1.38a5.77, 5.77, 0, 0, 0-.69-3.3"/></g></g><path class="cls-79" d="M419.35, 190c-6.09-.89-16.92-1.3-31.68, 1-2.81.37-7.69, 1.37-10.23, 1.9a2.06, 2.06, 0, 0, 0-1.63, 2v16.75a2.06, 2.06, 0, 0, 0, 2.5, 2c6-1.31, 12.44-3.13, 19.86-3.58a103.3, 103.3, 0, 0, 1, 22.18.72, 2.06, 2.06, 0, 0, 0, 2.34-2V192.31a2.06, 2.06, 0, 0, 0-1.72-2q-.8-.13-1.62-.23"/></g><g id="books_4"><path class="cls-80" d="M219.42, 265.27, 209, 227.92l33.86-104.4a1.94, 1.94, 0, 0, 1, 3.72.08l8.72, 31.15Z"/><polygon class="cls-32" points="254.02 155.47 244.93 123.77 237.2 122.92 249.68 156.04 214.45 264.68 218.51 264.97 254.02 155.47"/><polygon class="cls-32" points="173.84 120.8 187.82 120.31 249.68 156.04 215.58 261.18 141.24 221.35 173.84 120.8"/><path class="cls-81" d="M208.12, 265.2l-74-35.85a3.88, 3.88, 0, 0, 1-1.8-4.59l33.4-103a3.88, 3.88, 0, 0, 1, 5.58-2.19L244, 154.67Z"/><path class="cls-79" d="M255.26, 154.75c-.44.71-2.77, 1.27-5.58, 1.3-3, 0-5.52-.58-5.68-1.37h0L208.21, 264.91a.47.47, 0, 0, 0-.08.24l0, 0h0c.08.81, 2.59, 1.44, 5.68, 1.41s5.64-.71, 5.66-1.54Z"/><polygon class="cls-70" points="237.2 122.92 230.13 144.75 249.68 156.04 237.2 122.92"/><polygon class="cls-82" points="249.68 156.04 194.3 120.7 193.38 123.52 249.68 156.04"/><polygon class="cls-83" points="147.1 210.4 208.09 239.94 203.45 254.24 142.46 224.7 147.1 210.4"/><g class="cls-84"><g class="cls-85"><path class="cls-75" d="M134.11, 229.35l74, 35.85L244, 154.67s-37.38, 80.59-109.86, 74.68"/></g></g></g><g id="books_3"><path class="cls-86" d="M569.8, 210.94l20.61-2.26, 4.25, 38.75a1.44, 1.44, 0, 0, 0, 1.58, 1.27h0a1.44, 1.44, 0, 0, 0, 1.27-1.58L585.8, 140.32a1.75, 1.75, 0, 0, 0-1.93-1.55L561, 141.27a1.75, 1.75, 0, 0, 0-1.55, 1.93L571.2, 250a1.44, 1.44, 0, 0, 0, 1.58, 1.27h0a1.44, 1.44, 0, 0, 0, 1.27-1.58Z"/><rect class="cls-87" x="562.73" y="218.83" width="39.01" height="20.74" transform="translate(746.53 -374.57) rotate(83.74)"/><rect class="cls-88" x="542.91" y="166.1" width="67.09" height="20.74" transform="translate(688.96 -415.8) rotate(83.74)"/><rect class="cls-89" x="534.9" y="193.89" width="106.1" height="1.87" transform="translate(717.46 -410.88) rotate(83.74)"/><polygon class="cls-89" points="566.57 155.33 569.48 151.29 565.77 147.97 583.54 146.02 584.34 153.38 566.57 155.33"/><polygon class="cls-90" points="567.13 154.86 570.18 150.72 566.31 147.34 583.47 145.45 584.3 152.98 567.13 154.86"/><polygon class="cls-91" points="583.04 152.03 569.16 153.55 571.4 150.59 567.2 147.24 566.31 147.34 570.18 150.72 567.13 154.86 583.16 153.1 583.04 152.03"/><rect class="cls-89" x="582.74" y="145.49" width="1.15" height="7.57" transform="translate(-12.81 64.55) rotate(-6.26)"/><path class="cls-92" d="M584.24, 138.75l12.07, 109.92a1.43, 1.43, 0, 0, 0, 1.22-1.57L585.8, 140.3A1.75, 1.75, 0, 0, 0, 584.24, 138.75Z"/><path class="cls-89" d="M572.73, 251.26, 560.66, 141.34a1.72, 1.72, 0, 0, 0-1.19, 1.85L571.2, 250A1.44, 1.44, 0, 0, 0, 572.73, 251.26Z"/></g><g id="books_2"><rect class="cls-93" x="31.76" y="618.66" width="109.94" height="22.92" transform="translate(664.15 363.36) rotate(73.04)"/><rect class="cls-94" x="92.44" y="660.81" width="14.3" height="22.92" transform="translate(713.58 380.92) rotate(73.04)"/><rect class="cls-94" x="48.19" y="622.7" width="74.23" height="5.45" transform="translate(658.66 361.4) rotate(73.04)"/><circle class="cls-95" cx="99.6" cy="672.29" r="3.35" transform="matrix(0.96,  -0.29,  0.29,  0.96,  -191.77,  58.29)"/><rect class="cls-96" x="42.06" y="626.29" width="109.94" height="1.38" transform="translate(668.44 351.28) rotate(73.04)"/><rect class="cls-89" x="21.55" y="632.46" width="109.94" height="1.55" transform="translate(659.9 375.34) rotate(73.04)"/></g><g id="books_1"><rect class="cls-97" x="95.98" y="921.61" width="39.01" height="17.5" transform="translate(671.07 175.22) rotate(43.42)"/><path class="cls-98" d="M135.64, 937.39a1.44, 1.44, 0, 0, 0, 2-.06h0a1.44, 1.44, 0, 0, 0-.06-2l-78-73.85a1.75, 1.75, 0, 0, 0-2.48.07L43.53, 875.87a1.75, 1.75, 0, 0, 0, .07, 2.48l78, 73.85a1.44, 1.44, 0, 1, 0, 2-2.09L95.3, 923.31l12-12.71Z"/><polygon class="cls-89" points="135.67 937.41 107.33 910.6 95.3 923.31 96.37 924.33 107.39 912.68 108.65 913.87 99.95 923.07 103.05 923.18 110.34 915.47 134.66 938.48 135.67 937.41"/><polygon class="cls-99" points="103.1 922.44 100 922.33 109.32 912.48 111.01 914.08 103.1 922.44"/><polygon class="cls-100" points="110.33 914.13 103.01 921.87 100.53 921.78 100 922.33 103.1 922.44 110.67 914.44 110.33 914.13"/><rect class="cls-89" x="108.83" y="913.21" width="2.32" height="0.5" transform="translate(657.95 174.37) rotate(43.42)"/><rect class="cls-90" x="90.85" y="897.01" width="3.33" height="23.25" transform="translate(649.84 185.06) rotate(43.42)"/><rect class="cls-90" x="87.19" y="893.54" width="3.33" height="23.25" transform="translate(646.46 186.63) rotate(43.42)"/><path class="cls-101" d="M57.39, 861.29l80.32, 76a1.43, 1.43, 0, 0, 0-.09-2l-78-73.85A1.75, 1.75, 0, 0, 0, 57.39, 861.29Z"/><path class="cls-89" d="M123.63, 952.17l-80.32-76a1.72, 1.72, 0, 0, 0, .29, 2.18l78, 73.85A1.44, 1.44, 0, 0, 0, 123.63, 952.17Z"/></g><g id="pen_4"><path class="cls-102" d="M812.12, 145.35l-.86, 1.28-6.11-4.1.86-1.28a3.68, 3.68, 0, 0, 1, 5.11-1h0A3.68, 3.68, 0, 0, 1, 812.12, 145.35Z"/><rect class="cls-103" x="756.28" y="170.19" width="64.61" height="7.36" transform="translate(205.15 732.17) rotate(-56.17)"/><polygon class="cls-104" points="767.71 211.63 756.31 222.97 755.44 222.38 761.6 207.53 767.71 211.63"/><rect class="cls-105" x="804.35" y="142.01" width="5.22" height="8.86" transform="translate(236.09 735.29) rotate(-56.17)"/><rect class="cls-106" x="804.66" y="145.38" width="1.09" height="7.36" transform="translate(233.15 735) rotate(-56.17)"/><rect class="cls-107" x="761.38" y="200.09" width="13.71" height="8.28" rx="0.27" ry="0.27" transform="translate(170.91 728.73) rotate(-56.17)"/><path class="cls-108" d="M804.35, 142.87l-1.09-.73a.81.81, 0, 0, 0-1.13.22l-12.93, 19.3a.23.23, 0, 0, 0, .06.32l.11.07a.94.94, 0, 0, 0, 1.3-.26l11.75-17.54.68.46Z"/></g><g id="pen_3"><path class="cls-109" d="M287.79, 690.22l-.47, 1.47-7-2.23.47-1.47a3.68, 3.68, 0, 0, 1, 4.62-2.39h0A3.68, 3.68, 0, 0, 1, 287.79, 690.22Z"/><rect class="cls-33" x="240.81" y="720.48" width="64.61" height="7.36" transform="translate(-499.79 764.55) rotate(-72.33)"/><polygon class="cls-110" points="263.57 766.24 255.78 780.3 254.78 779.99 256.56 764.01 263.57 766.24"/><rect class="cls-111" x="280.53" y="688.28" width="5.22" height="8.86" transform="translate(-462.83 752.2) rotate(-72.33)"/><rect class="cls-112" x="281.64" y="692.03" width="1.09" height="7.36" transform="translate(-466.36 753.39) rotate(-72.33)"/><rect class="cls-113" x="255.16" y="754.85" width="13.71" height="8.28" rx="0.27" ry="0.27" transform="translate(-540.69 778.23) rotate(-72.33)"/><path class="cls-114" d="M279.64, 690l-1.25-.4a.81.81, 0, 0, 0-1, .53l-7.05, 22.13a.23.23, 0, 0, 0, .15.29l.13, 0a.94.94, 0, 0, 0, 1.18-.61l6.41-20.12.78.25Z"/></g><g id="pen_2"><path class="cls-115" d="M445.31, 318.18l.29, 1.52-7.23, 1.38-.29-1.52a3.68, 3.68, 0, 0, 1, 2.92-4.31h0A3.68, 3.68, 0, 0, 1, 445.31, 318.18Z"/><rect class="cls-116" x="416.31" y="351.33" width="64.61" height="7.36" transform="translate(184.3 862.39) rotate(-100.84)"/><polygon class="cls-117" points="460.31 396.54 460.18 412.62 459.14 412.82 453.08 397.93 460.31 396.54"/><rect class="cls-118" x="439.79" y="318.16" width="5.22" height="8.86" transform="translate(208.78 817.77) rotate(-100.84)"/><rect class="cls-119" x="442.45" y="322" width="1.09" height="7.36" transform="translate(206.45 822.03) rotate(-100.84)"/><rect class="cls-120" x="448.63" y="386.77" width="13.71" height="8.28" rx="0.27" ry="0.27" transform="translate(157.21 911.78) rotate(-100.84)"/><path class="cls-121" d="M438, 321.88l-1.29.25a.81.81, 0, 0, 0-.64.95l4.37, 22.82a.23.23, 0, 0, 0, .27.19l.13, 0a.94.94, 0, 0, 0, .74-1.1l-4-20.74.81-.15Z"/></g><g id="pen_1"><path class="cls-122" d="M792.94, 809.38, 791.67, 808l6.59-6.06, 1.27, 1.38a4.48, 4.48, 0, 0, 1-.27, 6.33h0A4.48, 4.48, 0, 0, 1, 792.94, 809.38Z"/><rect class="cls-123" x="726.64" y="768.91" width="78.61" height="8.96" transform="translate(817.11 -313.89) rotate(47.42)"/><polygon class="cls-124" points="727.25 737.9 717.1 721.19 718.04 720.32 733.84 731.85 727.25 737.9"/><rect class="cls-125" x="789.95" y="797.58" width="6.35" height="10.78" transform="translate(847.68 -324.34) rotate(47.42)"/><rect class="cls-126" x="789.87" y="795.67" width="1.32" height="8.96" transform="translate(844.79 -323.34) rotate(47.42)"/><rect class="cls-127" x="727.51" y="735.61" width="16.68" height="10.07" rx="0.33" ry="0.33" transform="translate(783.28 -302.32) rotate(47.42)"/><path class="cls-128" d="M798.09, 800.9l1.18-1.08a1, 1, 0, 0, 0, .06-1.4L780.2, 777.61a.28.28, 0, 0, 0-.4, 0l-.12.11a1.14, 1.14, 0, 0, 0-.07, 1.61L797, 798.23l-.74.68Z"/></g></g></g></svg>