
  <svg class="loader-svg" xmlns="http://www.w3.org/2000/svg" xmlns:xlink="http://www.w3.org/1999/xlink" x="0px" y="0px"
     viewBox="0 0 116.031 116.031" style="enable-background:new 0 0 116.031 116.031;" xml:space="preserve" >
     <style type="text/css">
		.loader-wrap {
  position: absolute;
  top: 0;
  left: 0;
  right: 0;
  bottom: 0;
  background-color:#055d84;
}

.loader-svg {
  width: 250px; 
  position: absolute;
  top: 50%;
  left: 50%;
  transform: translate3d(-50%,-50%,0);
}
/*//ANIMATIONS*/


/*// Icon animation*/
@-webkit-keyframes loader {
  33%  { -webkit-transform: translate3d(0,-95px,0); }
  66%  { -webkit-transform: translate3d(-95px,-95px,0); }
  100% { -webkit-transform: translate3d(-194px,-95px,0); }
}

@keyframes loader {
  33%  { transform: translate3d(0,-95px,0); }
  66%  { transform: translate3d(-95px,-95px,0); }
  100% { transform: translate3d(-194px,-95px,0); }
}

@-moz-keyframes loader {
  33% { transform: translate3d(0,-95px,0); }
  66% { transform: translate3d(-95px,-95px,0); }
  100% { transform: translate3d(-194px,-95px,0); }
}

@-ms-keyframes loader {
  33%  { transform: translate3d(0,-95px,0); }
  66%  { transform: translate3d(-95px,-95px,0); }
  100% { transform: translate3d(-194px,-95px,0); }
}

/*// Rotate Circle*/
@-webkit-keyframes loader-rotate {
  from { -webkit-transform: rotate(0); }
  to   { -webkit-transform: rotate(360deg); }
}

@keyframes loader-rotate {
  from { transform: rotate(0); }
  to   { transform: rotate(360deg); }
}

@-moz-keyframes loader-rotate {
  from { transform: rotate(0); }
  to   { transform: rotate(360deg); }
}

@-ms-keyframes loader-rotate {
  from { transform: rotate(0); }
  to   { transform: rotate(360deg); }
}


	</style>

  <rect x="0" y="0" style="display:none;fill:#055D84;" width="116.031" height="116.031"/>
  <g id="BG">
    <path style="opacity:0.2;fill-rule:evenodd;clip-rule:evenodd;fill:#ABB6B7;" d="M58.639,0.019
      c32.031,0.344,57.718,26.589,57.374,58.62c-0.344,32.031-26.589,57.718-58.62,57.374c-32.031-0.344-57.718-26.589-57.374-58.62
      C0.363,25.362,26.608-0.325,58.639,0.019z"/>
    <path style="fill-rule:evenodd;clip-rule:evenodd;fill:#C1E0EF;" d="M58.542,9.019c27.06,0.291,48.761,22.463,48.471,49.524
      c-0.291,27.06-22.463,48.761-49.524,48.471C30.429,106.722,8.728,84.55,9.019,57.489C9.309,30.429,31.482,8.728,58.542,9.019z"/>
  </g>
  <g id="ICON-GROUP">
    <defs>
		<path id="SVGID_1_" d="M40.909,103.933C15.55,94.485,2.651,66.268,12.099,40.909c9.448-25.359,37.665-38.258,63.024-28.81
			c25.359,9.448,38.258,37.665,28.81,63.024C94.485,100.482,66.268,113.38,40.909,103.933z"/>
	</defs>
	<clipPath id="SVGID_2_">
		<use xlink:href="#SVGID_1_"  style="overflow:visible;"/>
	</clipPath>
	<g id="ICONS" style="clip-path:url(#SVGID_2_);">
    <g>
      <animateTransform 
                        id="down" 
                        attributeName="transform" 
                        attributeType="XML" 
                        type="translate" 
                        from="0,0"
                        to="0, -95"
                        dur="0.475s" 
                        calcMode="spline"
                        keySplines=".25,.1,.25,1" 
                        keyTimes="0;1"
                        begin="0s; next.end"
                         /> 
        <animateTransform 
                        id="left"
                        attributeName="transform" 
                        attributeType="XML" 
                        type="translate" 
                        from="0, -95"
                        to="-95, -95"
                        dur="0.475s" 
                        calcMode="spline"
                        keySplines=".25,.1,.25,1" 
                        keyTimes="0;1"
                        begin="0s; down.end"/> 
              <animateTransform 
                        id="next"
                        attributeName="transform" 
                        attributeType="XML" 
                        type="translate" 
                        from="-95, -95"
                        to="-194, -95"
                        dur="0.475s" 
                        calcMode="spline"
                        keySplines=".25,.1,.25,1" 
                        keyTimes="0;1"
                        begin="0s; left.end"/> 
      <g id="ICON-PAINT">
        <path style="opacity:0.6;fill:#0A3256;enable-background:new    ;" d="M62.4,86.07h-5.855c-8.051,0-14.593-6.541-14.593-14.593
          V51.99c0-0.869,0.732-1.601,1.601-1.601s1.601,0.732,1.601,1.601v19.487c0,6.267,5.123,11.39,11.39,11.39h5.81
          c6.267,0,11.39-5.123,11.39-11.39V51.99c0-0.869,0.732-1.601,1.601-1.601c0.869,0,1.601,0.732,1.601,1.601v19.487
          C76.992,79.528,70.451,86.07,62.4,86.07z"/> 
        <path style="opacity:0.6;fill:#0A3256;enable-background:new    ;" d="M49.408,69.968c-0.091,0-0.137,0-0.229-0.046
          c-8.737-1.83-14.181-5.81-14.181-10.43v-1.144h7.502c0.64,0,1.144,0.503,1.144,1.144c0,0.64-0.503,1.144-1.144,1.144h-5.032
          c1.006,2.928,5.627,5.672,12.168,7.045c0.64,0.137,1.006,0.732,0.869,1.372C50.414,69.602,49.957,69.968,49.408,69.968z"/>
        <path style="opacity:0.6;fill:#0A3256;enable-background:new    ;" d="M69.581,69.968c-0.549,0-1.006-0.366-1.098-0.915
          c-0.137-0.64,0.274-1.235,0.869-1.372c6.541-1.372,11.162-4.117,12.122-7.045h-4.986c-0.64,0-1.144-0.503-1.144-1.144
          c0-0.64,0.503-1.144,1.144-1.144h7.456v1.144c0,4.574-5.398,8.554-14.135,10.43C69.719,69.968,69.673,69.968,69.581,69.968z"/>
        <path style="opacity:0.6;fill:#0A3256;enable-background:new    ;" d="M73.058,46.455l-15.096-5.901l4.254-10.887l2.516,2.516
          l0.32-0.732l12.031,4.666L73.058,46.455z M60.936,39.273l10.841,4.209l2.379-6.084l-7.822-3.065l-0.778,1.784l-2.424-2.424
          L60.936,39.273z"/>
        <path style="opacity:0.6;fill:#0A3256;enable-background:new    ;" d="M71.137,49.383c-0.137,0-0.274-0.046-0.412-0.091
          l-12.946-5.032c-0.274-0.091-0.503-0.32-0.64-0.595s-0.137-0.595,0-0.869l1.281-3.339c0.229-0.595,0.915-0.869,1.464-0.64
          l12.946,5.032c0.274,0.091,0.503,0.32,0.64,0.595c0.137,0.274,0.137,0.595,0,0.869l-1.281,3.339
          C72.006,49.108,71.594,49.383,71.137,49.383z M59.655,42.521l10.841,4.209l0.457-1.189l-10.841-4.209L59.655,42.521z"/>
        <path style="fill:#0A3256;" d="M75.391,86.07H43.599c-0.869,0-1.601-0.732-1.601-1.601s0.732-1.601,1.601-1.601h31.793
          c0.869,0,1.601,0.732,1.601,1.601S76.26,86.07,75.391,86.07z"/>
        <path style="fill:#0A3256;" d="M58.008,56.016L58.008,56.016c-3.66-0.091-15.599-0.595-15.599-4.483
          c0-4.163,13.723-4.437,16.468-4.483l0,0c0.64,0,1.144,0.503,1.144,1.144s-0.503,1.144-1.144,1.144
          c-8.326,0.046-13.083,1.372-14.089,2.196c0.961,0.778,5.352,2.013,13.22,2.196c0.64,0,1.144,0.549,1.144,1.144
          C59.152,55.512,58.649,56.016,58.008,56.016z"/>
        <path style="fill:#0A3256;" d="M64.641,55.833c-0.595,0-1.098-0.457-1.144-1.052c-0.046-0.64,0.412-1.189,1.052-1.235
          c5.947-0.412,8.829-1.418,9.561-2.013c-0.457-0.32-1.693-0.915-4.391-1.418c-0.64-0.091-1.052-0.686-0.915-1.327
          c0.137-0.64,0.686-1.052,1.327-0.915c4.391,0.778,6.404,1.967,6.404,3.66c0,2.836-6.45,3.888-11.848,4.3H64.641z"/>
        <path style="opacity:0.6;fill:#0A3256;enable-background:new    ;" d="M64.595,55.878h-6.541c-0.366,0-0.686-0.183-0.915-0.457
          c-0.229-0.274-0.274-0.64-0.183-1.006c1.052-3.934,1.098-7.822,0.091-10.933c-0.137-0.412,0-0.869,0.32-1.189
          c0.32-0.32,0.778-0.412,1.189-0.229l12.946,5.032c0.32,0.137,0.595,0.412,0.686,0.732c0.091,0.32,0.046,0.686-0.137,1.006
          c-0.091,0.137-0.229,0.274-0.412,0.366c-2.241,1.281-4.391,3.385-6.13,6.13C65.327,55.695,64.961,55.878,64.595,55.878z
           M59.518,53.591h4.483c1.372-2.059,2.973-3.751,4.712-5.078l-8.874-3.477C60.25,47.69,60.158,50.618,59.518,53.591z"/>
        <path style="opacity:0.8;fill:#0A3256;enable-background:new    ;" d="M67.752,73.627H51.284c-1.647,0-3.019-1.327-3.019-3.019
          v-1.555c0-1.647,1.327-3.019,3.019-3.019h16.468c1.647,0,3.019,1.327,3.019,3.019v1.555
          C70.725,72.255,69.399,73.627,67.752,73.627z M51.238,68.321c-0.412,0-0.732,0.32-0.732,0.732v1.555
          c0,0.412,0.32,0.732,0.732,0.732h16.468c0.412,0,0.732-0.32,0.732-0.732v-1.555c0-0.412-0.32-0.732-0.732-0.732H51.238z"/>
        <path style="opacity:0.6;fill:#0A3256;enable-background:new    ;" d="M62.4,86.07h-5.855c-8.051,0-14.593-6.541-14.593-14.593
          c0-0.869,0.732-1.601,1.601-1.601s1.601,0.732,1.601,1.601c0,6.267,5.123,11.39,11.39,11.39h5.81
          c6.267,0,11.39-5.123,11.39-11.39V51.99c0-0.869,0.732-1.601,1.601-1.601c0.869,0,1.601,0.732,1.601,1.601v19.487
          C76.992,79.528,70.451,86.07,62.4,86.07z"/>
        <path style="fill:#0A3256;" d="M58.008,56.016L58.008,56.016c-3.66-0.091-15.599-0.595-15.599-4.483
          c0-0.64,0.503-1.144,1.144-1.144c0.595,0,1.052,0.457,1.144,1.006c0.595,0.732,5.032,2.15,13.312,2.287
          c0.64,0,1.144,0.549,1.144,1.144C59.152,55.512,58.649,56.016,58.008,56.016z"/>
        <path style="fill:#0A3256;" d="M64.641,55.833c-0.595,0-1.098-0.457-1.144-1.052c-0.046-0.64,0.412-1.189,1.052-1.235
          c1.647-0.137,3.156-0.274,4.529-0.503c0.64-0.091,1.189,0.32,1.327,0.961c0.091,0.64-0.32,1.189-0.961,1.327
          c-1.418,0.229-3.019,0.412-4.712,0.549C64.687,55.833,64.641,55.833,64.641,55.833z"/>
        <path style="opacity:0.6;fill:#0A3256;enable-background:new    ;" d="M49.408,69.968c-0.091,0-0.137,0-0.229-0.046
          c-5.718-1.189-10.11-3.339-12.397-6.038c-0.412-0.503-0.366-1.189,0.137-1.601c0.457-0.412,1.189-0.366,1.601,0.137
          c1.921,2.287,5.993,4.209,11.162,5.306c0.64,0.137,1.006,0.732,0.869,1.372C50.414,69.602,49.957,69.968,49.408,69.968z"/>
        <path style="opacity:0.6;fill:#0A3256;enable-background:new    ;" d="M81.201,64.433c-0.274,0-0.549-0.091-0.778-0.274
          c-0.457-0.412-0.503-1.144-0.091-1.601c0.549-0.64,0.961-1.235,1.144-1.876h-5.032c-0.64,0-1.144-0.503-1.144-1.144
          c0-0.64,0.503-1.144,1.144-1.144h7.502v1.144c0,1.601-0.64,3.156-1.921,4.574C81.795,64.341,81.475,64.433,81.201,64.433z"/>
        <path style="opacity:0.8;fill:#0A3256;enable-background:new    ;" d="M67.752,73.627H51.284c-0.64,0-1.144-0.503-1.144-1.144
          s0.503-1.144,1.144-1.144h16.468c0.412,0,0.732-0.32,0.732-0.732v-1.555c0-0.412-0.32-0.732-0.732-0.732
          c-0.64,0-1.144-0.503-1.144-1.144s0.503-1.144,1.144-1.144c1.647,0,3.019,1.327,3.019,3.019v1.555
          C70.725,72.255,69.399,73.627,67.752,73.627z"/>
        <path style="opacity:0.6;fill:#0A3256;enable-background:new    ;" d="M64.595,55.878h-6.541c-0.366,0-0.686-0.183-0.915-0.457
          c-0.229-0.274-0.274-0.64-0.183-1.006c1.052-3.934,1.098-7.822,0.091-10.933c-0.183-0.595,0.137-1.235,0.732-1.418
          c0.595-0.183,1.235,0.137,1.418,0.732c1.006,3.111,1.098,6.907,0.274,10.75h4.483c1.876-2.745,4.117-4.895,6.496-6.313
          c0.366-0.229,0.869-0.274,1.281,0c0.503,0.366,0.64,1.052,0.32,1.555c-0.091,0.137-0.229,0.274-0.412,0.366
          c-2.241,1.281-4.391,3.385-6.13,6.13C65.327,55.695,64.961,55.878,64.595,55.878z"/>
        <path style="opacity:0.6;fill:#0A3256;enable-background:new    ;" d="M75.62,37.901c-0.137,0-0.274-0.046-0.412-0.091
          l-8.92-3.477l-0.778,1.784l-2.424-2.424l-0.732,1.921c-0.229,0.595-0.869,0.869-1.464,0.64c-0.595-0.229-0.869-0.915-0.64-1.464
          l1.967-5.123l2.516,2.516l0.32-0.732l10.979,4.254c0.595,0.229,0.869,0.915,0.64,1.464C76.489,37.626,76.077,37.901,75.62,37.901
          z"/>
      </g>
      <g id="ICON-PAINT_1_">
        <path style="opacity:0.6;fill:#0A3256;enable-background:new    ;" d="M256.942,181.596h-5.855
          c-8.051,0-14.593-6.541-14.593-14.593v-19.487c0-0.869,0.732-1.601,1.601-1.601c0.869,0,1.601,0.732,1.601,1.601v19.487
          c0,6.267,5.123,11.39,11.39,11.39h5.81c6.267,0,11.39-5.123,11.39-11.39v-19.487c0-0.869,0.732-1.601,1.601-1.601
          c0.869,0,1.601,0.732,1.601,1.601v19.487C271.535,175.054,264.993,181.596,256.942,181.596z"/>
        <path style="opacity:0.6;fill:#0A3256;enable-background:new    ;" d="M243.951,165.493c-0.091,0-0.137,0-0.229-0.046
          c-8.737-1.83-14.181-5.81-14.181-10.43v-1.144h7.502c0.64,0,1.144,0.503,1.144,1.144s-0.503,1.144-1.144,1.144h-5.032
          c1.006,2.928,5.627,5.672,12.168,7.045c0.64,0.137,1.006,0.732,0.869,1.372C244.957,165.128,244.499,165.493,243.951,165.493z"/>
        <path style="opacity:0.6;fill:#0A3256;enable-background:new    ;" d="M264.124,165.493c-0.549,0-1.006-0.366-1.098-0.915
          c-0.137-0.64,0.274-1.235,0.869-1.372c6.541-1.372,11.162-4.117,12.122-7.045h-4.986c-0.64,0-1.144-0.503-1.144-1.144
          s0.503-1.144,1.144-1.144h7.456v1.144c0,4.574-5.398,8.554-14.135,10.43C264.261,165.493,264.215,165.493,264.124,165.493z"/>
        <path style="opacity:0.6;fill:#0A3256;enable-background:new    ;" d="M267.601,141.981l-15.096-5.901l4.254-10.887l2.516,2.516
          l0.32-0.732l12.031,4.666L267.601,141.981z M255.478,134.799l10.841,4.209l2.379-6.084l-7.822-3.065l-0.778,1.784l-2.424-2.424
          L255.478,134.799z"/>
        <path style="opacity:0.6;fill:#0A3256;enable-background:new    ;" d="M265.679,144.908c-0.137,0-0.274-0.046-0.412-0.091
          l-12.946-5.032c-0.274-0.091-0.503-0.32-0.64-0.595c-0.137-0.274-0.137-0.595,0-0.869l1.281-3.339
          c0.229-0.595,0.915-0.869,1.464-0.64l12.946,5.032c0.274,0.091,0.503,0.32,0.64,0.595c0.137,0.274,0.137,0.595,0,0.869
          l-1.281,3.339C266.548,144.634,266.137,144.908,265.679,144.908z M254.197,138.047l10.841,4.209l0.457-1.189l-10.841-4.208
          L254.197,138.047z"/>
        <path style="fill:#0A3256;" d="M269.934,181.596h-31.793c-0.869,0-1.601-0.732-1.601-1.601s0.732-1.601,1.601-1.601h31.793
          c0.869,0,1.601,0.732,1.601,1.601S270.803,181.596,269.934,181.596z"/>
        <path style="fill:#0A3256;" d="M252.551,151.541L252.551,151.541c-3.66-0.091-15.599-0.595-15.599-4.483
          c0-4.163,13.723-4.437,16.468-4.483l0,0c0.64,0,1.144,0.503,1.144,1.144s-0.503,1.144-1.144,1.144
          c-8.326,0.046-13.083,1.372-14.089,2.196c0.961,0.778,5.352,2.013,13.22,2.196c0.64,0,1.144,0.549,1.144,1.144
          C253.694,151.038,253.191,151.541,252.551,151.541z"/>
        <path style="fill:#0A3256;" d="M259.184,151.358c-0.595,0-1.098-0.457-1.144-1.052c-0.046-0.64,0.412-1.189,1.052-1.235
          c5.947-0.412,8.829-1.418,9.561-2.013c-0.457-0.32-1.693-0.915-4.391-1.418c-0.64-0.091-1.052-0.686-0.915-1.327
          s0.686-1.052,1.327-0.915c4.391,0.778,6.404,1.967,6.404,3.66c0,2.836-6.45,3.888-11.848,4.3H259.184z"/>
        <path style="opacity:0.6;fill:#0A3256;enable-background:new    ;" d="M259.138,151.404h-6.541c-0.366,0-0.686-0.183-0.915-0.457
          c-0.229-0.274-0.274-0.64-0.183-1.006c1.052-3.934,1.098-7.822,0.091-10.933c-0.137-0.412,0-0.869,0.32-1.189
          c0.32-0.32,0.778-0.412,1.189-0.229l12.946,5.032c0.32,0.137,0.595,0.412,0.686,0.732c0.091,0.32,0.046,0.686-0.137,1.006
          c-0.091,0.137-0.229,0.274-0.412,0.366c-2.241,1.281-4.391,3.385-6.13,6.13C259.87,151.221,259.504,151.404,259.138,151.404z
           M254.06,149.117h4.483c1.372-2.059,2.973-3.751,4.712-5.078l-8.874-3.477C254.792,143.216,254.701,146.143,254.06,149.117z"/>
        <path style="opacity:0.8;fill:#0A3256;enable-background:new    ;" d="M262.294,169.153h-16.468
          c-1.647,0-3.019-1.327-3.019-3.019v-1.555c0-1.647,1.327-3.019,3.019-3.019h16.468c1.647,0,3.019,1.327,3.019,3.019v1.555
          C265.268,167.781,263.941,169.153,262.294,169.153z M245.78,163.847c-0.412,0-0.732,0.32-0.732,0.732v1.555
          c0,0.412,0.32,0.732,0.732,0.732h16.468c0.412,0,0.732-0.32,0.732-0.732v-1.555c0-0.412-0.32-0.732-0.732-0.732H245.78z"/>
        <path style="opacity:0.6;fill:#0A3256;enable-background:new    ;" d="M256.942,181.596h-5.855
          c-8.051,0-14.593-6.541-14.593-14.593c0-0.869,0.732-1.601,1.601-1.601c0.869,0,1.601,0.732,1.601,1.601
          c0,6.267,5.123,11.39,11.39,11.39h5.81c6.267,0,11.39-5.123,11.39-11.39v-19.487c0-0.869,0.732-1.601,1.601-1.601
          c0.869,0,1.601,0.732,1.601,1.601v19.487C271.535,175.054,264.993,181.596,256.942,181.596z"/>
        <path style="fill:#0A3256;" d="M252.551,151.541L252.551,151.541c-3.66-0.091-15.599-0.595-15.599-4.483
          c0-0.64,0.503-1.144,1.144-1.144c0.595,0,1.052,0.457,1.144,1.006c0.595,0.732,5.032,2.15,13.312,2.287
          c0.64,0,1.144,0.549,1.144,1.144C253.694,151.038,253.191,151.541,252.551,151.541z"/>
        <path style="fill:#0A3256;" d="M259.184,151.358c-0.595,0-1.098-0.457-1.144-1.052c-0.046-0.64,0.412-1.189,1.052-1.235
          c1.647-0.137,3.156-0.274,4.529-0.503c0.64-0.091,1.189,0.32,1.327,0.961c0.091,0.64-0.32,1.189-0.961,1.327
          c-1.418,0.229-3.019,0.412-4.712,0.549C259.229,151.358,259.184,151.358,259.184,151.358z"/>
        <path style="opacity:0.6;fill:#0A3256;enable-background:new    ;" d="M243.951,165.493c-0.091,0-0.137,0-0.229-0.046
          c-5.718-1.189-10.11-3.339-12.397-6.038c-0.412-0.503-0.366-1.189,0.137-1.601c0.457-0.412,1.189-0.366,1.601,0.137
          c1.921,2.287,5.993,4.209,11.162,5.306c0.64,0.137,1.006,0.732,0.869,1.372C244.957,165.128,244.499,165.493,243.951,165.493z"/>
        <path style="opacity:0.6;fill:#0A3256;enable-background:new    ;" d="M275.743,159.958c-0.274,0-0.549-0.091-0.778-0.274
          c-0.457-0.412-0.503-1.144-0.091-1.601c0.549-0.64,0.961-1.235,1.144-1.876h-5.032c-0.64,0-1.144-0.503-1.144-1.144
          s0.503-1.144,1.144-1.144h7.502v1.144c0,1.601-0.64,3.156-1.921,4.574C276.338,159.867,276.018,159.958,275.743,159.958z"/>
        <path style="opacity:0.8;fill:#0A3256;enable-background:new    ;" d="M262.294,169.153h-16.468c-0.64,0-1.144-0.503-1.144-1.144
          s0.503-1.144,1.144-1.144h16.468c0.412,0,0.732-0.32,0.732-0.732v-1.555c0-0.412-0.32-0.732-0.732-0.732
          c-0.64,0-1.144-0.503-1.144-1.144s0.503-1.144,1.144-1.144c1.647,0,3.019,1.327,3.019,3.019v1.555
          C265.268,167.781,263.941,169.153,262.294,169.153z"/>
        <path style="opacity:0.6;fill:#0A3256;enable-background:new    ;" d="M259.138,151.404h-6.541c-0.366,0-0.686-0.183-0.915-0.457
          c-0.229-0.274-0.274-0.64-0.183-1.006c1.052-3.934,1.098-7.822,0.091-10.933c-0.183-0.595,0.137-1.235,0.732-1.418
          c0.595-0.183,1.235,0.137,1.418,0.732c1.006,3.111,1.098,6.907,0.274,10.75h4.483c1.876-2.745,4.117-4.895,6.496-6.313
          c0.366-0.229,0.869-0.274,1.281,0c0.503,0.366,0.64,1.052,0.32,1.555c-0.091,0.137-0.229,0.274-0.412,0.366
          c-2.242,1.281-4.392,3.385-6.13,6.13C259.87,151.221,259.504,151.404,259.138,151.404z"/>
        <path style="opacity:0.6;fill:#0A3256;enable-background:new    ;" d="M270.162,133.426c-0.137,0-0.274-0.046-0.412-0.091
          l-8.92-3.477l-0.778,1.784l-2.424-2.424l-0.732,1.921c-0.229,0.595-0.869,0.869-1.464,0.64c-0.595-0.229-0.869-0.915-0.64-1.464
          l1.967-5.123l2.516,2.516l0.32-0.732l10.979,4.254c0.595,0.229,0.869,0.915,0.64,1.464
          C271.031,133.152,270.62,133.426,270.162,133.426z"/>
      </g>
      <g id="ICON-ALBUM_1_">
        <path style="opacity:0.7;fill:#0A3256;enable-background:new    ;" d="M36.614,173.651c-0.369,0-0.739-0.138-1.015-0.369
          c-0.369-0.323-0.6-0.785-0.6-1.246V140.28c0-0.785,0.554-1.431,1.292-1.569l23.632-4.523c0.462-0.092,0.969,0.046,1.339,0.323
          c0.369,0.323,0.6,0.785,0.6,1.246v31.756c0,0.785-0.554,1.431-1.292,1.569l-23.632,4.523
          C36.799,173.651,36.706,173.651,36.614,173.651z M38.23,141.619v28.433l20.401-3.923v-28.433L38.23,141.619z"/>
        <path style="opacity:0.7;fill:#0A3256;enable-background:new    ;" d="M83.833,173.651c-0.092,0-0.185,0-0.323-0.046
          l-23.586-4.523c-0.739-0.138-1.292-0.831-1.292-1.569v-31.756c0-0.462,0.231-0.923,0.6-1.246
          c0.369-0.323,0.877-0.415,1.339-0.323l23.632,4.523c0.739,0.138,1.292,0.831,1.292,1.569v31.756c0,0.462-0.231,0.923-0.6,1.246
          C84.571,173.559,84.202,173.651,83.833,173.651z M61.862,166.174l20.401,3.923v-28.433l-20.401-3.923V166.174z"/>
        <line style="fill:none;" x1="44.184" y1="179.467" x2="76.263" y2="179.467"/>
        <path style="fill:#0A3256;" d="M76.263,181.083H44.184c-0.877,0-1.615-0.739-1.615-1.615s0.739-1.615,1.615-1.615h32.079
          c0.877,0,1.615,0.739,1.615,1.615S77.186,181.083,76.263,181.083z"/>
        <path style="opacity:0.8;fill:#0A3256;enable-background:new    ;" d="M42.338,165.759c-0.277,0-0.508-0.092-0.739-0.277
          c-0.277-0.231-0.415-0.554-0.415-0.877v-19.109c0-0.554,0.415-1.015,0.923-1.154l12.139-2.354
          c0.323-0.046,0.692,0.046,0.969,0.231c0.277,0.185,0.415,0.554,0.415,0.877v19.201c0,0.554-0.415,1.015-0.923,1.154
          l-12.139,2.354C42.476,165.759,42.43,165.759,42.338,165.759z M43.491,146.465v16.755l9.831-1.892v-16.755L43.491,146.465z"/>
        <path style="opacity:0.8;fill:#0A3256;enable-background:new    ;" d="M78.109,165.805c-0.092,0-0.138,0-0.231,0l-12.139-2.354
          c-0.554-0.092-0.923-0.6-0.923-1.154v-6.647c0-0.323,0.138-0.692,0.415-0.877c0.277-0.231,0.6-0.323,0.969-0.231l12.139,2.354
          c0.554,0.092,0.923,0.6,0.923,1.154v6.647c0,0.323-0.138,0.692-0.415,0.877C78.663,165.712,78.386,165.805,78.109,165.805z
           M67.124,161.328l9.831,1.892v-4.293l-9.831-1.892L67.124,161.328L67.124,161.328z"/>
        <path style="fill:#0A3256;" d="M70.309,152.281c-0.092,0-0.138,0-0.231,0l-4.339-0.831c-0.554-0.092-0.923-0.6-0.923-1.154
          v-7.108c0-0.323,0.138-0.692,0.415-0.877c0.277-0.231,0.6-0.323,0.969-0.231l4.339,0.831c0.554,0.092,0.923,0.6,0.923,1.154
          v7.108c0,0.323-0.138,0.692-0.415,0.877C70.816,152.189,70.586,152.281,70.309,152.281z M67.124,149.327l2.031,0.369v-4.708
          l-2.031-0.369V149.327z"/>
        <path style="fill:#0A3256;" d="M78.109,153.804c-0.092,0-0.138,0-0.231,0l-4.339-0.831c-0.554-0.092-0.923-0.6-0.923-1.154
          v-7.108c0-0.323,0.138-0.692,0.415-0.877c0.277-0.231,0.6-0.323,0.969-0.231l4.339,0.831c0.554,0.092,0.923,0.6,0.923,1.154
          v7.108c0,0.323-0.138,0.692-0.415,0.877C78.663,153.712,78.386,153.804,78.109,153.804z M74.924,150.85l2.031,0.369v-4.754
          l-2.031-0.369V150.85z"/>
        <path style="opacity:0.7;fill:#0A3256;enable-background:new    ;" d="M36.614,173.651c-0.877,0-1.615-0.739-1.615-1.615v-31.71
          c0-0.785,0.554-1.431,1.292-1.569l13.57-2.585c0.877-0.185,1.708,0.415,1.892,1.292c0.185,0.877-0.415,1.708-1.292,1.892
          l-12.232,2.308v30.417C38.23,172.959,37.491,173.651,36.614,173.651z"/>
        <path style="opacity:0.7;fill:#0A3256;enable-background:new    ;" d="M83.833,173.651c-0.092,0-0.185,0-0.323-0.046
          l-11.124-2.123c-0.877-0.185-1.431-1.015-1.292-1.892c0.185-0.877,1.015-1.431,1.892-1.292l9.231,1.754v-16.155
          c0-0.877,0.739-1.615,1.615-1.615c0.877,0,1.615,0.738,1.615,1.615v18.14c0,0.462-0.231,0.923-0.6,1.246
          C84.571,173.559,84.202,173.651,83.833,173.651z"/>
        <path style="opacity:0.8;fill:#0A3256;enable-background:new    ;" d="M42.338,165.759c-0.277,0-0.508-0.092-0.739-0.277
          c-0.277-0.231-0.415-0.554-0.415-0.877v-19.109c0-0.646,0.508-1.154,1.154-1.154c0.646,0,1.154,0.508,1.154,1.154v17.724
          l10.801-2.077c0.646-0.138,1.246,0.277,1.339,0.923s-0.277,1.246-0.923,1.339l-12.139,2.354
          C42.476,165.759,42.43,165.759,42.338,165.759z"/>
        <path style="opacity:0.8;fill:#0A3256;enable-background:new    ;" d="M65.97,163.451c-0.646,0-1.154-0.508-1.154-1.154v-6.647
          c0-0.646,0.508-1.154,1.154-1.154c0.646,0,1.154,0.508,1.154,1.154v6.647C67.124,162.943,66.616,163.451,65.97,163.451z"/>
        <path style="opacity:0.8;fill:#0A3256;enable-background:new    ;" d="M78.109,165.805c-0.092,0-0.138,0-0.231,0l-4.57-0.923
          c-0.646-0.138-1.015-0.739-0.923-1.339c0.138-0.646,0.739-1.015,1.339-0.923l3.185,0.6v-5.216c0-0.646,0.508-1.154,1.154-1.154
          s1.154,0.508,1.154,1.154v6.647c0,0.323-0.138,0.692-0.415,0.877C78.663,165.712,78.386,165.805,78.109,165.805z"/>
        <path style="fill:#0A3256;" d="M70.309,152.281c-0.092,0-0.138,0-0.231,0l-4.339-0.831c-0.646-0.138-1.015-0.739-0.923-1.339
          c0.138-0.646,0.739-1.015,1.339-0.923l2.954,0.554v-5.723c0-0.646,0.508-1.154,1.154-1.154c0.646,0,1.2,0.508,1.2,1.154v7.108
          c0,0.323-0.138,0.692-0.415,0.877C70.816,152.189,70.586,152.281,70.309,152.281z"/>
        <path style="fill:#0A3256;" d="M73.77,152.973c-0.646,0-1.154-0.508-1.154-1.154v-7.108c0-0.323,0.138-0.692,0.415-0.877
          c0.277-0.231,0.6-0.323,0.969-0.231l4.339,0.831c0.646,0.138,1.015,0.739,0.923,1.339c-0.138,0.646-0.739,1.015-1.339,0.923
          l-2.954-0.554v5.723C74.924,152.419,74.417,152.973,73.77,152.973z"/>
        <line style="fill:none;" x1="56.554" y1="179.467" x2="76.263" y2="179.467"/>
        <path style="fill:#0A3256;" d="M76.263,181.083H56.554c-0.877,0-1.615-0.739-1.615-1.615s0.739-1.615,1.615-1.615h19.755
          c0.877,0,1.615,0.739,1.615,1.615S77.186,181.083,76.263,181.083z"/>
      </g>
      <g id="ICON-DATE_1_">
        <path style="opacity:0.6;fill:#0A3256;enable-background:new    ;" d="M169.386,178.526h-26.744c-4.292,0-7.77-3.479-7.77-7.77
          v-26.744c0-4.292,3.479-7.77,7.77-7.77h26.744c4.292,0,7.77,3.479,7.77,7.77v26.744
          C177.157,175.048,173.678,178.526,169.386,178.526z M142.642,139.449c-2.53,0-4.608,2.078-4.608,4.608v26.744
          c0,2.53,2.078,4.608,4.608,4.608h26.744c2.53,0,4.608-2.078,4.608-4.608v-26.789c0-2.53-2.078-4.608-4.608-4.608h-26.744V139.449
          z"/>
        <path style="opacity:0.6;fill:#0A3256;enable-background:new    ;" d="M169.386,178.526h-26.744c-4.292,0-7.77-3.479-7.77-7.77
          c0-0.858,0.723-1.581,1.581-1.581c0.858,0,1.581,0.723,1.581,1.581c0,2.53,2.078,4.608,4.608,4.608h26.744
          c2.53,0,4.608-2.078,4.608-4.608v-6.054c0-0.858,0.723-1.581,1.581-1.581c0.858,0,1.581,0.723,1.581,1.581v6.054
          C177.157,175.048,173.678,178.526,169.386,178.526z"/>
        <path style="opacity:0.6;fill:#0A3256;enable-background:new    ;" d="M175.575,145.593c-0.858,0-1.581-0.723-1.581-1.581
          c0-2.53-2.078-4.608-4.608-4.608c-0.858,0-1.581-0.723-1.581-1.581s0.723-1.581,1.581-1.581c4.292,0,7.77,3.479,7.77,7.77
          C177.157,144.915,176.434,145.593,175.575,145.593z"/>
        <path style="opacity:0.6;fill:#0A3256;enable-background:new    ;" d="M175.53,151.601h-39.077c-0.858,0-1.581-0.723-1.581-1.581
          c0-0.858,0.723-1.581,1.581-1.581h39.077c0.858,0,1.581,0.723,1.581,1.581C177.111,150.879,176.389,151.601,175.53,151.601z"/>
        <path style="opacity:0.6;fill:#0A3256;enable-background:new    ;" d="M155.517,172.924c-0.813,0-1.31,0-4.201-5.331
          c-1.852-3.433-2.801-5.963-2.801-7.499c0-3.885,3.162-7.002,7.002-7.002s7.002,3.162,7.002,7.002
          c0,1.536-0.949,4.066-2.801,7.499C156.827,172.924,156.33,172.924,155.517,172.924z M155.517,156.255
          c-2.123,0-3.84,1.717-3.84,3.84c0,1.626,2.349,6.008,3.84,8.493c1.491-2.485,3.84-6.867,3.84-8.493
          C159.357,158.016,157.641,156.255,155.517,156.255z"/>
        <path style="opacity:0.6;fill:#0A3256;enable-background:new    ;" d="M160.984,161.721c-0.858,0-1.581-0.723-1.581-1.581
          c0-2.123-1.717-3.84-3.84-3.84c-2.123,0-3.84,1.717-3.84,3.84c0,0.858-0.723,1.581-1.581,1.581c-0.858,0-1.581-0.723-1.581-1.581
          c0-3.885,3.162-7.002,7.002-7.002c3.84,0,7.002,3.162,7.002,7.002C162.52,160.998,161.842,161.721,160.984,161.721z"/>
        <path style="opacity:0.4;fill:#0A3256;enable-background:new    ;" d="M151.497,143.289c-0.858,0-1.581-0.723-1.581-1.581v-7.951
          c0-0.858,0.723-1.581,1.581-1.581c0.858,0,1.581,0.723,1.581,1.581v7.951C153.078,142.611,152.4,143.289,151.497,143.289z"/>
        <path style="opacity:0.4;fill:#0A3256;enable-background:new    ;" d="M160.532,143.289c-0.858,0-1.581-0.723-1.581-1.581v-7.951
          c0-0.858,0.723-1.581,1.581-1.581c0.858,0,1.581,0.723,1.581,1.581v7.951C162.113,142.611,161.435,143.289,160.532,143.289z"/>
      </g>
      </g>
    </g>

  </g> 
  <g id="RING-GROUP" >
      <animateTransform attributeName="transform" 
                        attributeType="XML" 
                        type="rotate" 
                        from="0 58.02 58.02" 
                        to="360 58.02 58.02" 
                        dur="1.75s" 
                        repeatCount="indefinite"
                        calcMode="spline"
                        keySplines="0.4, 0, 0.2, 1" 
                        keyTimes="0;1"/> 
    
      <path style="opacity:0.5;fill-rule:evenodd;clip-rule:evenodd;fill:none;stroke:#C1E0EF;stroke-width:9;stroke-linecap:round;stroke-miterlimit:10;" d="
      M32.557,105.36C15.569,96.206,4.093,78.183,4.273,57.545c0.152-17.39,8.547-32.779,21.444-42.49"/>

      <path style="opacity:0.5;fill-rule:evenodd;clip-rule:evenodd;fill:none;stroke:#C1E0EF;stroke-width:9;stroke-linecap:round;stroke-miterlimit:10;" d="
      M58.481,4.743c1.013,0.009,2.019,0.046,3.017,0.11 M86.788,102.859 M61.498,4.853c28.004,1.81,50.038,25.219,49.79,53.628
      c-0.163,18.656-9.897,34.989-24.5,44.378"/>
  </g>
  </svg>